<mxfile host="app.diagrams.net" modified="2021-09-27T07:07:51.394Z" agent="5.0 (Windows NT 10.0; Win64; x64) AppleWebKit/537.36 (KHTML, like Gecko) Chrome/93.0.4577.82 Safari/537.36" etag="twPC33UZk6PtZeeCBVYD" version="14.9.2" type="github">
  <diagram id="hrI3XNlA9dKTYM_6fsIP" name="ç¬¬ 1 é¡µ">
    <mxGraphModel dx="2920" dy="2255" grid="1" gridSize="10" guides="1" tooltips="1" connect="1" arrows="1" fold="1" page="1" pageScale="1" pageWidth="827" pageHeight="1169" math="0" shadow="0">
      <root>
        <mxCell id="0" />
        <mxCell id="1" parent="0" />
        <mxCell id="-wsc2XBUxjwpWOjfPmOZ-282" value="" style="shape=card;whiteSpace=wrap;html=1;shadow=0;comic=0;gradientColor=none;fontSize=22;direction=east;flipV=0;flipH=1;verticalAlign=top;labelPosition=center;verticalLabelPosition=bottom;align=center;fontStyle=1;strokeWidth=2;" parent="1" vertex="1">
          <mxGeometry x="630" y="-350" width="1070" height="610" as="geometry" />
        </mxCell>
        <mxCell id="-wsc2XBUxjwpWOjfPmOZ-291" value="" style="shape=card;whiteSpace=wrap;html=1;shadow=0;comic=0;strokeColor=#B3B3B3;gradientColor=none;fontSize=22;direction=east;flipV=0;flipH=1;fillColor=#f1f4f6;labelPosition=center;verticalLabelPosition=bottom;align=center;verticalAlign=top;" parent="1" vertex="1">
          <mxGeometry x="675" y="-70" width="979" height="320" as="geometry" />
        </mxCell>
        <mxCell id="-wsc2XBUxjwpWOjfPmOZ-280" value="" style="shape=card;whiteSpace=wrap;html=1;shadow=0;comic=0;gradientColor=none;fontSize=22;direction=east;flipV=0;flipH=1;verticalAlign=top;labelPosition=center;verticalLabelPosition=bottom;align=center;fontStyle=1;strokeWidth=2;strokeColor=#1A1A1A;" parent="1" vertex="1">
          <mxGeometry x="631" y="339" width="1070" height="602" as="geometry" />
        </mxCell>
        <mxCell id="-wsc2XBUxjwpWOjfPmOZ-263" style="edgeStyle=orthogonalEdgeStyle;rounded=0;orthogonalLoop=1;jettySize=auto;html=1;exitX=1;exitY=0.5;exitDx=0;exitDy=0;exitPerimeter=0;entryX=-0.006;entryY=0.469;entryDx=0;entryDy=0;entryPerimeter=0;fontSize=16;startArrow=classic;startFill=1;endArrow=classic;endFill=1;fontStyle=1" parent="1" source="-wsc2XBUxjwpWOjfPmOZ-222" target="-wsc2XBUxjwpWOjfPmOZ-219" edge="1">
          <mxGeometry relative="1" as="geometry" />
        </mxCell>
        <mxCell id="-wsc2XBUxjwpWOjfPmOZ-222" value="" style="shape=card;whiteSpace=wrap;html=1;shadow=0;comic=0;gradientColor=none;fontSize=22;direction=east;flipV=0;flipH=1;verticalAlign=top;labelPosition=center;verticalLabelPosition=bottom;align=center;fontStyle=1" parent="1" vertex="1">
          <mxGeometry x="2160" y="67" width="130" height="502" as="geometry" />
        </mxCell>
        <mxCell id="-wsc2XBUxjwpWOjfPmOZ-288" style="edgeStyle=orthogonalEdgeStyle;rounded=0;orthogonalLoop=1;jettySize=auto;html=1;exitX=1;exitY=0.5;exitDx=0;exitDy=0;exitPerimeter=0;entryX=0.003;entryY=0.459;entryDx=0;entryDy=0;entryPerimeter=0;fontSize=16;startArrow=classic;startFill=1;endArrow=classic;endFill=1;strokeColor=#666666;" parent="1" source="-wsc2XBUxjwpWOjfPmOZ-219" target="-wsc2XBUxjwpWOjfPmOZ-87" edge="1">
          <mxGeometry relative="1" as="geometry">
            <Array as="points">
              <mxPoint x="1750" y="334" />
              <mxPoint x="1750" y="-267" />
            </Array>
          </mxGeometry>
        </mxCell>
        <mxCell id="-wsc2XBUxjwpWOjfPmOZ-219" value="" style="shape=card;whiteSpace=wrap;html=1;shadow=0;comic=0;gradientColor=none;fontSize=22;direction=east;flipV=0;flipH=1;verticalAlign=top;labelPosition=center;verticalLabelPosition=bottom;align=center;fontStyle=1" parent="1" vertex="1">
          <mxGeometry x="1828" y="82.5" width="250" height="502" as="geometry" />
        </mxCell>
        <mxCell id="-wsc2XBUxjwpWOjfPmOZ-210" value="" style="shape=card;whiteSpace=wrap;html=1;shadow=0;comic=0;gradientColor=none;fontSize=22;direction=east;flipV=0;flipH=1;verticalAlign=top;labelPosition=center;verticalLabelPosition=bottom;align=center;fontStyle=1" parent="1" vertex="1">
          <mxGeometry x="37" y="73.5" width="130" height="502" as="geometry" />
        </mxCell>
        <mxCell id="-wsc2XBUxjwpWOjfPmOZ-301" style="edgeStyle=orthogonalEdgeStyle;rounded=0;orthogonalLoop=1;jettySize=auto;html=1;exitX=1;exitY=0.5;exitDx=0;exitDy=0;exitPerimeter=0;fontSize=16;startArrow=classic;startFill=1;endArrow=classic;endFill=1;" parent="1" edge="1">
          <mxGeometry relative="1" as="geometry">
            <mxPoint x="168" y="329" as="targetPoint" />
            <mxPoint x="242" y="329" as="sourcePoint" />
          </mxGeometry>
        </mxCell>
        <mxCell id="-wsc2XBUxjwpWOjfPmOZ-209" value="" style="shape=card;whiteSpace=wrap;html=1;shadow=0;comic=0;gradientColor=none;fontSize=22;direction=east;flipV=0;flipH=1;verticalAlign=top;labelPosition=center;verticalLabelPosition=bottom;align=center;fontStyle=1" parent="1" vertex="1">
          <mxGeometry x="244" y="88" width="250" height="502" as="geometry" />
        </mxCell>
        <mxCell id="-wsc2XBUxjwpWOjfPmOZ-2" value="" style="group;fontStyle=1" parent="1" vertex="1" connectable="0">
          <mxGeometry x="54" y="141" width="93" height="123.00000000000011" as="geometry" />
        </mxCell>
        <mxCell id="-wsc2XBUxjwpWOjfPmOZ-3" value="" style="shape=image;verticalLabelPosition=bottom;labelBackgroundColor=#ffffff;verticalAlign=top;aspect=fixed;imageAspect=0;image=data:image/svg+xml,PHN2ZyB4bWxucz0iaHR0cDovL3d3dy53My5vcmcvMjAwMC9zdmciIHZpZXdCb3g9IjAgMCAzMi44MyAzNi44MyI+PGRlZnM+PHN0eWxlPi5jbHMtMXtmaWxsOiNmZmY7fS5jbHMtMSwuY2xzLTN7c3Ryb2tlOmdyYXk7c3Ryb2tlLW1pdGVybGltaXQ6MTA7c3Ryb2tlLXdpZHRoOjAuODNweDt9LmNscy0ye2ZpbGw6I2RjZGRkZDt9LmNscy0ze2ZpbGw6bm9uZTt9PC9zdHlsZT48L2RlZnM+PHRpdGxlPui1hOa6kCAxNjwvdGl0bGU+PGcgaWQ9IuWbvuWxgl8yIiBkYXRhLW5hbWU9IuWbvuWxgiAyIj48ZyBpZD0i5Zu+5bGCXzEtMiIgZGF0YS1uYW1lPSLlm77lsYIgMSI+PHJlY3QgY2xhc3M9ImNscy0xIiB4PSIwLjQyIiB5PSIwLjQyIiB3aWR0aD0iMzIiIGhlaWdodD0iMzYiLz48cmVjdCBjbGFzcz0iY2xzLTIiIHg9IjAuNDIiIHk9IjI3LjQ3IiB3aWR0aD0iMzIiIGhlaWdodD0iOC42NCIvPjxyZWN0IGNsYXNzPSJjbHMtMyIgeD0iMC40MiIgeT0iMC40MiIgd2lkdGg9IjMyIiBoZWlnaHQ9IjM2Ii8+PC9nPjwvZz48L3N2Zz4=;fontStyle=1" parent="-wsc2XBUxjwpWOjfPmOZ-2" vertex="1">
          <mxGeometry x="9.5" width="72" height="80.73" as="geometry" />
        </mxCell>
        <mxCell id="-wsc2XBUxjwpWOjfPmOZ-4" value="&lt;font color=&quot;#333333&quot;&gt;&lt;span style=&quot;font-size: 16px&quot;&gt;老师&lt;/span&gt;&lt;/font&gt;" style="rounded=0;whiteSpace=wrap;html=1;shadow=1;comic=0;strokeColor=#E6E6E6;strokeWidth=2;fillColor=#ffffff;gradientColor=none;fontSize=22;fontColor=#FFFFFF;verticalAlign=bottom;fontStyle=1" parent="-wsc2XBUxjwpWOjfPmOZ-2" vertex="1">
          <mxGeometry y="93.00000000000011" width="93" height="30" as="geometry" />
        </mxCell>
        <mxCell id="-wsc2XBUxjwpWOjfPmOZ-1" value="" style="shape=image;verticalLabelPosition=bottom;verticalAlign=top;imageAspect=0;aspect=fixed;image=data:image/svg+xml,PHN2ZyB4bWxucz0iaHR0cDovL3d3dy53My5vcmcvMjAwMC9zdmciIHhtbG5zOnhsaW5rPSJodHRwOi8vd3d3LnczLm9yZy8xOTk5L3hsaW5rIiB0PSIxNjI2ODMzODI4NTM2IiBjbGFzcz0iaWNvbiIgdmlld0JveD0iMzAuMDQ5NjUwMTkyMjYwNzQyIDg4Ljc5OTk4Nzc5Mjk2ODc1IDk2My44OTAzODA4NTkzNzUgODQ2LjQwMDA4NTQ0OTIxODgiIHZlcnNpb249IjEuMSIgcC1pZD0iODk3OCIgd2lkdGg9Ijk2My44OTAzODA4NTkzNzUiIGhlaWdodD0iODQ2LjQwMDA4NTQ0OTIxODgiPjxkZWZzPjxzdHlsZSB0eXBlPSJ0ZXh0L2NzcyIvPjwvZGVmcz48cGF0aCBkPSJNMzExLjQxIDM1Ny40MWExMzQuNDQgMTM0LjQ0IDAgMCAxIDMgMjY4Ljg1aC0xYTEzNi41MiAxMzYuNTIgMCAwIDEtMTM2LjQ3LTEzNC43MSAxMzQuNDYgMTM0LjQ2IDAgMCAxIDEzMy41NC0xMzQuMTRoMC45M20wLTUxaC0xLjI3YTE4NS40MSAxODUuNDEgMCAwIDAtMTg0LjE3IDE4NS40YzEuMTQgMTAyLjgzIDg0Ljg0IDE4NS40NyAxODcuNDMgMTg1LjQ3aDEuNzRhMTg1LjQzIDE4NS40MyAwIDAgMCAxODEuNjUtMTg3LjkzYy0xLjM3LTEwMS40Ny04NC4wNy0xODIuOTEtMTg1LjM4LTE4Mi45MXoiIHAtaWQ9Ijg5NzkiIGZpbGw9IiMxMjk2ZGIiLz48cGF0aCBkPSJNNDg1LjQgOTM1LjJjLTEuMjYgMC0yLjUyLTAuMDYtMy43OC0wLjE3bC0xMzMuODUtMC4xNWMtMjc0LjQ2LTAuMjktMjc0LjktMC4zMi0yNzYuNTItMC40NGE0NC43MiA0NC43MiAwIDAgMS00MS4wOC00Ny44NmM3LjA1LTk5LjMgNzEuNTUtMjAyLjI1IDc2LjktMjEwLjU4YTYzIDYzIDAgMCAxIDM3LjMzLTI4LjM0YzcuMzQtMiAyNS45MS0xLjE0IDM2LjQ5IDQuMjZhNDMuNTYgNDMuNTYgMCAwIDEgMy44NyAyLjI4YzEuNSAxIDMgMiA0Ljc4IDMuMjhhMjE1LjI3IDIxNS4yNyAwIDAgMCAyNDkuNTQgMS4zNmwxNDYuODEtMTA3LjU2IDYuMTYtNC43NmE1MC40MiA1MC40MiAwIDAgMSAzMC0xMC41NGgwLjU4YTQ5LjMgNDkuMyAwIDAgMSA0OSA0OHYwLjRjMC4wNiA4LjA5LTMuMTggMTMuMzctOS4wNiAyMy0zLjI5IDUuMzYtOC4wOSAxMy0xNC4yNyAyMi41OC0xMC4yOSAxNi0yNC42MyAzOC00Mi42MSA2NS4zNS0yOS4yMiA0NC40My01OC44IDg4Ljg5LTYxLjYzIDkzLjE1LTguNTQgMTMuODgtMTQuMzQgNTQuODItMTQuMzQgMTAyYTQ1IDQ1IDAgMCAxLTE1LjM0IDMzLjgyIDQ0LjA4IDQ0LjA4IDAgMCAxLTI4Ljk4IDEwLjkyek04MS41OSA4ODMuNTdjMzMuNzcgMC4wOSAxNjYuMjkgMC4yMyAyNjYuMjMgMC4zMyA4Ny43OSAwLjA5IDExOS4yMyAwLjEzIDEzMSAwLjIgMC4zNy0zNiA0LTk0LjA1IDIyLjMtMTIzLjEzbDAuMzYtMC41NWMzMy4wNi00OS42NiA4Mi4wOC0xMjMuODcgMTA2LjY4LTE2Mi4yN0w0NjguNjUgNzAwLjM2YTI2Ni4yNSAyNjYuMjUgMCAwIDEtMzA4LjkzLTEuNTFjLTAuNDMtMC4zLTAuODEtMC41OC0xLjE4LTAuODMtMC44OC0wLjEyLTItMC4yMi0zLTAuMjhhMTIuMjMgMTIuMjMgMCAwIDAtNC44OSA0LjYzbC0wLjUyIDAuODVjLTAuNTYgMC45NC01OS43OCA5My45My02OC41NCAxODAuMzV6TTg0MC45OTggMzQ3LjY5MmwyMC45NjUgMjAuOTY2YTEwLjY2IDEwLjY2IDAgMCAxIDAgMTUuMDc2TDY5Ni41IDU0OS4xOTdsLTM2LjA2Mi0zNi4wNjNMODI1LjkgMzQ3LjY3MWExMC42NiAxMC42NiAwIDAgMSAxNS4wNzUgMHoiIHAtaWQ9Ijg5ODAiIGZpbGw9IiMxMjk2ZGIiLz48cGF0aCBkPSJNOTY4LjQ1IDgwMC4wM0g2NTQuNzJhMjUuNSAyNS41IDAgMCAxIDAtNTFoMjg4LjI1VjEzOS43OEgxMTQuNTJ2MTkyLjM3YTI1LjUgMjUuNSAwIDAgMS01MSAwVjExNC4yOEEyNS41IDI1LjUgMCAwIDEgODkuMDMgODguOGg4NzkuNDJhMjUuNDkgMjUuNDkgMCAwIDEgMjUuNDkgMjUuNDh2NjYwLjI2YTI1LjQ5IDI1LjQ5IDAgMCAxLTI1LjQ5IDI1LjQ5eiIgcC1pZD0iODk4MSIgZmlsbD0iIzEyOTZkYiIvPjwvc3ZnPg==;fontStyle=1" parent="-wsc2XBUxjwpWOjfPmOZ-2" vertex="1">
          <mxGeometry x="25.5" y="13" width="40" height="35.15" as="geometry" />
        </mxCell>
        <mxCell id="-wsc2XBUxjwpWOjfPmOZ-5" value="" style="group;fontStyle=1" parent="1" vertex="1" connectable="0">
          <mxGeometry x="54" y="390" width="93" height="123.00000000000011" as="geometry" />
        </mxCell>
        <mxCell id="-wsc2XBUxjwpWOjfPmOZ-6" value="" style="shape=image;verticalLabelPosition=bottom;labelBackgroundColor=#ffffff;verticalAlign=top;aspect=fixed;imageAspect=0;image=data:image/svg+xml,PHN2ZyB4bWxucz0iaHR0cDovL3d3dy53My5vcmcvMjAwMC9zdmciIHZpZXdCb3g9IjAgMCAzMi44MyAzNi44MyI+PGRlZnM+PHN0eWxlPi5jbHMtMXtmaWxsOiNmZmY7fS5jbHMtMSwuY2xzLTN7c3Ryb2tlOmdyYXk7c3Ryb2tlLW1pdGVybGltaXQ6MTA7c3Ryb2tlLXdpZHRoOjAuODNweDt9LmNscy0ye2ZpbGw6I2RjZGRkZDt9LmNscy0ze2ZpbGw6bm9uZTt9PC9zdHlsZT48L2RlZnM+PHRpdGxlPui1hOa6kCAxNjwvdGl0bGU+PGcgaWQ9IuWbvuWxgl8yIiBkYXRhLW5hbWU9IuWbvuWxgiAyIj48ZyBpZD0i5Zu+5bGCXzEtMiIgZGF0YS1uYW1lPSLlm77lsYIgMSI+PHJlY3QgY2xhc3M9ImNscy0xIiB4PSIwLjQyIiB5PSIwLjQyIiB3aWR0aD0iMzIiIGhlaWdodD0iMzYiLz48cmVjdCBjbGFzcz0iY2xzLTIiIHg9IjAuNDIiIHk9IjI3LjQ3IiB3aWR0aD0iMzIiIGhlaWdodD0iOC42NCIvPjxyZWN0IGNsYXNzPSJjbHMtMyIgeD0iMC40MiIgeT0iMC40MiIgd2lkdGg9IjMyIiBoZWlnaHQ9IjM2Ii8+PC9nPjwvZz48L3N2Zz4=;fontStyle=1" parent="-wsc2XBUxjwpWOjfPmOZ-5" vertex="1">
          <mxGeometry x="9.5" y="-1" width="72" height="80.73" as="geometry" />
        </mxCell>
        <mxCell id="-wsc2XBUxjwpWOjfPmOZ-7" value="&lt;font color=&quot;#333333&quot;&gt;&lt;span style=&quot;font-size: 16px&quot;&gt;老师&lt;/span&gt;&lt;/font&gt;" style="rounded=0;whiteSpace=wrap;html=1;shadow=1;comic=0;strokeColor=#E6E6E6;strokeWidth=2;fillColor=#ffffff;gradientColor=none;fontSize=22;fontColor=#FFFFFF;verticalAlign=bottom;fontStyle=1" parent="-wsc2XBUxjwpWOjfPmOZ-5" vertex="1">
          <mxGeometry y="93.00000000000011" width="93" height="30" as="geometry" />
        </mxCell>
        <mxCell id="-wsc2XBUxjwpWOjfPmOZ-8" value="" style="shape=image;verticalLabelPosition=bottom;verticalAlign=top;imageAspect=0;aspect=fixed;image=data:image/svg+xml,PHN2ZyB4bWxucz0iaHR0cDovL3d3dy53My5vcmcvMjAwMC9zdmciIHhtbG5zOnhsaW5rPSJodHRwOi8vd3d3LnczLm9yZy8xOTk5L3hsaW5rIiB0PSIxNjI2ODMzODI4NTM2IiBjbGFzcz0iaWNvbiIgdmlld0JveD0iMzAuMDQ5NjUwMTkyMjYwNzQyIDg4Ljc5OTk4Nzc5Mjk2ODc1IDk2My44OTAzODA4NTkzNzUgODQ2LjQwMDA4NTQ0OTIxODgiIHZlcnNpb249IjEuMSIgcC1pZD0iODk3OCIgd2lkdGg9Ijk2My44OTAzODA4NTkzNzUiIGhlaWdodD0iODQ2LjQwMDA4NTQ0OTIxODgiPjxkZWZzPjxzdHlsZSB0eXBlPSJ0ZXh0L2NzcyIvPjwvZGVmcz48cGF0aCBkPSJNMzExLjQxIDM1Ny40MWExMzQuNDQgMTM0LjQ0IDAgMCAxIDMgMjY4Ljg1aC0xYTEzNi41MiAxMzYuNTIgMCAwIDEtMTM2LjQ3LTEzNC43MSAxMzQuNDYgMTM0LjQ2IDAgMCAxIDEzMy41NC0xMzQuMTRoMC45M20wLTUxaC0xLjI3YTE4NS40MSAxODUuNDEgMCAwIDAtMTg0LjE3IDE4NS40YzEuMTQgMTAyLjgzIDg0Ljg0IDE4NS40NyAxODcuNDMgMTg1LjQ3aDEuNzRhMTg1LjQzIDE4NS40MyAwIDAgMCAxODEuNjUtMTg3LjkzYy0xLjM3LTEwMS40Ny04NC4wNy0xODIuOTEtMTg1LjM4LTE4Mi45MXoiIHAtaWQ9Ijg5NzkiIGZpbGw9IiMxMjk2ZGIiLz48cGF0aCBkPSJNNDg1LjQgOTM1LjJjLTEuMjYgMC0yLjUyLTAuMDYtMy43OC0wLjE3bC0xMzMuODUtMC4xNWMtMjc0LjQ2LTAuMjktMjc0LjktMC4zMi0yNzYuNTItMC40NGE0NC43MiA0NC43MiAwIDAgMS00MS4wOC00Ny44NmM3LjA1LTk5LjMgNzEuNTUtMjAyLjI1IDc2LjktMjEwLjU4YTYzIDYzIDAgMCAxIDM3LjMzLTI4LjM0YzcuMzQtMiAyNS45MS0xLjE0IDM2LjQ5IDQuMjZhNDMuNTYgNDMuNTYgMCAwIDEgMy44NyAyLjI4YzEuNSAxIDMgMiA0Ljc4IDMuMjhhMjE1LjI3IDIxNS4yNyAwIDAgMCAyNDkuNTQgMS4zNmwxNDYuODEtMTA3LjU2IDYuMTYtNC43NmE1MC40MiA1MC40MiAwIDAgMSAzMC0xMC41NGgwLjU4YTQ5LjMgNDkuMyAwIDAgMSA0OSA0OHYwLjRjMC4wNiA4LjA5LTMuMTggMTMuMzctOS4wNiAyMy0zLjI5IDUuMzYtOC4wOSAxMy0xNC4yNyAyMi41OC0xMC4yOSAxNi0yNC42MyAzOC00Mi42MSA2NS4zNS0yOS4yMiA0NC40My01OC44IDg4Ljg5LTYxLjYzIDkzLjE1LTguNTQgMTMuODgtMTQuMzQgNTQuODItMTQuMzQgMTAyYTQ1IDQ1IDAgMCAxLTE1LjM0IDMzLjgyIDQ0LjA4IDQ0LjA4IDAgMCAxLTI4Ljk4IDEwLjkyek04MS41OSA4ODMuNTdjMzMuNzcgMC4wOSAxNjYuMjkgMC4yMyAyNjYuMjMgMC4zMyA4Ny43OSAwLjA5IDExOS4yMyAwLjEzIDEzMSAwLjIgMC4zNy0zNiA0LTk0LjA1IDIyLjMtMTIzLjEzbDAuMzYtMC41NWMzMy4wNi00OS42NiA4Mi4wOC0xMjMuODcgMTA2LjY4LTE2Mi4yN0w0NjguNjUgNzAwLjM2YTI2Ni4yNSAyNjYuMjUgMCAwIDEtMzA4LjkzLTEuNTFjLTAuNDMtMC4zLTAuODEtMC41OC0xLjE4LTAuODMtMC44OC0wLjEyLTItMC4yMi0zLTAuMjhhMTIuMjMgMTIuMjMgMCAwIDAtNC44OSA0LjYzbC0wLjUyIDAuODVjLTAuNTYgMC45NC01OS43OCA5My45My02OC41NCAxODAuMzV6TTg0MC45OTggMzQ3LjY5MmwyMC45NjUgMjAuOTY2YTEwLjY2IDEwLjY2IDAgMCAxIDAgMTUuMDc2TDY5Ni41IDU0OS4xOTdsLTM2LjA2Mi0zNi4wNjNMODI1LjkgMzQ3LjY3MWExMC42NiAxMC42NiAwIDAgMSAxNS4wNzUgMHoiIHAtaWQ9Ijg5ODAiIGZpbGw9IiMxMjk2ZGIiLz48cGF0aCBkPSJNOTY4LjQ1IDgwMC4wM0g2NTQuNzJhMjUuNSAyNS41IDAgMCAxIDAtNTFoMjg4LjI1VjEzOS43OEgxMTQuNTJ2MTkyLjM3YTI1LjUgMjUuNSAwIDAgMS01MSAwVjExNC4yOEEyNS41IDI1LjUgMCAwIDEgODkuMDMgODguOGg4NzkuNDJhMjUuNDkgMjUuNDkgMCAwIDEgMjUuNDkgMjUuNDh2NjYwLjI2YTI1LjQ5IDI1LjQ5IDAgMCAxLTI1LjQ5IDI1LjQ5eiIgcC1pZD0iODk4MSIgZmlsbD0iIzEyOTZkYiIvPjwvc3ZnPg==;fontStyle=1" parent="-wsc2XBUxjwpWOjfPmOZ-5" vertex="1">
          <mxGeometry x="25.5" y="13" width="40" height="35.15" as="geometry" />
        </mxCell>
        <mxCell id="-wsc2XBUxjwpWOjfPmOZ-10" value="" style="group;fontStyle=1" parent="1" vertex="1" connectable="0">
          <mxGeometry x="2177" y="137" width="93" height="123.00000000000011" as="geometry" />
        </mxCell>
        <mxCell id="-wsc2XBUxjwpWOjfPmOZ-11" value="" style="shape=image;verticalLabelPosition=bottom;labelBackgroundColor=#ffffff;verticalAlign=top;aspect=fixed;imageAspect=0;image=data:image/svg+xml,PHN2ZyB4bWxucz0iaHR0cDovL3d3dy53My5vcmcvMjAwMC9zdmciIHZpZXdCb3g9IjAgMCAzMi44MyAzNi44MyI+PGRlZnM+PHN0eWxlPi5jbHMtMXtmaWxsOiNmZmY7fS5jbHMtMSwuY2xzLTN7c3Ryb2tlOmdyYXk7c3Ryb2tlLW1pdGVybGltaXQ6MTA7c3Ryb2tlLXdpZHRoOjAuODNweDt9LmNscy0ye2ZpbGw6I2RjZGRkZDt9LmNscy0ze2ZpbGw6bm9uZTt9PC9zdHlsZT48L2RlZnM+PHRpdGxlPui1hOa6kCAxNjwvdGl0bGU+PGcgaWQ9IuWbvuWxgl8yIiBkYXRhLW5hbWU9IuWbvuWxgiAyIj48ZyBpZD0i5Zu+5bGCXzEtMiIgZGF0YS1uYW1lPSLlm77lsYIgMSI+PHJlY3QgY2xhc3M9ImNscy0xIiB4PSIwLjQyIiB5PSIwLjQyIiB3aWR0aD0iMzIiIGhlaWdodD0iMzYiLz48cmVjdCBjbGFzcz0iY2xzLTIiIHg9IjAuNDIiIHk9IjI3LjQ3IiB3aWR0aD0iMzIiIGhlaWdodD0iOC42NCIvPjxyZWN0IGNsYXNzPSJjbHMtMyIgeD0iMC40MiIgeT0iMC40MiIgd2lkdGg9IjMyIiBoZWlnaHQ9IjM2Ii8+PC9nPjwvZz48L3N2Zz4=;fontStyle=1" parent="-wsc2XBUxjwpWOjfPmOZ-10" vertex="1">
          <mxGeometry x="9.5" width="72" height="80.73" as="geometry" />
        </mxCell>
        <mxCell id="-wsc2XBUxjwpWOjfPmOZ-12" value="&lt;font color=&quot;#333333&quot;&gt;&lt;span style=&quot;font-size: 16px&quot;&gt;学生&lt;/span&gt;&lt;/font&gt;" style="rounded=0;whiteSpace=wrap;html=1;shadow=1;comic=0;strokeColor=#E6E6E6;strokeWidth=2;fillColor=#ffffff;gradientColor=none;fontSize=22;fontColor=#FFFFFF;verticalAlign=bottom;fontStyle=1" parent="-wsc2XBUxjwpWOjfPmOZ-10" vertex="1">
          <mxGeometry y="93.00000000000011" width="93" height="30" as="geometry" />
        </mxCell>
        <mxCell id="-wsc2XBUxjwpWOjfPmOZ-9" value="" style="shape=image;verticalLabelPosition=bottom;verticalAlign=top;imageAspect=0;aspect=fixed;image=data:image/svg+xml,PHN2ZyB4bWxucz0iaHR0cDovL3d3dy53My5vcmcvMjAwMC9zdmciIHhtbG5zOnhsaW5rPSJodHRwOi8vd3d3LnczLm9yZy8xOTk5L3hsaW5rIiB0PSIxNjI2ODMzNzg5ODE3IiBjbGFzcz0iaWNvbiIgdmlld0JveD0iMC4wMDAwMDc2MjkzOTQ1MzEyNSAwLjAwMDcyNDc5MjQ4MDQ2ODc1IDExMjYuMTM2MTA4Mzk4NDM3NSAxMDIzLjk5OTE0NTUwNzgxMjUiIHZlcnNpb249IjEuMSIgcC1pZD0iNzg0MCIgd2lkdGg9IjExMjYuMTM2MTA4Mzk4NDM3NSIgaGVpZ2h0PSIxMDIzLjk5OTE0NTUwNzgxMjUiPjxkZWZzPjxzdHlsZSB0eXBlPSJ0ZXh0L2NzcyIvPjwvZGVmcz48cGF0aCBkPSJNMTExOS4yMjM3MTcgNDczLjk2Nzg1MWwtMjEuMzkwNTI4LTI0LjUzMzEwM2EyMy43MjcwMTQgMjMuNzI3MDE0IDAgMCAxLTUuODQxMjE1LTE1LjU4NDM2MVYyNjQuNTgzNjY1YzI3Ljk2NzczNi0xNy4zNjAwOSA3Mi4wNDU1NDMtMzEuNjI0MzM3LTI4LjMwNjUyNy03NC45NTQ0NjhDOTQ4LjY5NTI5MyAxNDIuNjU0MTQ4IDc0Ni42NDc2NzMgNjQuMjI5OTk4IDY0NC44NzAzNDYgMjIuNjc1NTk2Yy0wLjQ5MDY2Mi0wLjE5ODYwMS04LjkxMzY5NC0zLjkwMTkzMS05LjM0NTk0My00LjA4ODg1MS03Ni4yMDQ0ODgtMzEuNzk5NTczLTEwOS42OTgwMTQtMTguMjAxMjI1LTE3MS4zNTc4NzcgNi40OTU0MzEtMTA0LjU1Nzc0NSAzOS4yMDYyMzQtMjc4LjA0MTgyNCAxMTAuOTgzMDgxLTM5Ny4zNzc4NDIgMTU1LjkwMjAyMy05MS41Nzg1NjUgMzMuOTYwODIzLTg2LjAxNzcyOSA1OS4zNDY3NDItMS40NDg2MjIgOTkuMzgyNDI4IDEyNi42MDI0ODkgNjAuMDAwOTU4IDM2OS40OTE4ODMgMTUyLjE3NTMyOCA0MjMuMTk2MDEyIDE3Mi4xNTIyODNzOTIuNDU0NzQ4IDIwLjEwNTQ2MSAxNDYuNTkxMTI2LTQuMDMwNDM4YzUxLjYzNjMzOS0yMy4wMTQzODYgMTM3LjMyNjk2LTUyLjE3MzczMSAzNTQuMzk4MTg0LTE0MS4wNzcwMmEyMy43MjcwMTQgMjMuNzI3MDE0IDAgMCAxIDMyLjcxMDgwMyAyMS45NTEyODV2MTAyLjk5MjI5OWEyMy43MjcwMTQgMjMuNzI3MDE0IDAgMCAxLTYuMDYzMTgxIDE1Ljg0MTM3NWwtMjMuNzUwMzc5IDI2LjU4OTIxYTIzLjcyNzAxNCAyMy43MjcwMTQgMCAwIDAgMS4zNDM0NzkgMzMuMDYxMjc1bDQzLjA0OTc1MyA0MC43MjQ5NWEyMy43MjcwMTQgMjMuNzI3MDE0IDAgMCAwIDMxLjg1Nzk4NSAwLjcxMjYyOGw0OC4yMDE3MDUtNDEuNzg4MDUxYTIzLjcyNzAxNCAyMy43MjcwMTQgMCAwIDAgMi4zNDgxNjgtMzMuNTI4NTcyeiIgcC1pZD0iNzg0MSIgZmlsbD0iIzEyOTZkYiIvPjxwYXRoIGQ9Ik05NDEuMDE5OTM2IDQ5NC44OTEwODJjLTkzLjk2MTc4MSAzNi4zNjc0MDMtMjM1LjQwMDk1NiA5MS4zMjE1NTItMjkzLjQ4NTk5NiAxMTEuOTk5NDUyLTc5LjYwNDA3NSAyOC4zMjk4OTItMTAxLjUwODYzMSAxOC4wNzI3MTktMTY2LjIyOTI5LTEuNDYwMzAzLTg5LjQ3NTcyOC0yNy4wMDk3NzctMjIwLjMxODkzOS04Mi4zMDI3MTYtMjk2LjQwNjYwMy0xMDguNzI4MzczYTIzLjIxMjk4OCAyMy4yMTI5ODggMCAwIDAtMzAuODA2NTY3IDIxLjkzOTYwM3YzNjkuMjgxNTk5YTIzLjIxMjk4OCAyMy4yMTI5ODggMCAwIDAgMTEuMDk4MzA4IDE5Ljg2MDEzMWM0Mi43NTc2OTIgMjYuMTgwMzI1IDIwNC41OTQzODkgMTE2LjIxNjgwOSA0MDguMDkwNjMgMTE2LjIxNjgwOSAxODguOTE2NTY5IDAgMzQ2LjUzNTkwOS04OS45NTQ3MDggMzg4LjQxNzQxOS0xMTYuMTkzNDQ1YTIzLjIxMjk4OCAyMy4yMTI5ODggMCAwIDAgMTAuOTExMzg5LTE5LjY4NDg5M3YtMzcxLjUwMTI2MWEyMy4yMTI5ODggMjMuMjEyOTg4IDAgMCAwLTMxLjU4OTI5LTIxLjcyOTMxOXoiIHAtaWQ9Ijc4NDIiIGZpbGw9IiMxMjk2ZGIiLz48L3N2Zz4=;fontStyle=1" parent="-wsc2XBUxjwpWOjfPmOZ-10" vertex="1">
          <mxGeometry x="24.5" y="10" width="40" height="36.38" as="geometry" />
        </mxCell>
        <mxCell id="-wsc2XBUxjwpWOjfPmOZ-13" value="" style="group;fontStyle=1" parent="1" vertex="1" connectable="0">
          <mxGeometry x="2177" y="384" width="93" height="123.00000000000011" as="geometry" />
        </mxCell>
        <mxCell id="-wsc2XBUxjwpWOjfPmOZ-14" value="" style="shape=image;verticalLabelPosition=bottom;labelBackgroundColor=#ffffff;verticalAlign=top;aspect=fixed;imageAspect=0;image=data:image/svg+xml,PHN2ZyB4bWxucz0iaHR0cDovL3d3dy53My5vcmcvMjAwMC9zdmciIHZpZXdCb3g9IjAgMCAzMi44MyAzNi44MyI+PGRlZnM+PHN0eWxlPi5jbHMtMXtmaWxsOiNmZmY7fS5jbHMtMSwuY2xzLTN7c3Ryb2tlOmdyYXk7c3Ryb2tlLW1pdGVybGltaXQ6MTA7c3Ryb2tlLXdpZHRoOjAuODNweDt9LmNscy0ye2ZpbGw6I2RjZGRkZDt9LmNscy0ze2ZpbGw6bm9uZTt9PC9zdHlsZT48L2RlZnM+PHRpdGxlPui1hOa6kCAxNjwvdGl0bGU+PGcgaWQ9IuWbvuWxgl8yIiBkYXRhLW5hbWU9IuWbvuWxgiAyIj48ZyBpZD0i5Zu+5bGCXzEtMiIgZGF0YS1uYW1lPSLlm77lsYIgMSI+PHJlY3QgY2xhc3M9ImNscy0xIiB4PSIwLjQyIiB5PSIwLjQyIiB3aWR0aD0iMzIiIGhlaWdodD0iMzYiLz48cmVjdCBjbGFzcz0iY2xzLTIiIHg9IjAuNDIiIHk9IjI3LjQ3IiB3aWR0aD0iMzIiIGhlaWdodD0iOC42NCIvPjxyZWN0IGNsYXNzPSJjbHMtMyIgeD0iMC40MiIgeT0iMC40MiIgd2lkdGg9IjMyIiBoZWlnaHQ9IjM2Ii8+PC9nPjwvZz48L3N2Zz4=;fontStyle=1" parent="-wsc2XBUxjwpWOjfPmOZ-13" vertex="1">
          <mxGeometry x="9.5" width="72" height="80.73" as="geometry" />
        </mxCell>
        <mxCell id="-wsc2XBUxjwpWOjfPmOZ-15" value="&lt;font color=&quot;#333333&quot;&gt;&lt;span style=&quot;font-size: 16px&quot;&gt;学生&lt;/span&gt;&lt;/font&gt;" style="rounded=0;whiteSpace=wrap;html=1;shadow=1;comic=0;strokeColor=#E6E6E6;strokeWidth=2;fillColor=#ffffff;gradientColor=none;fontSize=22;fontColor=#FFFFFF;verticalAlign=bottom;fontStyle=1" parent="-wsc2XBUxjwpWOjfPmOZ-13" vertex="1">
          <mxGeometry y="93.00000000000011" width="93" height="30" as="geometry" />
        </mxCell>
        <mxCell id="-wsc2XBUxjwpWOjfPmOZ-16" value="" style="shape=image;verticalLabelPosition=bottom;verticalAlign=top;imageAspect=0;aspect=fixed;image=data:image/svg+xml,PHN2ZyB4bWxucz0iaHR0cDovL3d3dy53My5vcmcvMjAwMC9zdmciIHhtbG5zOnhsaW5rPSJodHRwOi8vd3d3LnczLm9yZy8xOTk5L3hsaW5rIiB0PSIxNjI2ODMzNzg5ODE3IiBjbGFzcz0iaWNvbiIgdmlld0JveD0iMC4wMDAwMDc2MjkzOTQ1MzEyNSAwLjAwMDcyNDc5MjQ4MDQ2ODc1IDExMjYuMTM2MTA4Mzk4NDM3NSAxMDIzLjk5OTE0NTUwNzgxMjUiIHZlcnNpb249IjEuMSIgcC1pZD0iNzg0MCIgd2lkdGg9IjExMjYuMTM2MTA4Mzk4NDM3NSIgaGVpZ2h0PSIxMDIzLjk5OTE0NTUwNzgxMjUiPjxkZWZzPjxzdHlsZSB0eXBlPSJ0ZXh0L2NzcyIvPjwvZGVmcz48cGF0aCBkPSJNMTExOS4yMjM3MTcgNDczLjk2Nzg1MWwtMjEuMzkwNTI4LTI0LjUzMzEwM2EyMy43MjcwMTQgMjMuNzI3MDE0IDAgMCAxLTUuODQxMjE1LTE1LjU4NDM2MVYyNjQuNTgzNjY1YzI3Ljk2NzczNi0xNy4zNjAwOSA3Mi4wNDU1NDMtMzEuNjI0MzM3LTI4LjMwNjUyNy03NC45NTQ0NjhDOTQ4LjY5NTI5MyAxNDIuNjU0MTQ4IDc0Ni42NDc2NzMgNjQuMjI5OTk4IDY0NC44NzAzNDYgMjIuNjc1NTk2Yy0wLjQ5MDY2Mi0wLjE5ODYwMS04LjkxMzY5NC0zLjkwMTkzMS05LjM0NTk0My00LjA4ODg1MS03Ni4yMDQ0ODgtMzEuNzk5NTczLTEwOS42OTgwMTQtMTguMjAxMjI1LTE3MS4zNTc4NzcgNi40OTU0MzEtMTA0LjU1Nzc0NSAzOS4yMDYyMzQtMjc4LjA0MTgyNCAxMTAuOTgzMDgxLTM5Ny4zNzc4NDIgMTU1LjkwMjAyMy05MS41Nzg1NjUgMzMuOTYwODIzLTg2LjAxNzcyOSA1OS4zNDY3NDItMS40NDg2MjIgOTkuMzgyNDI4IDEyNi42MDI0ODkgNjAuMDAwOTU4IDM2OS40OTE4ODMgMTUyLjE3NTMyOCA0MjMuMTk2MDEyIDE3Mi4xNTIyODNzOTIuNDU0NzQ4IDIwLjEwNTQ2MSAxNDYuNTkxMTI2LTQuMDMwNDM4YzUxLjYzNjMzOS0yMy4wMTQzODYgMTM3LjMyNjk2LTUyLjE3MzczMSAzNTQuMzk4MTg0LTE0MS4wNzcwMmEyMy43MjcwMTQgMjMuNzI3MDE0IDAgMCAxIDMyLjcxMDgwMyAyMS45NTEyODV2MTAyLjk5MjI5OWEyMy43MjcwMTQgMjMuNzI3MDE0IDAgMCAxLTYuMDYzMTgxIDE1Ljg0MTM3NWwtMjMuNzUwMzc5IDI2LjU4OTIxYTIzLjcyNzAxNCAyMy43MjcwMTQgMCAwIDAgMS4zNDM0NzkgMzMuMDYxMjc1bDQzLjA0OTc1MyA0MC43MjQ5NWEyMy43MjcwMTQgMjMuNzI3MDE0IDAgMCAwIDMxLjg1Nzk4NSAwLjcxMjYyOGw0OC4yMDE3MDUtNDEuNzg4MDUxYTIzLjcyNzAxNCAyMy43MjcwMTQgMCAwIDAgMi4zNDgxNjgtMzMuNTI4NTcyeiIgcC1pZD0iNzg0MSIgZmlsbD0iIzEyOTZkYiIvPjxwYXRoIGQ9Ik05NDEuMDE5OTM2IDQ5NC44OTEwODJjLTkzLjk2MTc4MSAzNi4zNjc0MDMtMjM1LjQwMDk1NiA5MS4zMjE1NTItMjkzLjQ4NTk5NiAxMTEuOTk5NDUyLTc5LjYwNDA3NSAyOC4zMjk4OTItMTAxLjUwODYzMSAxOC4wNzI3MTktMTY2LjIyOTI5LTEuNDYwMzAzLTg5LjQ3NTcyOC0yNy4wMDk3NzctMjIwLjMxODkzOS04Mi4zMDI3MTYtMjk2LjQwNjYwMy0xMDguNzI4MzczYTIzLjIxMjk4OCAyMy4yMTI5ODggMCAwIDAtMzAuODA2NTY3IDIxLjkzOTYwM3YzNjkuMjgxNTk5YTIzLjIxMjk4OCAyMy4yMTI5ODggMCAwIDAgMTEuMDk4MzA4IDE5Ljg2MDEzMWM0Mi43NTc2OTIgMjYuMTgwMzI1IDIwNC41OTQzODkgMTE2LjIxNjgwOSA0MDguMDkwNjMgMTE2LjIxNjgwOSAxODguOTE2NTY5IDAgMzQ2LjUzNTkwOS04OS45NTQ3MDggMzg4LjQxNzQxOS0xMTYuMTkzNDQ1YTIzLjIxMjk4OCAyMy4yMTI5ODggMCAwIDAgMTAuOTExMzg5LTE5LjY4NDg5M3YtMzcxLjUwMTI2MWEyMy4yMTI5ODggMjMuMjEyOTg4IDAgMCAwLTMxLjU4OTI5LTIxLjcyOTMxOXoiIHAtaWQ9Ijc4NDIiIGZpbGw9IiMxMjk2ZGIiLz48L3N2Zz4=;fontStyle=1" parent="-wsc2XBUxjwpWOjfPmOZ-13" vertex="1">
          <mxGeometry x="24.5" y="10" width="40" height="36.38" as="geometry" />
        </mxCell>
        <mxCell id="-wsc2XBUxjwpWOjfPmOZ-20" value="" style="group;fontStyle=1" parent="1" vertex="1" connectable="0">
          <mxGeometry x="1021" y="498" width="92" height="112" as="geometry" />
        </mxCell>
        <mxCell id="-wsc2XBUxjwpWOjfPmOZ-21" value="&lt;font color=&quot;#333333&quot;&gt;&lt;span style=&quot;font-size: 16px&quot;&gt;&lt;span&gt;VOD&lt;/span&gt;&lt;/span&gt;&lt;/font&gt;" style="rounded=0;whiteSpace=wrap;html=1;shadow=1;comic=0;strokeColor=#E6E6E6;strokeWidth=2;fillColor=#ffffff;gradientColor=none;fontSize=22;fontColor=#FFFFFF;verticalAlign=bottom;fontStyle=1" parent="-wsc2XBUxjwpWOjfPmOZ-20" vertex="1">
          <mxGeometry y="82" width="92" height="30" as="geometry" />
        </mxCell>
        <mxCell id="-wsc2XBUxjwpWOjfPmOZ-22" value="" style="shape=image;verticalLabelPosition=bottom;labelBackgroundColor=#ffffff;verticalAlign=top;aspect=fixed;imageAspect=0;image=data:image/svg+xml,PHN2ZyB4bWxucz0iaHR0cDovL3d3dy53My5vcmcvMjAwMC9zdmciIHZpZXdCb3g9IjAgMCA0MC43MSAzNi44NCI+PGRlZnM+PHN0eWxlPi5jbHMtMXtmaWxsOiNmZmY7c3Ryb2tlOiMyMzE4MTU7c3Ryb2tlLXdpZHRoOjAuNzhweDt9LmNscy0xLC5jbHMtNHtzdHJva2UtbWl0ZXJsaW1pdDoxMDt9LmNscy0ye2ZpbGw6I2VmZWZlZjt9LmNscy0ze2ZpbGw6I2RjZGRkZDt9LmNscy00e2ZpbGw6bm9uZTtzdHJva2U6Z3JheTtzdHJva2Utd2lkdGg6MC42OHB4O308L3N0eWxlPjwvZGVmcz48dGl0bGU+6LWE5rqQIDE4PC90aXRsZT48ZyBpZD0i5Zu+5bGCXzIiIGRhdGEtbmFtZT0i5Zu+5bGCIDIiPjxnIGlkPSLlm77lsYJfMS0yIiBkYXRhLW5hbWU9IuWbvuWxgiAxIj48cG9seWdvbiBjbGFzcz0iY2xzLTEiIHBvaW50cz0iNDAuMzEgMTIuODYgMjAuMzYgMC40NiAwLjQgMTIuODYgMC4zOSAyNC4wNSAyMC4zNCAzNi40NiAyMC4zNyAzNi40NiA0MC4zMyAyNC4wNSA0MC4zMSAxMi44NiIvPjxwb2x5Z29uIGNsYXNzPSJjbHMtMiIgcG9pbnRzPSIyMC40IDM2LjQzIDAuNDUgMjQuMDIgMC40NiAxMi44NCAyMC40MiAyNS4yNCAyMC40IDM2LjQzIi8+PHBvbHlnb24gY2xhc3M9ImNscy0zIiBwb2ludHM9IjIwLjQzIDM2LjQzIDQwLjM4IDI0LjAyIDQwLjM3IDEyLjg0IDIwLjQyIDI1LjI0IDIwLjQzIDM2LjQzIi8+PHBvbHlnb24gY2xhc3M9ImNscy00IiBwb2ludHM9IjQwLjMxIDEyLjg2IDIwLjM2IDAuNDYgMC40IDEyLjg2IDAuMzkgMjQuMDUgMjAuMzQgMzYuNDYgMjAuMzcgMzYuNDYgNDAuMzMgMjQuMDUgNDAuMzEgMTIuODYiLz48L2c+PC9nPjwvc3ZnPg==;fontStyle=1" parent="-wsc2XBUxjwpWOjfPmOZ-20" vertex="1">
          <mxGeometry x="1.0000000000001137" width="90" height="81.22" as="geometry" />
        </mxCell>
        <mxCell id="-wsc2XBUxjwpWOjfPmOZ-23" value="" style="shape=image;verticalLabelPosition=bottom;verticalAlign=top;imageAspect=0;aspect=fixed;image=data:image/svg+xml,PHN2ZyB3aWR0aD0iMjUuODgyODEyNSIgaGVpZ2h0PSIxNi4wMzEyNSIgeG1sbnM9Imh0dHA6Ly93d3cudzMub3JnLzIwMDAvc3ZnIiB4bWxuczp4bGluaz0iaHR0cDovL3d3dy53My5vcmcvMTk5OS94bGluayIgb3ZlcmZsb3c9ImhpZGRlbiIgdmlld0JveD0iMS41NTg1OTM3NSA2LjQ1NzAzMTI1IDI1Ljg4MjgxMjUgMTYuMDMxMjUiPjxkZWZzPjxjbGlwUGF0aCBpZD0iY2xpcDAiPjxyZWN0IHg9IjEwMzEiIHk9IjE5MyIgd2lkdGg9IjI5IiBoZWlnaHQ9IjI5Ii8+PC9jbGlwUGF0aD48Y2xpcFBhdGggaWQ9ImNsaXAxIj48cmVjdCB4PSIxMDMyIiB5PSIxOTQiIHdpZHRoPSIyNyIgaGVpZ2h0PSIyNyIvPjwvY2xpcFBhdGg+PGNsaXBQYXRoIGlkPSJjbGlwMiI+PHJlY3QgeD0iMTAzMiIgeT0iMTk0IiB3aWR0aD0iMjciIGhlaWdodD0iMjciLz48L2NsaXBQYXRoPjxjbGlwUGF0aCBpZD0iY2xpcDMiPjxyZWN0IHg9IjEwMzIiIHk9IjE5NCIgd2lkdGg9IjI3IiBoZWlnaHQ9IjI3Ii8+PC9jbGlwUGF0aD48L2RlZnM+PGcgY2xpcC1wYXRoPSJ1cmwoI2NsaXAwKSIgdHJhbnNmb3JtPSJ0cmFuc2xhdGUoLTEwMzEgLTE5MykiPjxnIGNsaXAtcGF0aD0idXJsKCNjbGlwMSkiPjxnIGNsaXAtcGF0aD0idXJsKCNjbGlwMikiPjxnIGNsaXAtcGF0aD0idXJsKCNjbGlwMykiPjxwYXRoIGQ9Ik0xMDQwLjgzIDIwOS44MDZDMTA0Mi4yNCAyMDkuODA2IDEwNDMuMzYgMjEwLjc2MiAxMDQzLjcgMjEyLjA1NkwxMDM2LjA1IDIxMi4wNTZDMTAzNi4zOSAyMTAuNzYyIDEwMzcuNTEgMjA5LjgwNiAxMDM4LjkyIDIwOS44MDZMMTA0MC44MyAyMDkuODA2TTEwNDAuODMgMjA4LjY4MSAxMDM4LjkyIDIwOC42ODFDMTAzNi42NyAyMDguNjgxIDEwMzQuODEgMjEwLjQ4MSAxMDM0LjgxIDIxMi43ODhMMTAzNC44MSAyMTMuMTgxIDEwNDQuODggMjEzLjE4MSAxMDQ0Ljg4IDIxMi43ODhDMTA0NC44OCAyMTAuNTM4IDEwNDMuMDggMjA4LjY4MSAxMDQwLjgzIDIwOC42ODFMMTA0MC44MyAyMDguNjgxWiIgZmlsbD0iIzAwQTRGRiIvPjxwYXRoIGQ9Ik0xMDQ0Ljk0IDIxMC4zNjkgMTA0Ny40MSAyMTAuMzY5QzEwNDguNTkgMjEwLjM2OSAxMDQ5LjU1IDIxMS4zMjUgMTA0OS41NSAyMTIuNTA2TDEwNDkuNTUgMjEyLjg0NCAxMDQ1LjcyIDIxMi44NDQiIHN0cm9rZT0iIzAwQTRGRiIgc3Ryb2tlLXdpZHRoPSIxLjEyNSIgc3Ryb2tlLW1pdGVybGltaXQ9IjEwIiBmaWxsPSJub25lIi8+PHBhdGggZD0iTTEwNTEuMDEgMjAwLjU4MSAxMDUxLjAxIDIwMy45NTYgMTA1MS4wMSAyMDUuNTMxIDEwNTIuNTMgMjA1LjAyNSAxMDU3LjMxIDIwMy4zOTQgMTA1Ny4zMSAyMTEuNTUgMTA1Mi41MyAyMDkuOTE5IDEwNTEuMDEgMjA5LjQxMyAxMDUxLjAxIDIxMC45ODggMTA1MS4wMSAyMTQuMzYzIDEwMzMuNjkgMjE0LjM2MyAxMDMzLjY5IDIwMC41ODEgMTA1MS4wMSAyMDAuNTgxTTEwNTIuMTQgMTk5LjQ1NiAxMDMyLjU2IDE5OS40NTYgMTAzMi41NiAyMTUuNDg4IDEwNTIuMTQgMjE1LjQ4OCAxMDUyLjE0IDIxMC45ODggMTA1OC40NCAyMTMuMTgxIDEwNTguNDQgMjAxLjgxOSAxMDUyLjE5IDIwNC4wMTIgMTA1Mi4xOSAxOTkuNDU2IDEwNTIuMTQgMTk5LjQ1NloiIGZpbGw9IiMwMEE0RkYiLz48cGF0aCBkPSJNMTAzOS44OCAyMDMuMzk0QzEwNDAuNjYgMjAzLjM5NCAxMDQxLjI4IDIwNC4wMTIgMTA0MS4yOCAyMDQuOCAxMDQxLjI4IDIwNS41ODcgMTA0MC42NiAyMDYuMjA2IDEwMzkuODggMjA2LjIwNiAxMDM5LjA5IDIwNi4yMDYgMTAzOC40NyAyMDUuNTg3IDEwMzguNDcgMjA0LjggMTAzOC40NyAyMDQuMDEyIDEwMzkuMDkgMjAzLjM5NCAxMDM5Ljg4IDIwMy4zOTRNMTAzOS44OCAyMDIuMjY5QzEwMzguNDcgMjAyLjI2OSAxMDM3LjM0IDIwMy4zOTQgMTAzNy4zNCAyMDQuOCAxMDM3LjM0IDIwNi4yMDYgMTAzOC40NyAyMDcuMzMxIDEwMzkuODggMjA3LjMzMSAxMDQxLjI4IDIwNy4zMzEgMTA0Mi40MSAyMDYuMjA2IDEwNDIuNDEgMjA0LjggMTA0Mi40MSAyMDMuMzk0IDEwNDEuMjIgMjAyLjI2OSAxMDM5Ljg4IDIwMi4yNjlMMTAzOS44OCAyMDIuMjY5WiIgZmlsbD0iIzAwQTRGRiIvPjxwYXRoIGQ9Ik0xMDQ1Ljk1IDIwNi42NTZDMTA0Ni4yOSAyMDYuNjU2IDEwNDYuNTcgMjA2LjkzOCAxMDQ2LjU3IDIwNy4yNzUgMTA0Ni41NyAyMDcuNjEzIDEwNDYuMjkgMjA3Ljg5NCAxMDQ1Ljk1IDIwNy44OTQgMTA0NS42MSAyMDcuODk0IDEwNDUuMzMgMjA3LjYxMyAxMDQ1LjMzIDIwNy4yNzUgMTA0NS4zMyAyMDYuOTM4IDEwNDUuNTYgMjA2LjY1NiAxMDQ1Ljk1IDIwNi42NTZNMTA0NS45NSAyMDUuNTMxQzEwNDQuOTkgMjA1LjUzMSAxMDQ0LjIxIDIwNi4zMTkgMTA0NC4yMSAyMDcuMjc1IDEwNDQuMjEgMjA4LjIzMSAxMDQ0Ljk5IDIwOS4wMTkgMTA0NS45NSAyMDkuMDE5IDEwNDYuOTEgMjA5LjAxOSAxMDQ3LjY5IDIwOC4yMzEgMTA0Ny42OSAyMDcuMjc1IDEwNDcuNjkgMjA2LjMxOSAxMDQ2LjkxIDIwNS41MzEgMTA0NS45NSAyMDUuNTMxTDEwNDUuOTUgMjA1LjUzMVoiIGZpbGw9IiMwMEE0RkYiLz48L2c+PC9nPjwvZz48L2c+PC9zdmc+;fontStyle=1" parent="-wsc2XBUxjwpWOjfPmOZ-20" vertex="1">
          <mxGeometry x="30" y="17" width="36" height="22.15" as="geometry" />
        </mxCell>
        <mxCell id="-wsc2XBUxjwpWOjfPmOZ-49" value="" style="group;fontStyle=1" parent="1" vertex="1" connectable="0">
          <mxGeometry x="264" y="106" width="93" height="123.00000000000011" as="geometry" />
        </mxCell>
        <mxCell id="-wsc2XBUxjwpWOjfPmOZ-50" value="" style="shape=image;verticalLabelPosition=bottom;labelBackgroundColor=#ffffff;verticalAlign=top;aspect=fixed;imageAspect=0;image=data:image/svg+xml,PHN2ZyB4bWxucz0iaHR0cDovL3d3dy53My5vcmcvMjAwMC9zdmciIHZpZXdCb3g9IjAgMCAzMi44MyAzNi44MyI+PGRlZnM+PHN0eWxlPi5jbHMtMXtmaWxsOiNmZmY7fS5jbHMtMSwuY2xzLTN7c3Ryb2tlOmdyYXk7c3Ryb2tlLW1pdGVybGltaXQ6MTA7c3Ryb2tlLXdpZHRoOjAuODNweDt9LmNscy0ye2ZpbGw6I2RjZGRkZDt9LmNscy0ze2ZpbGw6bm9uZTt9PC9zdHlsZT48L2RlZnM+PHRpdGxlPui1hOa6kCAxNjwvdGl0bGU+PGcgaWQ9IuWbvuWxgl8yIiBkYXRhLW5hbWU9IuWbvuWxgiAyIj48ZyBpZD0i5Zu+5bGCXzEtMiIgZGF0YS1uYW1lPSLlm77lsYIgMSI+PHJlY3QgY2xhc3M9ImNscy0xIiB4PSIwLjQyIiB5PSIwLjQyIiB3aWR0aD0iMzIiIGhlaWdodD0iMzYiLz48cmVjdCBjbGFzcz0iY2xzLTIiIHg9IjAuNDIiIHk9IjI3LjQ3IiB3aWR0aD0iMzIiIGhlaWdodD0iOC42NCIvPjxyZWN0IGNsYXNzPSJjbHMtMyIgeD0iMC40MiIgeT0iMC40MiIgd2lkdGg9IjMyIiBoZWlnaHQ9IjM2Ii8+PC9nPjwvZz48L3N2Zz4=;fontStyle=1" parent="-wsc2XBUxjwpWOjfPmOZ-49" vertex="1">
          <mxGeometry x="9.5" width="72" height="80.73" as="geometry" />
        </mxCell>
        <mxCell id="-wsc2XBUxjwpWOjfPmOZ-51" value="&lt;font color=&quot;#333333&quot;&gt;&lt;span style=&quot;font-size: 16px&quot;&gt;android&lt;/span&gt;&lt;/font&gt;" style="rounded=0;whiteSpace=wrap;html=1;shadow=1;comic=0;strokeColor=#E6E6E6;strokeWidth=2;fillColor=#ffffff;gradientColor=none;fontSize=22;fontColor=#FFFFFF;verticalAlign=bottom;fontStyle=1" parent="-wsc2XBUxjwpWOjfPmOZ-49" vertex="1">
          <mxGeometry y="93.00000000000011" width="93" height="30" as="geometry" />
        </mxCell>
        <mxCell id="-wsc2XBUxjwpWOjfPmOZ-17" value="" style="shape=image;verticalLabelPosition=bottom;verticalAlign=top;imageAspect=0;aspect=fixed;image=data:image/svg+xml,PHN2ZyB0PSIxNTM4NzUzNDY4MjQ1IiBjbGFzcz0iaWNvbiIgc3R5bGU9IiIgdmlld0JveD0iMCAwIDEwMjQgMTAyNCIgdmVyc2lvbj0iMS4xIiB4bWxucz0iaHR0cDovL3d3dy53My5vcmcvMjAwMC9zdmciIHAtaWQ9IjExNDkiIHhtbG5zOnhsaW5rPSJodHRwOi8vd3d3LnczLm9yZy8xOTk5L3hsaW5rIiB3aWR0aD0iODAiIGhlaWdodD0iODAiPjxkZWZzPjxzdHlsZSB0eXBlPSJ0ZXh0L2NzcyIvPjwvZGVmcz48cGF0aCBkPSJNNzU2LjM2MzYzNiAxMDI0IDI2Ny42MzYzNjQgMTAyNGMtMzAuNzk0NDczIDAtNTUuODU0NTQ1LTI1LjA2MDA3My01NS44NTQ1NDUtNTUuODU0NTQ1TDIxMS43ODE4MTggNTUuODU0NTQ1YzAtMzAuNzk0NDczIDI1LjA2MDA3My01NS44NTQ1NDUgNTUuODU0NTQ1LTU1Ljg1NDU0NWw0ODguNzI3MjczIDBjMzAuNzk0NDczIDAgNTUuODU0NTQ1IDI1LjA2MDA3MyA1NS44NTQ1NDUgNTUuODU0NTQ1bDAgOTEyLjI5MDkwOUM4MTIuMjE4MTgyIDk5OC45Mzk5MjcgNzg3LjE1ODEwOSAxMDI0IDc1Ni4zNjM2MzYgMTAyNHpNMjY3LjYzNjM2NCAzNy4yMzYzNjRDMjU3LjM3Nzc0NSAzNy4yMzYzNjQgMjQ5LjAxODE4MiA0NS41NzczMDkgMjQ5LjAxODE4MiA1NS44NTQ1NDVsMCA5MTIuMjkwOTA5YzAgMTAuMjc3MjM2IDguMzU5NTY0IDE4LjYxODE4MiAxOC42MTgxODIgMTguNjE4MTgybDQ4OC43MjcyNzMgMGMxMC4yNTg2MTggMCAxOC42MTgxODItOC4zNDA5NDUgMTguNjE4MTgyLTE4LjYxODE4Mkw3NzQuOTgxODE4IDU1Ljg1NDU0NWMwLTEwLjI3NzIzNi04LjM1OTU2NC0xOC42MTgxODItMTguNjE4MTgyLTE4LjYxODE4MkwyNjcuNjM2MzY0IDM3LjIzNjM2NHoiIHAtaWQ9IjExNTAiIGZpbGw9IiM4YThhOGEiLz48cGF0aCBkPSJNMjM5LjcwOTA5MSA4Ni44OTEwNTVsNTM1LjI3MjcyNyAwIDAgMzcuMjM2MzY0LTUzNS4yNzI3MjcgMCAwLTM3LjIzNjM2NFoiIHAtaWQ9IjExNTEiIGZpbGw9IiM4YThhOGEiLz48cGF0aCBkPSJNMjQ5LjAxODE4MiA4MDYuNzgxNjczbDUzNS4yNzI3MjcgMCAwIDM3LjIzNjM2NC01MzUuMjcyNzI3IDAgMC0zNy4yMzYzNjRaIiBwLWlkPSIxMTUyIiBmaWxsPSIjOGE4YThhIi8+PHBhdGggZD0iTTUxMiA5NjguMzg3NDkxYy0zMC45MjQ4IDAtNTYuMDk2NTgyLTI1LjE3MTc4Mi01Ni4wOTY1ODItNTYuMDk2NTgyczI1LjE3MTc4Mi01Ni4wOTY1ODIgNTYuMDk2NTgyLTU2LjA5NjU4MiA1Ni4wOTY1ODIgMjUuMTcxNzgyIDU2LjA5NjU4MiA1Ni4wOTY1ODJTNTQyLjkyNDggOTY4LjM4NzQ5MSA1MTIgOTY4LjM4NzQ5MXpNNTEyIDg5My40MzA2OTFjLTEwLjQwNzU2NCAwLTE4Ljg2MDIxOCA4LjQ1MjY1NS0xOC44NjAyMTggMTguODYwMjE4czguNDUyNjU1IDE4Ljg2MDIxOCAxOC44NjAyMTggMTguODYwMjE4IDE4Ljg2MDIxOC04LjQ1MjY1NSAxOC44NjAyMTgtMTguODYwMjE4UzUyMi40MDc1NjQgODkzLjQzMDY5MSA1MTIgODkzLjQzMDY5MXoiIHAtaWQ9IjExNTMiIGZpbGw9IiM4YThhOGEiLz48cGF0aCBkPSJNNjI5LjI1NzMwOSAzNjMuMDczMTY0YzQuMjYzNTY0IDAgNy44NTY4NzMgMS4yMjg4IDEwLjc2MTMwOSAzLjcyMzYzNiAyLjkwNDQzNiAyLjQ3NjIxOCA0LjM1NjY1NSA1LjUxMDk4MiA0LjM1NjY1NSA5LjEwNDI5MWwwIDc1LjM2NjRjMCAzLjQyNTc0NS0xLjQ1MjIxOCA2LjM2NzQxOC00LjM1NjY1NSA4Ljg0MzYzNi0yLjkwNDQzNiAyLjQ3NjIxOC02LjQ5Nzc0NSAzLjcyMzYzNi0xMC43NjEzMDkgMy43MjM2MzZsLTQuODU5MzQ1IDBjLTQuMDk2IDAtNy41OTYyMTgtMS4yNDc0MTgtMTAuNTAwNjU1LTMuNzIzNjM2LTIuOTA0NDM2LTIuNDc2MjE4LTQuMzU2NjU1LTUuNDE3ODkxLTQuMzU2NjU1LTguODQzNjM2bDAtNzUuMzY2NGMwLTMuNTkzMzA5IDEuNDUyMjE4LTYuNjI4MDczIDQuMzU2NjU1LTkuMTA0MjkxIDIuOTA0NDM2LTIuNDc2MjE4IDYuNDA0NjU1LTMuNzIzNjM2IDEwLjUwMDY1NS0zLjcyMzYzNkw2MjkuMjU3MzA5IDM2My4wNzMxNjQgNjI5LjI1NzMwOSAzNjMuMDczMTY0IDYyOS4yNTczMDkgMzYzLjA3MzE2NHpNNDA4LjEyOTE2NCAzNjMuMDczMTY0YzQuMDk2IDAgNy41MjE3NDUgMS4yMjg4IDEwLjI1ODYxOCAzLjcyMzYzNiAyLjczNjg3MyAyLjQ3NjIxOCA0LjA5NiA1LjUxMDk4MiA0LjA5NiA5LjEwNDI5MWwwIDc1LjM2NjRjMCAzLjQyNTc0NS0xLjM1OTEyNyA2LjM2NzQxOC00LjA5NiA4Ljg0MzYzNi0yLjczNjg3MyAyLjQ3NjIxOC02LjE0NCAzLjcyMzYzNi0xMC4yNTg2MTggMy43MjM2MzZsLTQuODU5MzQ1IDBjLTQuMjYzNTY0IDAtNy44NTY4NzMtMS4yNDc0MTgtMTAuNzYxMzA5LTMuNzIzNjM2LTIuOTA0NDM2LTIuNDc2MjE4LTQuMzU2NjU1LTUuNDM2NTA5LTQuMzU2NjU1LTguODQzNjM2bDAtNzUuMzY2NGMwLTMuNTkzMzA5IDEuNDUyMjE4LTYuNjI4MDczIDQuMzU2NjU1LTkuMTA0MjkxIDIuOTA0NDM2LTIuNDc2MjE4IDYuNDk3NzQ1LTMuNzIzNjM2IDEwLjc2MTMwOS0zLjcyMzYzNkw0MDguMTI5MTY0IDM2My4wNzMxNjQgNDA4LjEyOTE2NCAzNjMuMDczMTY0IDQwOC4xMjkxNjQgMzYzLjA3MzE2NHpNNTU4LjgwNjEwOSAzMDMuNTg4MDczYzMuMjM5NTY0IDEuMzc3NzQ1IDYuNjI4MDczIDMuMjU4MTgyIDEwLjEyODI5MSA1LjY0MTMwOSAzLjUwMDIxOCAyLjM4MzEyNyA2LjkyNTk2NCA1LjIxMzA5MSAxMC4yNTg2MTggOC40NTI2NTUgMy4zMzI2NTUgMy4yMzk1NjQgNi4xOTk4NTUgNi43OTU2MzYgOC41ODI5ODIgMTAuNjMwOTgyIDIuMzgzMTI3IDMuODUzOTY0IDQuMTg5MDkxIDcuODk0MTA5IDUuMzgwNjU1IDEyLjE3NjI5MWwtMTU1LjAxNDk4MiAwYzIuOTA0NDM2LTkuMDQ4NDM2IDcuNDY1ODkxLTE2LjQ5NTcwOSAxMy43MDI5ODItMjIuMzA0NTgyIDYuMjM3MDkxLTUuODA4ODczIDEyLjYwNDUwOS0xMC40MjYxODIgMTkuMDgzNjM2LTEzLjg1MTkyN2wtMTQuMDkzOTY0LTIwLjUxNzIzNmMtMC4zMzUxMjctMC4zMzUxMjctMC4zOTA5ODItMC45MzA5MDktMC4xMzAzMjctMS43ODczNDUgMC4yNjA2NTUtMC44NTY0MzYgMS4yNDc0MTgtMS43ODczNDUgMi45NDE2NzMtMi44MTEzNDUgMS41NDUzMDktMS4yMTAxODIgMi45MDQ0MzYtMS43NTAxMDkgNC4wOTYtMS42NTcwMTggMS4xOTE1NjQgMC4wOTMwOTEgMi4wNDggMC4yOTc4OTEgMi41NjkzMDkgMC42MzMwMThsMTQuMDkzOTY0IDIwLjc1OTI3M2M1LjEyLTIuMjE1NTY0IDEwLjUwMDY1NS0zLjkyODQzNiAxNi4xNDE5NjQtNS4xMiA1LjY0MTMwOS0xLjE5MTU2NCAxMS40NTAxODItMS43ODczNDUgMTcuNDI2NjE4LTEuNzg3MzQ1IDEyLjMwNjYxOCAwIDIzLjgzMTI3MyAyLjM4MzEyNyAzNC41OTI1ODIgNy4xNjhsMTQuNTk2NjU1LTIxLjAxOTkyN2MwLjMzNTEyNy0wLjMzNTEyNyAwLjk4Njc2NC0wLjUyMTMwOSAxLjkxNzY3My0wLjUyMTMwOSAwLjkzMDkwOSAwIDIuNDM4OTgyIDAuNTIxMzA5IDQuNDg2OTgyIDEuNTQ1MzA5IDEuODgwNDM2IDAuODU2NDM2IDIuOTQxNjczIDEuNjE5NzgyIDMuMjAyMzI3IDIuMzA4NjU1IDAuMjYwNjU1IDAuNjg4ODczIDAuMjA0OCAxLjE5MTU2NC0wLjEzMDMyNyAxLjU0NTMwOUw1NTguODA2MTA5IDMwMy41ODgwNzMgNTU4LjgwNjEwOSAzMDMuNTg4MDczek00ODIuNTY0NjU1IDMyNS42MzJjMi4zMDg2NTUgMCA0LjI2MzU2NC0wLjc2MzM0NSA1LjkwMTk2NC0yLjMwODY1NSAxLjYxOTc4Mi0xLjU0NTMwOSAyLjQzODk4Mi0zLjQyNTc0NSAyLjQzODk4Mi01LjY0MTMwOSAwLTIuMjE1NTY0LTAuODE5Mi00LjA5Ni0yLjQzODk4Mi01LjY0MTMwOS0xLjYxOTc4Mi0xLjU0NTMwOS0zLjU5MzMwOS0yLjMwODY1NS01LjkwMTk2NC0yLjMwODY1NXMtNC4zMTk0MTggMC43NjMzNDUtNi4wMTM2NzMgMi4zMDg2NTVjLTEuNzEyODczIDEuNTQ1MzA5LTIuNTY5MzA5IDMuNDI1NzQ1LTIuNTY5MzA5IDUuNjQxMzA5IDAgMi4yMTU1NjQgMC44NTY0MzYgNC4wOTYgMi41NjkzMDkgNS42NDEzMDlDNDc4LjI2Mzg1NSAzMjQuODY4NjU1IDQ4MC4yNTYgMzI1LjYzMiA0ODIuNTY0NjU1IDMyNS42MzJMNDgyLjU2NDY1NSAzMjUuNjMyIDQ4Mi41NjQ2NTUgMzI1LjYzMnpNNTQ5LjcwMTgxOCAzMjQuNjA4YzIuMzA4NjU1IDAgNC4yNjM1NjQtMC43NjMzNDUgNS45MDE5NjQtMi4zMDg2NTUgMS42MTk3ODItMS41NDUzMDkgMi40Mzg5ODItMy40MjU3NDUgMi40Mzg5ODItNS42NDEzMDkgMC0yLjIxNTU2NC0wLjgxOTItNC4wOTYtMi40Mzg5ODItNS42NDEzMDktMS42MTk3ODItMS41NDUzMDktMy41OTMzMDktMi4zMDg2NTUtNS45MDE5NjQtMi4zMDg2NTUtMi4zMDg2NTUgMC00LjMxOTQxOCAwLjc2MzM0NS02LjAxMzY3MyAyLjMwODY1NS0xLjcxMjg3MyAxLjU0NTMwOS0yLjU2OTMwOSAzLjQyNTc0NS0yLjU2OTMwOSA1LjY0MTMwOSAwIDIuMjE1NTY0IDAuODU2NDM2IDQuMDk2IDIuNTY5MzA5IDUuNjQxMzA5QzU0NS4zODI0IDMyMy44NDQ2NTUgNTQ3LjM5MzE2NCAzMjQuNjA4IDU0OS43MDE4MTggMzI0LjYwOEw1NDkuNzAxODE4IDMyNC42MDggNTQ5LjcwMTgxOCAzMjQuNjA4ek01OTMuMTM4MDM2IDM1Ni42NDk4OTFsMC4yNjA2NTUgMTE1LjA5NzZjMCAzLjc2MDg3My0xLjMyMTg5MSA2LjkyNTk2NC0zLjk2NTY3MyA5LjQ3NjY1NS0yLjY0Mzc4MiAyLjU2OTMwOS01Ljg0NjEwOSAzLjgzNTM0NS05LjYwNjk4MiAzLjgzNTM0NWwtMy44MzUzNDUgMCAwIDM1Ljg5NTg1NWMwIDMuNDI1NzQ1LTEuMzIxODkxIDYuNDA0NjU1LTMuOTY1NjczIDguOTczOTY0LTIuNjQzNzgyIDIuNTY5MzA5LTUuOTM5MiAzLjg1Mzk2NC05Ljg2NzYzNiAzLjg1Mzk2NGwtNy42ODkzMDkgMGMtMy43NjA4NzMgMC02Ljk2MzItMS4yODQ2NTUtOS42MDY5ODItMy44NTM5NjQtMi42NDM3ODItMi41NjkzMDktMy45NjU2NzMtNS41NDgyMTgtMy45NjU2NzMtOC45NzM5NjRsMC0zNS44OTU4NTUtNTAuMjEzMjM2IDAgMCAzNS44OTU4NTVjMCAzLjQyNTc0NS0xLjI4NDY1NSA2LjQwNDY1NS0zLjgzNTM0NSA4Ljk3Mzk2NC0yLjU2OTMwOSAyLjU2OTMwOS01LjgwODg3MyAzLjg1Mzk2NC05LjczNzMwOSAzLjg1Mzk2NGwtNy45NDk5NjQgMGMtMy41OTMzMDkgMC02LjcwMjU0NS0xLjI4NDY1NS05LjM0NjMyNy0zLjg1Mzk2NC0yLjY0Mzc4Mi0yLjU2OTMwOS0zLjk2NTY3My01LjU0ODIxOC0zLjk2NTY3My04Ljk3Mzk2NGwwLTM1Ljg5NTg1NS0zLjA3MiAwYy0zLjc2MDg3MyAwLTYuOTYzMi0xLjI4NDY1NS05LjYwNjk4Mi0zLjgzNTM0NS0yLjY0Mzc4Mi0yLjU2OTMwOS0zLjk2NTY3My01LjcxNTc4Mi0zLjk2NTY3My05LjQ3NjY1NWwwLTExNS4wOTc2TDU5My4xMzgwMzYgMzU2LjY0OTg5MSA1OTMuMTM4MDM2IDM1Ni42NDk4OTEgNTkzLjEzODAzNiAzNTYuNjQ5ODkxek01OTMuMTM4MDM2IDM1Ni42NDk4OTEiIHAtaWQ9IjExNTQiIGZpbGw9IiM4YThhOGEiLz48L3N2Zz4=;fontStyle=1" parent="-wsc2XBUxjwpWOjfPmOZ-49" vertex="1">
          <mxGeometry x="23.5" y="9" width="40" height="40" as="geometry" />
        </mxCell>
        <mxCell id="-wsc2XBUxjwpWOjfPmOZ-52" value="" style="group;fontStyle=1" parent="1" vertex="1" connectable="0">
          <mxGeometry x="377" y="107" width="93" height="123.00000000000011" as="geometry" />
        </mxCell>
        <mxCell id="-wsc2XBUxjwpWOjfPmOZ-53" value="" style="shape=image;verticalLabelPosition=bottom;labelBackgroundColor=#ffffff;verticalAlign=top;aspect=fixed;imageAspect=0;image=data:image/svg+xml,PHN2ZyB4bWxucz0iaHR0cDovL3d3dy53My5vcmcvMjAwMC9zdmciIHZpZXdCb3g9IjAgMCAzMi44MyAzNi44MyI+PGRlZnM+PHN0eWxlPi5jbHMtMXtmaWxsOiNmZmY7fS5jbHMtMSwuY2xzLTN7c3Ryb2tlOmdyYXk7c3Ryb2tlLW1pdGVybGltaXQ6MTA7c3Ryb2tlLXdpZHRoOjAuODNweDt9LmNscy0ye2ZpbGw6I2RjZGRkZDt9LmNscy0ze2ZpbGw6bm9uZTt9PC9zdHlsZT48L2RlZnM+PHRpdGxlPui1hOa6kCAxNjwvdGl0bGU+PGcgaWQ9IuWbvuWxgl8yIiBkYXRhLW5hbWU9IuWbvuWxgiAyIj48ZyBpZD0i5Zu+5bGCXzEtMiIgZGF0YS1uYW1lPSLlm77lsYIgMSI+PHJlY3QgY2xhc3M9ImNscy0xIiB4PSIwLjQyIiB5PSIwLjQyIiB3aWR0aD0iMzIiIGhlaWdodD0iMzYiLz48cmVjdCBjbGFzcz0iY2xzLTIiIHg9IjAuNDIiIHk9IjI3LjQ3IiB3aWR0aD0iMzIiIGhlaWdodD0iOC42NCIvPjxyZWN0IGNsYXNzPSJjbHMtMyIgeD0iMC40MiIgeT0iMC40MiIgd2lkdGg9IjMyIiBoZWlnaHQ9IjM2Ii8+PC9nPjwvZz48L3N2Zz4=;fontStyle=1" parent="-wsc2XBUxjwpWOjfPmOZ-52" vertex="1">
          <mxGeometry x="9.5" width="72" height="80.73" as="geometry" />
        </mxCell>
        <mxCell id="-wsc2XBUxjwpWOjfPmOZ-54" value="&lt;font color=&quot;#333333&quot;&gt;&lt;span style=&quot;font-size: 16px&quot;&gt;IOS&lt;/span&gt;&lt;/font&gt;" style="rounded=0;whiteSpace=wrap;html=1;shadow=1;comic=0;strokeColor=#E6E6E6;strokeWidth=2;fillColor=#ffffff;gradientColor=none;fontSize=22;fontColor=#FFFFFF;verticalAlign=bottom;fontStyle=1" parent="-wsc2XBUxjwpWOjfPmOZ-52" vertex="1">
          <mxGeometry y="93.00000000000011" width="93" height="30" as="geometry" />
        </mxCell>
        <mxCell id="-wsc2XBUxjwpWOjfPmOZ-18" value="" style="shape=image;verticalLabelPosition=bottom;verticalAlign=top;imageAspect=0;aspect=fixed;image=data:image/svg+xml,PHN2ZyB0PSIxNTM4NzUzNTM5MTA3IiBjbGFzcz0iaWNvbiIgc3R5bGU9IiIgdmlld0JveD0iMCAwIDEwMjQgMTAyNCIgdmVyc2lvbj0iMS4xIiB4bWxucz0iaHR0cDovL3d3dy53My5vcmcvMjAwMC9zdmciIHAtaWQ9IjE0NzYiIHhtbG5zOnhsaW5rPSJodHRwOi8vd3d3LnczLm9yZy8xOTk5L3hsaW5rIiB3aWR0aD0iODAiIGhlaWdodD0iODAiPjxkZWZzPjxzdHlsZSB0eXBlPSJ0ZXh0L2NzcyIvPjwvZGVmcz48cGF0aCBkPSJNNTkzLjY3Nzk2NCA0MTguMjM4ODM2YzAgNDAuODQ4MjkxIDM3LjI5MjIxOCA1My4yNjY2MTggMzkuMDYwOTQ1IDUzLjI2NjYxOCAwIDEuNzY4NzI3LTUuMzI0OCAxOS41MzA0NzMtMTkuNTMwNDczIDM3LjI5MjIxOC0xMi40MzY5NDUgMTUuOTkzMDE4LTI0Ljg1NTI3MyAzMS45Njc0MTgtNDQuNDA0MzY0IDMxLjk2NzQxOHMtMjQuODU1MjczLTEwLjY0OTYtNDcuOTQxODE4LTEwLjY0OTZjLTIxLjMxNzgxOCAwLTI4LjQxMTM0NSAxMC42NDk2LTQ2LjE3MzA5MSAxMC42NDk2LTE5LjUzMDQ3MyAwLTMzLjczNjE0NS0xNy43NjE3NDUtNDQuNDA0MzY0LTMzLjczNjE0NS0yNC44NTUyNzMtMzMuNzM2MTQ1LTQyLjYxNzAxOC05NC4xMTQ5MDktMTcuNzYxNzQ1LTEzNC45NjMyIDEyLjQzNjk0NS0xOS41MzA0NzMgMzUuNTIzNDkxLTMzLjczNjE0NSA1OC42MTAwMzYtMzMuNzM2MTQ1IDE3Ljc2MTc0NSAwIDM1LjUyMzQ5MSAxMi40MzY5NDUgNDcuOTQxODE4IDEyLjQzNjk0NSAxMC42NDk2IDAgMzEuOTY3NDE4LTE0LjIwNTY3MyA1NS4wNTM5NjQtMTIuNDM2OTQ1IDguODgwODczIDAgMzUuNTIzNDkxIDMuNTU2MDczIDUxLjQ5Nzg5MSAyNi42NDI2MThDNjIzLjg3NjY1NSAzNjguNTA5NjczIDU5My42Nzc5NjQgMzg0LjUwMjY5MSA1OTMuNjc3OTY0IDQxOC4yMzg4MzZMNTkzLjY3Nzk2NCA0MTguMjM4ODM2ek01MTUuNTM3NDU1IDMzOC4zMjk2Yy0xLjc2ODcyNy0xNS45NzQ0IDUuMzI0OC0zMS45Njc0MTggMTQuMjA1NjczLTQyLjYxNzAxOCAxMC42NDk2LTEwLjY0OTYgMjguNDExMzQ1LTE5LjUzMDQ3MyA0Mi42MTcwMTgtMTkuNTMwNDczIDEuNzY4NzI3IDE1Ljk3NDQtNS4zMjQ4IDMxLjk2NzQxOC0xNC4yMDU2NzMgNDIuNjE3MDE4QzU0Ny41MDQ4NzMgMzI5LjQ0ODcyNyA1MzEuNTExODU1IDMzOC4zMjk2IDUxNS41Mzc0NTUgMzM4LjMyOTZMNTE1LjUzNzQ1NSAzMzguMzI5NnpNNTE1LjUzNzQ1NSAzMzguMzI5NiIgcC1pZD0iMTQ3NyIgZmlsbD0iIzhhOGE4YSIvPjxwYXRoIGQ9Ik03NTYuMzYzNjM2IDEwMjQgMjY3LjYzNjM2NCAxMDI0Yy0zMC43OTQ0NzMgMC01NS44NTQ1NDUtMjUuMDYwMDczLTU1Ljg1NDU0NS01NS44NTQ1NDVMMjExLjc4MTgxOCA1NS44NTQ1NDVjMC0zMC43OTQ0NzMgMjUuMDYwMDczLTU1Ljg1NDU0NSA1NS44NTQ1NDUtNTUuODU0NTQ1bDQ4OC43MjcyNzMgMGMzMC43OTQ0NzMgMCA1NS44NTQ1NDUgMjUuMDYwMDczIDU1Ljg1NDU0NSA1NS44NTQ1NDVsMCA5MTIuMjkwOTA5QzgxMi4yMTgxODIgOTk4LjkzOTkyNyA3ODcuMTU4MTA5IDEwMjQgNzU2LjM2MzYzNiAxMDI0ek0yNjcuNjM2MzY0IDM3LjIzNjM2NEMyNTcuMzc3NzQ1IDM3LjIzNjM2NCAyNDkuMDE4MTgyIDQ1LjU3NzMwOSAyNDkuMDE4MTgyIDU1Ljg1NDU0NWwwIDkxMi4yOTA5MDljMCAxMC4yNzcyMzYgOC4zNTk1NjQgMTguNjE4MTgyIDE4LjYxODE4MiAxOC42MTgxODJsNDg4LjcyNzI3MyAwYzEwLjI1ODYxOCAwIDE4LjYxODE4Mi04LjM0MDk0NSAxOC42MTgxODItMTguNjE4MTgyTDc3NC45ODE4MTggNTUuODU0NTQ1YzAtMTAuMjc3MjM2LTguMzU5NTY0LTE4LjYxODE4Mi0xOC42MTgxODItMTguNjE4MTgyTDI2Ny42MzYzNjQgMzcuMjM2MzY0eiIgcC1pZD0iMTQ3OCIgZmlsbD0iIzhhOGE4YSIvPjxwYXRoIGQ9Ik0yMzkuNzA5MDkxIDg2Ljg5MTA1NWw1MzUuMjcyNzI3IDAgMCAzNy4yMzYzNjQtNTM1LjI3MjcyNyAwIDAtMzcuMjM2MzY0WiIgcC1pZD0iMTQ3OSIgZmlsbD0iIzhhOGE4YSIvPjxwYXRoIGQ9Ik0yNDkuMDE4MTgyIDgwNi43ODE2NzNsNTM1LjI3MjcyNyAwIDAgMzcuMjM2MzY0LTUzNS4yNzI3MjcgMCAwLTM3LjIzNjM2NFoiIHAtaWQ9IjE0ODAiIGZpbGw9IiM4YThhOGEiLz48cGF0aCBkPSJNNTEyIDk2OC4zODc0OTFjLTMwLjkyNDggMC01Ni4wOTY1ODItMjUuMTcxNzgyLTU2LjA5NjU4Mi01Ni4wOTY1ODJzMjUuMTcxNzgyLTU2LjA5NjU4MiA1Ni4wOTY1ODItNTYuMDk2NTgyIDU2LjA5NjU4MiAyNS4xNzE3ODIgNTYuMDk2NTgyIDU2LjA5NjU4MlM1NDIuOTI0OCA5NjguMzg3NDkxIDUxMiA5NjguMzg3NDkxek01MTIgODkzLjQzMDY5MWMtMTAuNDA3NTY0IDAtMTguODYwMjE4IDguNDUyNjU1LTE4Ljg2MDIxOCAxOC44NjAyMThzOC40NTI2NTUgMTguODYwMjE4IDE4Ljg2MDIxOCAxOC44NjAyMTggMTguODYwMjE4LTguNDUyNjU1IDE4Ljg2MDIxOC0xOC44NjAyMThTNTIyLjQwNzU2NCA4OTMuNDMwNjkxIDUxMiA4OTMuNDMwNjkxeiIgcC1pZD0iMTQ4MSIgZmlsbD0iIzhhOGE4YSIvPjwvc3ZnPg==;fontStyle=1" parent="-wsc2XBUxjwpWOjfPmOZ-52" vertex="1">
          <mxGeometry x="25.5" y="7" width="40" height="40" as="geometry" />
        </mxCell>
        <mxCell id="-wsc2XBUxjwpWOjfPmOZ-55" value="" style="group;fontStyle=1" parent="1" vertex="1" connectable="0">
          <mxGeometry x="263" y="275" width="93" height="123.00000000000011" as="geometry" />
        </mxCell>
        <mxCell id="-wsc2XBUxjwpWOjfPmOZ-56" value="" style="shape=image;verticalLabelPosition=bottom;labelBackgroundColor=#ffffff;verticalAlign=top;aspect=fixed;imageAspect=0;image=data:image/svg+xml,PHN2ZyB4bWxucz0iaHR0cDovL3d3dy53My5vcmcvMjAwMC9zdmciIHZpZXdCb3g9IjAgMCAzMi44MyAzNi44MyI+PGRlZnM+PHN0eWxlPi5jbHMtMXtmaWxsOiNmZmY7fS5jbHMtMSwuY2xzLTN7c3Ryb2tlOmdyYXk7c3Ryb2tlLW1pdGVybGltaXQ6MTA7c3Ryb2tlLXdpZHRoOjAuODNweDt9LmNscy0ye2ZpbGw6I2RjZGRkZDt9LmNscy0ze2ZpbGw6bm9uZTt9PC9zdHlsZT48L2RlZnM+PHRpdGxlPui1hOa6kCAxNjwvdGl0bGU+PGcgaWQ9IuWbvuWxgl8yIiBkYXRhLW5hbWU9IuWbvuWxgiAyIj48ZyBpZD0i5Zu+5bGCXzEtMiIgZGF0YS1uYW1lPSLlm77lsYIgMSI+PHJlY3QgY2xhc3M9ImNscy0xIiB4PSIwLjQyIiB5PSIwLjQyIiB3aWR0aD0iMzIiIGhlaWdodD0iMzYiLz48cmVjdCBjbGFzcz0iY2xzLTIiIHg9IjAuNDIiIHk9IjI3LjQ3IiB3aWR0aD0iMzIiIGhlaWdodD0iOC42NCIvPjxyZWN0IGNsYXNzPSJjbHMtMyIgeD0iMC40MiIgeT0iMC40MiIgd2lkdGg9IjMyIiBoZWlnaHQ9IjM2Ii8+PC9nPjwvZz48L3N2Zz4=;fontStyle=1" parent="-wsc2XBUxjwpWOjfPmOZ-55" vertex="1">
          <mxGeometry x="9.5" width="72" height="80.73" as="geometry" />
        </mxCell>
        <mxCell id="-wsc2XBUxjwpWOjfPmOZ-57" value="&lt;font color=&quot;#333333&quot;&gt;&lt;span style=&quot;font-size: 16px&quot;&gt;PC&lt;/span&gt;&lt;/font&gt;" style="rounded=0;whiteSpace=wrap;html=1;shadow=1;comic=0;strokeColor=#E6E6E6;strokeWidth=2;fillColor=#ffffff;gradientColor=none;fontSize=22;fontColor=#FFFFFF;verticalAlign=bottom;fontStyle=1" parent="-wsc2XBUxjwpWOjfPmOZ-55" vertex="1">
          <mxGeometry y="93.00000000000011" width="93" height="30" as="geometry" />
        </mxCell>
        <mxCell id="-wsc2XBUxjwpWOjfPmOZ-19" value="" style="shadow=0;dashed=0;html=1;strokeColor=none;labelPosition=center;verticalLabelPosition=bottom;verticalAlign=top;align=center;shape=mxgraph.azure.laptop;fillColor=#7D7D7D;fontSize=16;aspect=fixed;fontStyle=1" parent="-wsc2XBUxjwpWOjfPmOZ-55" vertex="1">
          <mxGeometry x="25.5" y="20" width="40" height="24.1" as="geometry" />
        </mxCell>
        <mxCell id="-wsc2XBUxjwpWOjfPmOZ-59" value="" style="group;fontStyle=1" parent="1" vertex="1" connectable="0">
          <mxGeometry x="376" y="275" width="93" height="123.00000000000011" as="geometry" />
        </mxCell>
        <mxCell id="-wsc2XBUxjwpWOjfPmOZ-60" value="" style="shape=image;verticalLabelPosition=bottom;labelBackgroundColor=#ffffff;verticalAlign=top;aspect=fixed;imageAspect=0;image=data:image/svg+xml,PHN2ZyB4bWxucz0iaHR0cDovL3d3dy53My5vcmcvMjAwMC9zdmciIHZpZXdCb3g9IjAgMCAzMi44MyAzNi44MyI+PGRlZnM+PHN0eWxlPi5jbHMtMXtmaWxsOiNmZmY7fS5jbHMtMSwuY2xzLTN7c3Ryb2tlOmdyYXk7c3Ryb2tlLW1pdGVybGltaXQ6MTA7c3Ryb2tlLXdpZHRoOjAuODNweDt9LmNscy0ye2ZpbGw6I2RjZGRkZDt9LmNscy0ze2ZpbGw6bm9uZTt9PC9zdHlsZT48L2RlZnM+PHRpdGxlPui1hOa6kCAxNjwvdGl0bGU+PGcgaWQ9IuWbvuWxgl8yIiBkYXRhLW5hbWU9IuWbvuWxgiAyIj48ZyBpZD0i5Zu+5bGCXzEtMiIgZGF0YS1uYW1lPSLlm77lsYIgMSI+PHJlY3QgY2xhc3M9ImNscy0xIiB4PSIwLjQyIiB5PSIwLjQyIiB3aWR0aD0iMzIiIGhlaWdodD0iMzYiLz48cmVjdCBjbGFzcz0iY2xzLTIiIHg9IjAuNDIiIHk9IjI3LjQ3IiB3aWR0aD0iMzIiIGhlaWdodD0iOC42NCIvPjxyZWN0IGNsYXNzPSJjbHMtMyIgeD0iMC40MiIgeT0iMC40MiIgd2lkdGg9IjMyIiBoZWlnaHQ9IjM2Ii8+PC9nPjwvZz48L3N2Zz4=;fontStyle=1" parent="-wsc2XBUxjwpWOjfPmOZ-59" vertex="1">
          <mxGeometry x="9.5" width="72" height="80.73" as="geometry" />
        </mxCell>
        <mxCell id="-wsc2XBUxjwpWOjfPmOZ-61" value="&lt;font color=&quot;#333333&quot;&gt;&lt;span style=&quot;font-size: 16px&quot;&gt;mac&lt;/span&gt;&lt;/font&gt;" style="rounded=0;whiteSpace=wrap;html=1;shadow=1;comic=0;strokeColor=#E6E6E6;strokeWidth=2;fillColor=#ffffff;gradientColor=none;fontSize=22;fontColor=#FFFFFF;verticalAlign=bottom;fontStyle=1" parent="-wsc2XBUxjwpWOjfPmOZ-59" vertex="1">
          <mxGeometry y="93.00000000000011" width="93" height="30" as="geometry" />
        </mxCell>
        <mxCell id="-wsc2XBUxjwpWOjfPmOZ-44" value="" style="shape=image;verticalLabelPosition=bottom;verticalAlign=top;imageAspect=0;aspect=fixed;image=data:image/svg+xml,PHN2ZyB4bWxucz0iaHR0cDovL3d3dy53My5vcmcvMjAwMC9zdmciIHhtbG5zOnhsaW5rPSJodHRwOi8vd3d3LnczLm9yZy8xOTk5L3hsaW5rIiB0PSIxNjI2ODM0NDQ1ODIxIiBjbGFzcz0iaWNvbiIgdmlld0JveD0iMCAxMDguODAwMDAzMDUxNzU3ODEgMTAyNCA4MDYuNDAwMDI0NDE0MDYyNSIgdmVyc2lvbj0iMS4xIiBwLWlkPSIxNzQ2OSIgd2lkdGg9IjEwMjQiIGhlaWdodD0iODA2LjQwMDAyNDQxNDA2MjUiPjxkZWZzPjxzdHlsZSB0eXBlPSJ0ZXh0L2NzcyIvPjwvZGVmcz48cGF0aCBkPSJNOTYwIDEwOC44YzM1LjIgMCA2NCAyOC44IDY0IDY0djUxOC40YzAgMzUuMi0yOC44IDY0LTY0IDY0SDY0Ni40bDU3LjYgMTE1LjJjNi40IDE2IDAgMzUuMi0xMi44IDQxLjYtMy4yIDMuMi05LjYgMy4yLTEyLjggMy4ySDM0OC44Yy0xOS4yIDAtMzItMTIuOC0zMi0zMiAwLTYuNCAwLTkuNiAzLjItMTIuOGw1Ny42LTExNS4ySDY0Yy0zNS4yIDAtNjQtMjguOC02NC02NFYxNzIuOGMwLTM1LjIgMjguOC02NCA2NC02NGg4OTZ6TTU5OC40IDI5NC40Yy0zNS4yLTMuMi02Ny4yIDE5LjItODYuNCAxOS4yLTE2IDAtNDEuNi0xOS4yLTcwLjQtMTkuMi0zNS4yIDAtNzAuNCAyMi40LTg5LjYgNTQuNC0zOC40IDY0LTkuNiAxNjMuMiAyNS42IDIxNy42bDYuNCA5LjZjMTYgMjIuNCAzNS4yIDQ4IDYwLjggNDQuOCAyOC44IDAgMzguNC0xOS4yIDcwLjQtMTkuMiAzMiAwIDQxLjYgMTkuMiA3MC40IDE2IDI4LjggMCA0OC0yNS42IDY3LjItNTQuNHMyOC44LTYwLjggMjguOC02MC44aC0zLjJDNjY1LjYgNDk2IDYyNCA0NzMuNiA2MjQgNDE2YzAtNTQuNCA0NC44LTgwIDQ4LTgzLjItMTkuMi0zMi01Ny42LTM4LjQtNzMuNi0zOC40eiBtMC0xMDUuNmMtMjIuNCAwLTQ4IDE2LTY0IDMyLTEyLjggMTYtMjUuNiA0MS42LTIyLjQgNjcuMiAyNS42IDAgNDgtMTIuOCA2NC0zMiAxMi44LTE2IDI1LjYtNDEuNiAyMi40LTY3LjJ6IiBmaWxsPSIjNTE1MTUxIiBwLWlkPSIxNzQ3MCIvPjwvc3ZnPg==;fontStyle=1" parent="-wsc2XBUxjwpWOjfPmOZ-59" vertex="1">
          <mxGeometry x="25.5" y="17" width="40" height="31.54" as="geometry" />
        </mxCell>
        <mxCell id="-wsc2XBUxjwpWOjfPmOZ-62" value="" style="group;fontStyle=1" parent="1" vertex="1" connectable="0">
          <mxGeometry x="264" y="442" width="93" height="123.00000000000011" as="geometry" />
        </mxCell>
        <mxCell id="-wsc2XBUxjwpWOjfPmOZ-63" value="" style="shape=image;verticalLabelPosition=bottom;labelBackgroundColor=#ffffff;verticalAlign=top;aspect=fixed;imageAspect=0;image=data:image/svg+xml,PHN2ZyB4bWxucz0iaHR0cDovL3d3dy53My5vcmcvMjAwMC9zdmciIHZpZXdCb3g9IjAgMCAzMi44MyAzNi44MyI+PGRlZnM+PHN0eWxlPi5jbHMtMXtmaWxsOiNmZmY7fS5jbHMtMSwuY2xzLTN7c3Ryb2tlOmdyYXk7c3Ryb2tlLW1pdGVybGltaXQ6MTA7c3Ryb2tlLXdpZHRoOjAuODNweDt9LmNscy0ye2ZpbGw6I2RjZGRkZDt9LmNscy0ze2ZpbGw6bm9uZTt9PC9zdHlsZT48L2RlZnM+PHRpdGxlPui1hOa6kCAxNjwvdGl0bGU+PGcgaWQ9IuWbvuWxgl8yIiBkYXRhLW5hbWU9IuWbvuWxgiAyIj48ZyBpZD0i5Zu+5bGCXzEtMiIgZGF0YS1uYW1lPSLlm77lsYIgMSI+PHJlY3QgY2xhc3M9ImNscy0xIiB4PSIwLjQyIiB5PSIwLjQyIiB3aWR0aD0iMzIiIGhlaWdodD0iMzYiLz48cmVjdCBjbGFzcz0iY2xzLTIiIHg9IjAuNDIiIHk9IjI3LjQ3IiB3aWR0aD0iMzIiIGhlaWdodD0iOC42NCIvPjxyZWN0IGNsYXNzPSJjbHMtMyIgeD0iMC40MiIgeT0iMC40MiIgd2lkdGg9IjMyIiBoZWlnaHQ9IjM2Ii8+PC9nPjwvZz48L3N2Zz4=;fontStyle=1" parent="-wsc2XBUxjwpWOjfPmOZ-62" vertex="1">
          <mxGeometry x="9.5" width="72" height="80.73" as="geometry" />
        </mxCell>
        <mxCell id="-wsc2XBUxjwpWOjfPmOZ-64" value="&lt;font color=&quot;#333333&quot;&gt;&lt;span style=&quot;font-size: 16px&quot;&gt;浏览器&lt;/span&gt;&lt;/font&gt;" style="rounded=0;whiteSpace=wrap;html=1;shadow=1;comic=0;strokeColor=#E6E6E6;strokeWidth=2;fillColor=#ffffff;gradientColor=none;fontSize=22;fontColor=#FFFFFF;verticalAlign=bottom;fontStyle=1" parent="-wsc2XBUxjwpWOjfPmOZ-62" vertex="1">
          <mxGeometry y="93.00000000000011" width="93" height="30" as="geometry" />
        </mxCell>
        <mxCell id="-wsc2XBUxjwpWOjfPmOZ-45" value="" style="shape=image;verticalLabelPosition=bottom;verticalAlign=top;imageAspect=0;aspect=fixed;image=data:image/svg+xml,PHN2ZyB4bWxucz0iaHR0cDovL3d3dy53My5vcmcvMjAwMC9zdmciIHhtbG5zOnhsaW5rPSJodHRwOi8vd3d3LnczLm9yZy8xOTk5L3hsaW5rIiB0PSIxNjI2ODM0NDc3NjQ0IiBjbGFzcz0iaWNvbiIgdmlld0JveD0iNDIuNjY2OTkyMTg3NSA0OS4wNjcwNDMzMDQ0NDMzNiA5MzguNjY2MDE1NjI1IDkyMy43MzI5NzExOTE0MDYyIiB2ZXJzaW9uPSIxLjEiIHAtaWQ9IjE4Njc2IiB3aWR0aD0iOTM4LjY2NjAxNTYyNSIgaGVpZ2h0PSI5MjMuNzMyOTcxMTkxNDA2MiI+PGRlZnM+PHN0eWxlIHR5cGU9InRleHQvY3NzIi8+PC9kZWZzPjxwYXRoIGQ9Ik05ODEuMzMzIDUzMy4zMzNjMCAxNy4wNjcgMCAzNi4yNjctMi4xMzMgNTMuMzM0SDM3My4zMzNjMCAxMDQuNTMzIDkxLjczNCAxODEuMzMzIDE5MiAxODEuMzMzIDY4LjI2NyAwIDEzNC40LTM0LjEzMyAxNjguNTM0LTkzLjg2N2gyMjEuODY2Yy01OS43MzMgMTY4LjUzNC0yMTcuNiAyODEuNi0zOTYuOCAyODEuNi02NCAwLTEyOC0xNC45MzMtMTg1LjYtNDQuOEMzMTMuNiA5NDAuOCAyMzIuNTMzIDk3Mi44IDE2Ni40IDk3Mi44Yy04OS42IDAtMTIzLjczMy01My4zMzMtMTIzLjczMy0xMzguNjY3IDAtNDkuMDY2IDEwLjY2Ni05NiAyNS42LTE0Mi45MzMgNi40LTI5Ljg2NyA0Mi42NjYtOTEuNzMzIDU3LjYtMTIxLjYgNjQtMTE1LjIgMTQ3LjItMjMwLjQgMjQ5LjYtMzE3Ljg2Ny03OC45MzQgMzQuMTM0LTE2OC41MzQgMTIxLjYtMjI0IDE4NS42IDQyLjY2Ni0xODkuODY2IDIxMy4zMzMtMzI2LjQgNDA3LjQ2Ni0zMjYuNGgyNS42YzY0LTI5Ljg2NiAxNTUuNzM0LTYxLjg2NiAyMjguMjY3LTYxLjg2NiA4My4yIDAgMTU3Ljg2NyAzMiAxNTcuODY3IDEyOCAwIDQ5LjA2Ni0xOS4yIDEwNC41MzMtNDAuNTM0IDE1MS40NjYgMzQuMTM0IDYxLjg2NyA1MS4yIDEzNC40IDUxLjIgMjA0Ljh6TTk0NS4wNjcgMTk4LjRjMC01OS43MzMtNDIuNjY3LTkzLjg2Ny05OC4xMzQtOTMuODY3LTQ0LjggMC05My44NjYgMTcuMDY3LTEzNC40IDM2LjI2N0M4MDAgMTc0LjkzMyA4NzAuNCAyMzQuNjY3IDkxNy4zMzMgMzExLjQ2N2MxNC45MzQtMzQuMTM0IDI3LjczNC03Ni44IDI3LjczNC0xMTMuMDY3ek0xMDguOCA4NDQuOGMwIDYxLjg2NyAzNi4yNjcgOTMuODY3IDk2IDkzLjg2NyA0Ni45MzMgMCA5OC4xMzMtMTkuMiAxMzguNjY3LTQ0LjhDMjU2IDg0Mi42NjcgMTkyIDc2My43MzMgMTYwIDY2OS44NjdjLTIzLjQ2NyA1MS4yLTUxLjIgMTE5LjQ2Ni01MS4yIDE3NC45MzN6IG0yNjQuNTMzLTM3My4zMzNoMzc5LjczNGMtMi4xMzQtMTAwLjI2Ny05My44NjctMTcyLjgtMTg5Ljg2Ny0xNzIuOC05OC4xMzMgMC0xODcuNzMzIDcyLjUzMy0xODkuODY3IDE3Mi44eiIgZmlsbD0iIzUxNTE1MSIgcC1pZD0iMTg2NzciLz48L3N2Zz4=;fontStyle=1" parent="-wsc2XBUxjwpWOjfPmOZ-62" vertex="1">
          <mxGeometry x="23.5" y="9" width="40" height="39.38" as="geometry" />
        </mxCell>
        <mxCell id="-wsc2XBUxjwpWOjfPmOZ-66" value="&lt;h4&gt;&lt;font color=&quot;#ffffff&quot;&gt;&lt;span style=&quot;font-size: 20px&quot;&gt;老师端&lt;/span&gt;&lt;/font&gt;&lt;/h4&gt;" style="rounded=0;whiteSpace=wrap;html=1;shadow=0;dashed=1;comic=0;strokeColor=none;gradientColor=none;fontSize=22;fillColor=#333333;aspect=fixed;verticalAlign=middle;fontStyle=1" parent="1" vertex="1">
          <mxGeometry x="243" y="60" width="103" height="35" as="geometry" />
        </mxCell>
        <mxCell id="-wsc2XBUxjwpWOjfPmOZ-68" value="" style="group;fontStyle=1" parent="1" vertex="1" connectable="0">
          <mxGeometry x="376" y="442" width="93" height="123.00000000000011" as="geometry" />
        </mxCell>
        <mxCell id="-wsc2XBUxjwpWOjfPmOZ-69" value="" style="shape=image;verticalLabelPosition=bottom;labelBackgroundColor=#ffffff;verticalAlign=top;aspect=fixed;imageAspect=0;image=data:image/svg+xml,PHN2ZyB4bWxucz0iaHR0cDovL3d3dy53My5vcmcvMjAwMC9zdmciIHZpZXdCb3g9IjAgMCAzMi44MyAzNi44MyI+PGRlZnM+PHN0eWxlPi5jbHMtMXtmaWxsOiNmZmY7fS5jbHMtMSwuY2xzLTN7c3Ryb2tlOmdyYXk7c3Ryb2tlLW1pdGVybGltaXQ6MTA7c3Ryb2tlLXdpZHRoOjAuODNweDt9LmNscy0ye2ZpbGw6I2RjZGRkZDt9LmNscy0ze2ZpbGw6bm9uZTt9PC9zdHlsZT48L2RlZnM+PHRpdGxlPui1hOa6kCAxNjwvdGl0bGU+PGcgaWQ9IuWbvuWxgl8yIiBkYXRhLW5hbWU9IuWbvuWxgiAyIj48ZyBpZD0i5Zu+5bGCXzEtMiIgZGF0YS1uYW1lPSLlm77lsYIgMSI+PHJlY3QgY2xhc3M9ImNscy0xIiB4PSIwLjQyIiB5PSIwLjQyIiB3aWR0aD0iMzIiIGhlaWdodD0iMzYiLz48cmVjdCBjbGFzcz0iY2xzLTIiIHg9IjAuNDIiIHk9IjI3LjQ3IiB3aWR0aD0iMzIiIGhlaWdodD0iOC42NCIvPjxyZWN0IGNsYXNzPSJjbHMtMyIgeD0iMC40MiIgeT0iMC40MiIgd2lkdGg9IjMyIiBoZWlnaHQ9IjM2Ii8+PC9nPjwvZz48L3N2Zz4=;fontStyle=1" parent="-wsc2XBUxjwpWOjfPmOZ-68" vertex="1">
          <mxGeometry x="9.5" width="72" height="80.73" as="geometry" />
        </mxCell>
        <mxCell id="-wsc2XBUxjwpWOjfPmOZ-70" value="&lt;font color=&quot;#333333&quot;&gt;&lt;span style=&quot;font-size: 16px&quot;&gt;微信小程序&lt;/span&gt;&lt;/font&gt;" style="rounded=0;whiteSpace=wrap;html=1;shadow=1;comic=0;strokeColor=#E6E6E6;strokeWidth=2;fillColor=#ffffff;gradientColor=none;fontSize=22;fontColor=#FFFFFF;verticalAlign=bottom;fontStyle=1" parent="-wsc2XBUxjwpWOjfPmOZ-68" vertex="1">
          <mxGeometry y="93.00000000000011" width="93" height="30" as="geometry" />
        </mxCell>
        <mxCell id="-wsc2XBUxjwpWOjfPmOZ-67" value="" style="shape=image;verticalLabelPosition=bottom;verticalAlign=top;imageAspect=0;aspect=fixed;image=data:image/svg+xml,PHN2ZyB4bWxucz0iaHR0cDovL3d3dy53My5vcmcvMjAwMC9zdmciIHhtbG5zOnhsaW5rPSJodHRwOi8vd3d3LnczLm9yZy8xOTk5L3hsaW5rIiB0PSIxNjI2ODM0ODk5MjE5IiBjbGFzcz0iaWNvbiIgdmlld0JveD0iMCAwIDEwMjQgMTAyNCIgdmVyc2lvbj0iMS4xIiBwLWlkPSIyMDM2NiIgd2lkdGg9IjEwMjQiIGhlaWdodD0iMTAyNCI+PGRlZnM+PHN0eWxlIHR5cGU9InRleHQvY3NzIi8+PC9kZWZzPjxwYXRoIGQ9Ik01MTIgMTAyNGE1MTIgNTEyIDAgMSAxIDUxMi01MTIgNTEyLjUzNzgxNSA1MTIuNTM3ODE1IDAgMCAxLTUxMiA1MTJ6IG0wLTk0NS40Nzg5OTJhNDMzLjQ3ODk5MiA0MzMuNDc4OTkyIDAgMSAwIDQzMy40Nzg5OTIgNDMzLjQ3ODk5MiA0MzQuMjg1NzE0IDQzNC4yODU3MTQgMCAwIDAtNDMzLjQ3ODk5Mi00MzMuNDc4OTkyek0zODkuOTE1OTY2IDc3My4zNzgxNTFjLTg3LjEyNjA1IDAtMTU3LjU3OTgzMi02Ni4xNTEyNjEtMTU3LjU3OTgzMi0xNDcuMzYxMzQ0YTE0Mi43MzYxMzQgMTQyLjczNjEzNCAwIDAgMSAyMC40MzY5NzUtNzIuNjA1MDQyIDE1NC45OTgzMTkgMTU0Ljk5ODMxOSAwIDAgMSA4OS44MTUxMjYtNjcuNzY0NzA2IDg2LjkxMDkyNCA4Ni45MTA5MjQgMCAwIDEgMjYuODkwNzU3LTQuMzAyNTIxIDM5Ljc5ODMxOSAzOS43OTgzMTkgMCAwIDEgMCA3OS41OTY2MzhoLTIuNjg5MDc2YTc3Ljc2ODA2NyA3Ny43NjgwNjcgMCAwIDAtNDUuNzE0Mjg2IDMyLjgwNjcyMyA1OC4wODQwMzQgNTguMDg0MDM0IDAgMCAwLTguNjA1MDQyIDMxLjE5MzI3N2MwIDM3LjEwOTI0NCAzNC40MjAxNjggNjcuMjI2ODkxIDc3LjQ0NTM3OCA2Ny4yMjY4OTFhODUuMTg5OTE2IDg1LjE4OTkxNiAwIDAgMCA0Mi40ODczOTUtMTEuMjk0MTE3IDY0LjUzNzgxNSA2NC41Mzc4MTUgMCAwIDAgMzQuOTU3OTg0LTU1LjkzMjc3NFYzOTQuMjE4NDg3YzAtNTEuNjMwMjUyIDI3Ljk2NjM4Ny05OC40MjAxNjggNzUuMjk0MTE3LTEyNS4zMTA5MjRhMTY1LjcwMDg0IDE2NS43MDA4NCAwIDAgMSA4MS43NDc4OTktMjEuNTEyNjA1Yzg3LjEyNjA1IDAgMTU3LjU3OTgzMiA2Ni4xNTEyNjEgMTU3LjU3OTgzMiAxNDcuMzYxMzQ1YTE0Mi43MzYxMzQgMTQyLjczNjEzNCAwIDAgMS0yMC40MzY5NzUgNzIuNjA1MDQyIDE1NC45OTgzMTkgMTU0Ljk5ODMxOSAwIDAgMS04OS44MTUxMjYgNjcuNzY0NzA1IDkxLjkxMjYwNSA5MS45MTI2MDUgMCAwIDEtMjYuODkwNzU2IDQuMzAyNTIxIDM5Ljc5ODMxOSAzOS43OTgzMTkgMCAwIDEgMC03OS41OTY2MzhoMi42ODkwNzZjMjAuNDM2OTc1LTYuNDUzNzgyIDM3LjEwOTI0NC0xNy43NDc4OTkgNDYuMjUyMTAxLTMzLjM0NDUzOGE1OC4wODQwMzQgNTguMDg0MDM0IDAgMCAwIDguNjA1MDQyLTMxLjE5MzI3N2MwLTM3LjEwOTI0NC0zNC45NTc5ODMtNjcuMjI2ODkxLTc3LjQ0NTM3OS02Ny4yMjY4OTFhODUuMTg5OTE2IDg1LjE4OTkxNiAwIDAgMC00Mi40ODczOTQgMTEuMjk0MTE4IDY0LjUzNzgxNSA2NC41Mzc4MTUgMCAwIDAtMzQuOTU3OTg0IDU1LjkzMjc3M3YyMzEuMjYwNTA0YzAgNTEuNjMwMjUyLTI3Ljk2NjM4NyA5OC40MjAxNjgtNzUuMjk0MTE3IDEyNS4zMTA5MjRhMTcwLjQ4NzM5NSAxNzAuNDg3Mzk1IDAgMCAxLTgyLjI4NTcxNSAyMS41MTI2MDV6IiBwLWlkPSIyMDM2NyIgZmlsbD0iIzUxNTE1MSIvPjwvc3ZnPg==;fontStyle=1" parent="-wsc2XBUxjwpWOjfPmOZ-68" vertex="1">
          <mxGeometry x="24.5" y="9" width="40" height="40" as="geometry" />
        </mxCell>
        <mxCell id="-wsc2XBUxjwpWOjfPmOZ-71" value="" style="group;fontStyle=1" parent="1" vertex="1" connectable="0">
          <mxGeometry x="702" y="52" width="92" height="112" as="geometry" />
        </mxCell>
        <mxCell id="-wsc2XBUxjwpWOjfPmOZ-72" value="&lt;font color=&quot;#333333&quot;&gt;&lt;span style=&quot;font-size: 16px&quot;&gt;&lt;span&gt;负载均衡&lt;/span&gt;&lt;/span&gt;&lt;/font&gt;" style="rounded=0;whiteSpace=wrap;html=1;shadow=1;comic=0;strokeColor=#E6E6E6;strokeWidth=2;fillColor=#ffffff;gradientColor=none;fontSize=22;fontColor=#FFFFFF;verticalAlign=bottom;fontStyle=1" parent="-wsc2XBUxjwpWOjfPmOZ-71" vertex="1">
          <mxGeometry y="82" width="92" height="30" as="geometry" />
        </mxCell>
        <mxCell id="-wsc2XBUxjwpWOjfPmOZ-73" value="" style="shape=image;verticalLabelPosition=bottom;labelBackgroundColor=#ffffff;verticalAlign=top;aspect=fixed;imageAspect=0;image=data:image/svg+xml,PHN2ZyB4bWxucz0iaHR0cDovL3d3dy53My5vcmcvMjAwMC9zdmciIHZpZXdCb3g9IjAgMCA0MC43MSAzNi44NCI+PGRlZnM+PHN0eWxlPi5jbHMtMXtmaWxsOiNmZmY7c3Ryb2tlOiMyMzE4MTU7c3Ryb2tlLXdpZHRoOjAuNzhweDt9LmNscy0xLC5jbHMtNHtzdHJva2UtbWl0ZXJsaW1pdDoxMDt9LmNscy0ye2ZpbGw6I2VmZWZlZjt9LmNscy0ze2ZpbGw6I2RjZGRkZDt9LmNscy00e2ZpbGw6bm9uZTtzdHJva2U6Z3JheTtzdHJva2Utd2lkdGg6MC42OHB4O308L3N0eWxlPjwvZGVmcz48dGl0bGU+6LWE5rqQIDE4PC90aXRsZT48ZyBpZD0i5Zu+5bGCXzIiIGRhdGEtbmFtZT0i5Zu+5bGCIDIiPjxnIGlkPSLlm77lsYJfMS0yIiBkYXRhLW5hbWU9IuWbvuWxgiAxIj48cG9seWdvbiBjbGFzcz0iY2xzLTEiIHBvaW50cz0iNDAuMzEgMTIuODYgMjAuMzYgMC40NiAwLjQgMTIuODYgMC4zOSAyNC4wNSAyMC4zNCAzNi40NiAyMC4zNyAzNi40NiA0MC4zMyAyNC4wNSA0MC4zMSAxMi44NiIvPjxwb2x5Z29uIGNsYXNzPSJjbHMtMiIgcG9pbnRzPSIyMC40IDM2LjQzIDAuNDUgMjQuMDIgMC40NiAxMi44NCAyMC40MiAyNS4yNCAyMC40IDM2LjQzIi8+PHBvbHlnb24gY2xhc3M9ImNscy0zIiBwb2ludHM9IjIwLjQzIDM2LjQzIDQwLjM4IDI0LjAyIDQwLjM3IDEyLjg0IDIwLjQyIDI1LjI0IDIwLjQzIDM2LjQzIi8+PHBvbHlnb24gY2xhc3M9ImNscy00IiBwb2ludHM9IjQwLjMxIDEyLjg2IDIwLjM2IDAuNDYgMC40IDEyLjg2IDAuMzkgMjQuMDUgMjAuMzQgMzYuNDYgMjAuMzcgMzYuNDYgNDAuMzMgMjQuMDUgNDAuMzEgMTIuODYiLz48L2c+PC9nPjwvc3ZnPg==;fontStyle=1" parent="-wsc2XBUxjwpWOjfPmOZ-71" vertex="1">
          <mxGeometry x="1.0000000000001137" width="90" height="81.22" as="geometry" />
        </mxCell>
        <mxCell id="-wsc2XBUxjwpWOjfPmOZ-74" value="" style="shape=image;verticalLabelPosition=bottom;verticalAlign=top;imageAspect=0;aspect=fixed;image=data:image/svg+xml,PHN2ZyB3aWR0aD0iMjUuNzYxNzE4NzUiIGhlaWdodD0iMjUuODc1IiB4bWxucz0iaHR0cDovL3d3dy53My5vcmcvMjAwMC9zdmciIHhtbG5zOnhsaW5rPSJodHRwOi8vd3d3LnczLm9yZy8xOTk5L3hsaW5rIiBvdmVyZmxvdz0iaGlkZGVuIiB2aWV3Qm94PSIxLjU2MjUgMS41NjI1IDI1Ljc2MTcxODc1IDI1Ljg3NSI+PGRlZnM+PGNsaXBQYXRoIGlkPSJjbGlwMCI+PHJlY3QgeD0iNTExIiB5PSIzMTUiIHdpZHRoPSIyOSIgaGVpZ2h0PSIyOCIvPjwvY2xpcFBhdGg+PGNsaXBQYXRoIGlkPSJjbGlwMSI+PHJlY3QgeD0iNTEyIiB5PSIzMTYiIHdpZHRoPSIyNyIgaGVpZ2h0PSIyNyIvPjwvY2xpcFBhdGg+PGNsaXBQYXRoIGlkPSJjbGlwMiI+PHJlY3QgeD0iNTEyIiB5PSIzMTYiIHdpZHRoPSIyNyIgaGVpZ2h0PSIyNyIvPjwvY2xpcFBhdGg+PGNsaXBQYXRoIGlkPSJjbGlwMyI+PHJlY3QgeD0iNTEyIiB5PSIzMTYiIHdpZHRoPSIyNyIgaGVpZ2h0PSIyNyIvPjwvY2xpcFBhdGg+PC9kZWZzPjxnIGNsaXAtcGF0aD0idXJsKCNjbGlwMCkiIHRyYW5zZm9ybT0idHJhbnNsYXRlKC01MTEgLTMxNSkiPjxnIGNsaXAtcGF0aD0idXJsKCNjbGlwMSkiPjxnIGNsaXAtcGF0aD0idXJsKCNjbGlwMikiPjxnIGNsaXAtcGF0aD0idXJsKCNjbGlwMykiPjxwYXRoIGQ9Ik01MzcuMiAzMzEuMTg4QzUzNi4zNTYgMzM2LjkyNSA1MzEuNDYzIDM0MS4zMTIgNTI1LjUgMzQxLjMxMiA1MTguOTc1IDM0MS4zMTIgNTEzLjY4OCAzMzYuMDI1IDUxMy42ODggMzI5LjUgNTEzLjY4OCAzMjIuOTc1IDUxOC45NzUgMzE3LjY4OCA1MjUuNSAzMTcuNjg4IDUzMS40NjMgMzE3LjY4OCA1MzYuMzU2IDMyMi4wNzUgNTM3LjIgMzI3LjgxMkw1MzguMzI1IDMyNy44MTJDNTM3LjQ4MSAzMjEuNDU2IDUzMi4wODEgMzE2LjU2MiA1MjUuNSAzMTYuNTYyIDUxOC4zNTYgMzE2LjU2MiA1MTIuNTYyIDMyMi4zNTYgNTEyLjU2MiAzMjkuNSA1MTIuNTYyIDMzNi42NDQgNTE4LjM1NiAzNDIuNDM4IDUyNS41IDM0Mi40MzggNTMyLjA4MSAzNDIuNDM4IDUzNy40ODEgMzM3LjU0NCA1MzguMzI1IDMzMS4xODhMNTM3LjIgMzMxLjE4OFoiIGZpbGw9IiMwMEE0RkYiLz48cGF0aCBkPSJNNTIwLjQzOCAzMjMuODc1IDUyMS41NjIgMzIzLjg3NSA1MjEuNTYyIDMzNS4xMjUgNTIwLjQzOCAzMzUuMTI1WiIgZmlsbD0iIzAwQTRGRiIvPjxwYXRoIGQ9Ik01MjAuNDM4IDMyMy44NzUgNTI2LjYyNSAzMjMuODc1IDUyNi42MjUgMzI1IDUyMC40MzggMzI1WiIgZmlsbD0iIzAwQTRGRiIvPjxwYXRoIGQ9Ik01MjAuNDM4IDMyOC45MzggNTI2LjYyNSAzMjguOTM4IDUyNi42MjUgMzMwLjA2MiA1MjAuNDM4IDMzMC4wNjJaIiBmaWxsPSIjMDBBNEZGIi8+PHBhdGggZD0iTTUyMC40MzggMzM0IDUyNi42MjUgMzM0IDUyNi42MjUgMzM1LjEyNSA1MjAuNDM4IDMzNS4xMjVaIiBmaWxsPSIjMDBBNEZGIi8+PHBhdGggZD0iTTUzMC41NjIgMzI0LjQzOEM1MzAuNTYyIDMyNS4wNTkgNTMwLjA1OSAzMjUuNTYyIDUyOS40MzggMzI1LjU2MiA1MjguODE2IDMyNS41NjIgNTI4LjMxMiAzMjUuMDU5IDUyOC4zMTIgMzI0LjQzOCA1MjguMzEyIDMyMy44MTYgNTI4LjgxNiAzMjMuMzEyIDUyOS40MzggMzIzLjMxMiA1MzAuMDU5IDMyMy4zMTIgNTMwLjU2MiAzMjMuODE2IDUzMC41NjIgMzI0LjQzOFoiIGZpbGw9IiMwMEE0RkYiLz48cGF0aCBkPSJNNTMwLjU2MiAzMjkuNUM1MzAuNTYyIDMzMC4xMjEgNTMwLjA1OSAzMzAuNjI1IDUyOS40MzggMzMwLjYyNSA1MjguODE2IDMzMC42MjUgNTI4LjMxMiAzMzAuMTIxIDUyOC4zMTIgMzI5LjUgNTI4LjMxMiAzMjguODc5IDUyOC44MTYgMzI4LjM3NSA1MjkuNDM4IDMyOC4zNzUgNTMwLjA1OSAzMjguMzc1IDUzMC41NjIgMzI4Ljg3OSA1MzAuNTYyIDMyOS41WiIgZmlsbD0iIzAwQTRGRiIvPjxwYXRoIGQ9Ik01MzAuNTYyIDMzNC41NjJDNTMwLjU2MiAzMzUuMTg0IDUzMC4wNTkgMzM1LjY4OCA1MjkuNDM4IDMzNS42ODggNTI4LjgxNiAzMzUuNjg4IDUyOC4zMTIgMzM1LjE4NCA1MjguMzEyIDMzNC41NjIgNTI4LjMxMiAzMzMuOTQxIDUyOC44MTYgMzMzLjQzOCA1MjkuNDM4IDMzMy40MzggNTMwLjA1OSAzMzMuNDM4IDUzMC41NjIgMzMzLjk0MSA1MzAuNTYyIDMzNC41NjJaIiBmaWxsPSIjMDBBNEZGIi8+PC9nPjwvZz48L2c+PC9nPjwvc3ZnPg==;fontStyle=1" parent="-wsc2XBUxjwpWOjfPmOZ-71" vertex="1">
          <mxGeometry x="26" y="8" width="40" height="40" as="geometry" />
        </mxCell>
        <mxCell id="-wsc2XBUxjwpWOjfPmOZ-75" value="" style="group;fontFamily=Helvetica;fontSize=18;fontStyle=1" parent="1" vertex="1" connectable="0">
          <mxGeometry x="1096" y="53" width="92" height="112" as="geometry" />
        </mxCell>
        <mxCell id="-wsc2XBUxjwpWOjfPmOZ-76" value="&lt;font color=&quot;#333333&quot;&gt;&lt;span style=&quot;font-size: 16px&quot;&gt;&lt;span&gt;appsever&lt;/span&gt;&lt;/span&gt;&lt;/font&gt;" style="rounded=0;whiteSpace=wrap;html=1;shadow=1;comic=0;strokeColor=#E6E6E6;strokeWidth=2;fillColor=#ffffff;gradientColor=none;fontSize=22;fontColor=#FFFFFF;verticalAlign=bottom;fontStyle=1" parent="-wsc2XBUxjwpWOjfPmOZ-75" vertex="1">
          <mxGeometry y="82" width="92" height="30" as="geometry" />
        </mxCell>
        <mxCell id="-wsc2XBUxjwpWOjfPmOZ-77" value="" style="shape=image;verticalLabelPosition=bottom;labelBackgroundColor=#ffffff;verticalAlign=top;aspect=fixed;imageAspect=0;image=data:image/svg+xml,PHN2ZyB4bWxucz0iaHR0cDovL3d3dy53My5vcmcvMjAwMC9zdmciIHZpZXdCb3g9IjAgMCA0MC43MSAzNi44NCI+PGRlZnM+PHN0eWxlPi5jbHMtMXtmaWxsOiNmZmY7c3Ryb2tlOiMyMzE4MTU7c3Ryb2tlLXdpZHRoOjAuNzhweDt9LmNscy0xLC5jbHMtNHtzdHJva2UtbWl0ZXJsaW1pdDoxMDt9LmNscy0ye2ZpbGw6I2VmZWZlZjt9LmNscy0ze2ZpbGw6I2RjZGRkZDt9LmNscy00e2ZpbGw6bm9uZTtzdHJva2U6Z3JheTtzdHJva2Utd2lkdGg6MC42OHB4O308L3N0eWxlPjwvZGVmcz48dGl0bGU+6LWE5rqQIDE4PC90aXRsZT48ZyBpZD0i5Zu+5bGCXzIiIGRhdGEtbmFtZT0i5Zu+5bGCIDIiPjxnIGlkPSLlm77lsYJfMS0yIiBkYXRhLW5hbWU9IuWbvuWxgiAxIj48cG9seWdvbiBjbGFzcz0iY2xzLTEiIHBvaW50cz0iNDAuMzEgMTIuODYgMjAuMzYgMC40NiAwLjQgMTIuODYgMC4zOSAyNC4wNSAyMC4zNCAzNi40NiAyMC4zNyAzNi40NiA0MC4zMyAyNC4wNSA0MC4zMSAxMi44NiIvPjxwb2x5Z29uIGNsYXNzPSJjbHMtMiIgcG9pbnRzPSIyMC40IDM2LjQzIDAuNDUgMjQuMDIgMC40NiAxMi44NCAyMC40MiAyNS4yNCAyMC40IDM2LjQzIi8+PHBvbHlnb24gY2xhc3M9ImNscy0zIiBwb2ludHM9IjIwLjQzIDM2LjQzIDQwLjM4IDI0LjAyIDQwLjM3IDEyLjg0IDIwLjQyIDI1LjI0IDIwLjQzIDM2LjQzIi8+PHBvbHlnb24gY2xhc3M9ImNscy00IiBwb2ludHM9IjQwLjMxIDEyLjg2IDIwLjM2IDAuNDYgMC40IDEyLjg2IDAuMzkgMjQuMDUgMjAuMzQgMzYuNDYgMjAuMzcgMzYuNDYgNDAuMzMgMjQuMDUgNDAuMzEgMTIuODYiLz48L2c+PC9nPjwvc3ZnPg==;fontStyle=1" parent="-wsc2XBUxjwpWOjfPmOZ-75" vertex="1">
          <mxGeometry x="1.0000000000001137" y="-1" width="90" height="81.22" as="geometry" />
        </mxCell>
        <mxCell id="-wsc2XBUxjwpWOjfPmOZ-78" value="" style="shape=image;verticalLabelPosition=bottom;verticalAlign=top;imageAspect=0;image=data:image/svg+xml,PHN2ZyB3aWR0aD0iNDUuODA4NTkzNzUiIGhlaWdodD0iNDYuMDA3ODEyNSIgdmlld0JveD0iMC45NTMxMjUgMC45OTYwOTM3NSA0NS44MDg1OTM3NSA0Ni4wMDc4MTI1IiB4bWxucz0iaHR0cDovL3d3dy53My5vcmcvMjAwMC9zdmciIHhtbG5zOnhsaW5rPSJodHRwOi8vd3d3LnczLm9yZy8xOTk5L3hsaW5rIiBpZD0i5Zu+5bGCXzEiIG92ZXJmbG93PSJoaWRkZW4iPjxkZWZzPjxjbGlwUGF0aCBpZD0iY2xpcC1wYXRoIj48Y2lyY2xlIGN4PSIzMzYiIGN5PSIxNDUiIHI9IjM1IiBmaWxsPSJub25lIi8+PC9jbGlwUGF0aD48L2RlZnM+PHBhdGggZD0iTTI0IDQ1QzEyLjQwMiA0NS4wMTM2IDIuOTg5IDM1LjYyMjYgMi45NzU0MSAyNC4wMjQ2IDIuOTYxODIgMTIuNDI2NyAxMi4zNTI4IDMuMDEzNjIgMjMuOTUwOCAzLjAwMDAzIDM0LjM5OTIgMi45ODc3OSA0My4yNjc0IDEwLjY1ODcgNDQuNzYgMjFMNDYuNzYgMjFDNDUuMTAzMSA4LjQwNTk3IDMzLjU1MDUtMC40NjAzNjMgMjAuOTU2NSAxLjE5NjQ5IDguMzYyNDYgMi44NTMzNS0wLjUwMzg3MyAxNC40MDYgMS4xNTI5OCAyNyAyLjgwOTg0IDM5LjU5NCAxNC4zNjI1IDQ4LjQ2MDQgMjYuOTU2NSA0Ni44MDM1IDM3LjI3OSA0NS40NDU1IDQ1LjQwMiAzNy4zMjI2IDQ2Ljc2IDI3TDQ0Ljc2IDI3QzQzLjI3IDM3LjMyMjggMzQuNDI5NyA0NC45ODc4IDI0IDQ1Wk0zNSAxOCAyNCAxMiAxMyAxOCAxMyAzMCAxNy4wOSAzMi4yM0MxNy4yMDAxIDMxLjU4MjIgMTcuNTE5OCAzMC45ODg1IDE4IDMwLjU0TDE1IDI4LjkgMTUgMjEgMjQgMjYgMzMgMjEgMzMgMjguOSAyNSAzMy4yOEMyNC42OTcxIDMzLjEwMDIgMjQuMzUyMiAzMy4wMDM3IDI0IDMzIDIyLjg5NTQgMzMgMjIgMzMuODk1NCAyMiAzNSAyMiAzNi4xMDQ2IDIyLjg5NTQgMzcgMjQgMzcgMjUuMTA0NiAzNyAyNiAzNi4xMDQ2IDI2IDM1IDI2IDM1IDI2IDM0LjkyIDI2IDM0Ljg4TDM1IDMwWk0yNCAyMy43IDE1LjMyIDE4LjkgMjQgMTQuMTcgMzIuNjYgMTguODlaIiBmaWxsPSIjMDBBNEZGIi8+PC9zdmc+;fontFamily=Helvetica;fontSize=18;fontStyle=1" parent="-wsc2XBUxjwpWOjfPmOZ-75" vertex="1">
          <mxGeometry x="26" y="9" width="40" height="40" as="geometry" />
        </mxCell>
        <mxCell id="-wsc2XBUxjwpWOjfPmOZ-79" value="" style="group;fontStyle=1" parent="1" vertex="1" connectable="0">
          <mxGeometry x="912" y="65" width="111" height="112" as="geometry" />
        </mxCell>
        <mxCell id="-wsc2XBUxjwpWOjfPmOZ-80" value="&lt;font color=&quot;#333333&quot;&gt;&lt;span style=&quot;font-size: 16px&quot;&gt;&lt;span&gt;应用服务集群&lt;/span&gt;&lt;/span&gt;&lt;/font&gt;" style="rounded=0;whiteSpace=wrap;html=1;shadow=1;comic=0;strokeColor=#E6E6E6;strokeWidth=2;fillColor=#ffffff;gradientColor=none;fontSize=22;fontColor=#FFFFFF;verticalAlign=bottom;fontStyle=1" parent="-wsc2XBUxjwpWOjfPmOZ-79" vertex="1">
          <mxGeometry x="-40" y="82" width="142" height="30" as="geometry" />
        </mxCell>
        <mxCell id="-wsc2XBUxjwpWOjfPmOZ-81" value="" style="shape=image;verticalLabelPosition=bottom;labelBackgroundColor=#ffffff;verticalAlign=top;aspect=fixed;imageAspect=0;image=data:image/svg+xml,PHN2ZyB4bWxucz0iaHR0cDovL3d3dy53My5vcmcvMjAwMC9zdmciIHZpZXdCb3g9IjAgMCA0MC43MSAzNi44NCI+PGRlZnM+PHN0eWxlPi5jbHMtMXtmaWxsOiNmZmY7c3Ryb2tlOiMyMzE4MTU7c3Ryb2tlLXdpZHRoOjAuNzhweDt9LmNscy0xLC5jbHMtNHtzdHJva2UtbWl0ZXJsaW1pdDoxMDt9LmNscy0ye2ZpbGw6I2VmZWZlZjt9LmNscy0ze2ZpbGw6I2RjZGRkZDt9LmNscy00e2ZpbGw6bm9uZTtzdHJva2U6Z3JheTtzdHJva2Utd2lkdGg6MC42OHB4O308L3N0eWxlPjwvZGVmcz48dGl0bGU+6LWE5rqQIDE4PC90aXRsZT48ZyBpZD0i5Zu+5bGCXzIiIGRhdGEtbmFtZT0i5Zu+5bGCIDIiPjxnIGlkPSLlm77lsYJfMS0yIiBkYXRhLW5hbWU9IuWbvuWxgiAxIj48cG9seWdvbiBjbGFzcz0iY2xzLTEiIHBvaW50cz0iNDAuMzEgMTIuODYgMjAuMzYgMC40NiAwLjQgMTIuODYgMC4zOSAyNC4wNSAyMC4zNCAzNi40NiAyMC4zNyAzNi40NiA0MC4zMyAyNC4wNSA0MC4zMSAxMi44NiIvPjxwb2x5Z29uIGNsYXNzPSJjbHMtMiIgcG9pbnRzPSIyMC40IDM2LjQzIDAuNDUgMjQuMDIgMC40NiAxMi44NCAyMC40MiAyNS4yNCAyMC40IDM2LjQzIi8+PHBvbHlnb24gY2xhc3M9ImNscy0zIiBwb2ludHM9IjIwLjQzIDM2LjQzIDQwLjM4IDI0LjAyIDQwLjM3IDEyLjg0IDIwLjQyIDI1LjI0IDIwLjQzIDM2LjQzIi8+PHBvbHlnb24gY2xhc3M9ImNscy00IiBwb2ludHM9IjQwLjMxIDEyLjg2IDIwLjM2IDAuNDYgMC40IDEyLjg2IDAuMzkgMjQuMDUgMjAuMzQgMzYuNDYgMjAuMzcgMzYuNDYgNDAuMzMgMjQuMDUgNDAuMzEgMTIuODYiLz48L2c+PC9nPjwvc3ZnPg==;fontStyle=1" parent="-wsc2XBUxjwpWOjfPmOZ-79" vertex="1">
          <mxGeometry x="-16.999999999999886" width="90" height="81.22" as="geometry" />
        </mxCell>
        <mxCell id="-wsc2XBUxjwpWOjfPmOZ-82" value="" style="group;fontStyle=1" parent="-wsc2XBUxjwpWOjfPmOZ-79" vertex="1" connectable="0">
          <mxGeometry x="-17" y="-30.78" width="110" height="112" as="geometry" />
        </mxCell>
        <mxCell id="-wsc2XBUxjwpWOjfPmOZ-83" value="" style="shape=image;verticalLabelPosition=bottom;labelBackgroundColor=#ffffff;verticalAlign=top;aspect=fixed;imageAspect=0;image=data:image/svg+xml,PHN2ZyB4bWxucz0iaHR0cDovL3d3dy53My5vcmcvMjAwMC9zdmciIHZpZXdCb3g9IjAgMCA0MC43MSAzNi44NCI+PGRlZnM+PHN0eWxlPi5jbHMtMXtmaWxsOiNmZmY7c3Ryb2tlOiMyMzE4MTU7c3Ryb2tlLXdpZHRoOjAuNzhweDt9LmNscy0xLC5jbHMtNHtzdHJva2UtbWl0ZXJsaW1pdDoxMDt9LmNscy0ye2ZpbGw6I2VmZWZlZjt9LmNscy0ze2ZpbGw6I2RjZGRkZDt9LmNscy00e2ZpbGw6bm9uZTtzdHJva2U6Z3JheTtzdHJva2Utd2lkdGg6MC42OHB4O308L3N0eWxlPjwvZGVmcz48dGl0bGU+6LWE5rqQIDE4PC90aXRsZT48ZyBpZD0i5Zu+5bGCXzIiIGRhdGEtbmFtZT0i5Zu+5bGCIDIiPjxnIGlkPSLlm77lsYJfMS0yIiBkYXRhLW5hbWU9IuWbvuWxgiAxIj48cG9seWdvbiBjbGFzcz0iY2xzLTEiIHBvaW50cz0iNDAuMzEgMTIuODYgMjAuMzYgMC40NiAwLjQgMTIuODYgMC4zOSAyNC4wNSAyMC4zNCAzNi40NiAyMC4zNyAzNi40NiA0MC4zMyAyNC4wNSA0MC4zMSAxMi44NiIvPjxwb2x5Z29uIGNsYXNzPSJjbHMtMiIgcG9pbnRzPSIyMC40IDM2LjQzIDAuNDUgMjQuMDIgMC40NiAxMi44NCAyMC40MiAyNS4yNCAyMC40IDM2LjQzIi8+PHBvbHlnb24gY2xhc3M9ImNscy0zIiBwb2ludHM9IjIwLjQzIDM2LjQzIDQwLjM4IDI0LjAyIDQwLjM3IDEyLjg0IDIwLjQyIDI1LjI0IDIwLjQzIDM2LjQzIi8+PHBvbHlnb24gY2xhc3M9ImNscy00IiBwb2ludHM9IjQwLjMxIDEyLjg2IDIwLjM2IDAuNDYgMC40IDEyLjg2IDAuMzkgMjQuMDUgMjAuMzQgMzYuNDYgMjAuMzcgMzYuNDYgNDAuMzMgMjQuMDUgNDAuMzEgMTIuODYiLz48L2c+PC9nPjwvc3ZnPg==;fontStyle=1" parent="-wsc2XBUxjwpWOjfPmOZ-82" vertex="1">
          <mxGeometry x="0.5000000000001137" y="-2.2200000000000006" width="90" height="81.22" as="geometry" />
        </mxCell>
        <mxCell id="-wsc2XBUxjwpWOjfPmOZ-84" value="" style="shape=image;verticalLabelPosition=bottom;verticalAlign=top;imageAspect=0;aspect=fixed;image=data:image/svg+xml,PHN2ZyB3aWR0aD0iNDUuODA4NTkzNzUiIGhlaWdodD0iNDYuMDA3ODEyNSIgdmlld0JveD0iMC45NTMxMjUgMC45OTYwOTM3NSA0NS44MDg1OTM3NSA0Ni4wMDc4MTI1IiB4bWxucz0iaHR0cDovL3d3dy53My5vcmcvMjAwMC9zdmciIHhtbG5zOnhsaW5rPSJodHRwOi8vd3d3LnczLm9yZy8xOTk5L3hsaW5rIiBpZD0i5Zu+5bGCXzEiIG92ZXJmbG93PSJoaWRkZW4iPjxkZWZzPjxjbGlwUGF0aCBpZD0iY2xpcC1wYXRoIj48Y2lyY2xlIGN4PSIzMzYiIGN5PSIxNDUiIHI9IjM1IiBmaWxsPSJub25lIi8+PC9jbGlwUGF0aD48L2RlZnM+PHBhdGggZD0iTTI0IDQ1QzEyLjQwMiA0NS4wMTM2IDIuOTg5IDM1LjYyMjYgMi45NzU0MSAyNC4wMjQ2IDIuOTYxODIgMTIuNDI2NyAxMi4zNTI4IDMuMDEzNjIgMjMuOTUwOCAzLjAwMDAzIDM0LjM5OTIgMi45ODc3OSA0My4yNjc0IDEwLjY1ODcgNDQuNzYgMjFMNDYuNzYgMjFDNDUuMTAzMSA4LjQwNTk3IDMzLjU1MDUtMC40NjAzNjMgMjAuOTU2NSAxLjE5NjQ5IDguMzYyNDYgMi44NTMzNS0wLjUwMzg3MyAxNC40MDYgMS4xNTI5OCAyNyAyLjgwOTg0IDM5LjU5NCAxNC4zNjI1IDQ4LjQ2MDQgMjYuOTU2NSA0Ni44MDM1IDM3LjI3OSA0NS40NDU1IDQ1LjQwMiAzNy4zMjI2IDQ2Ljc2IDI3TDQ0Ljc2IDI3QzQzLjI3IDM3LjMyMjggMzQuNDI5NyA0NC45ODc4IDI0IDQ1Wk0zNSAxOCAyNCAxMiAxMyAxOCAxMyAzMCAxNy4wOSAzMi4yM0MxNy4yMDAxIDMxLjU4MjIgMTcuNTE5OCAzMC45ODg1IDE4IDMwLjU0TDE1IDI4LjkgMTUgMjEgMjQgMjYgMzMgMjEgMzMgMjguOSAyNSAzMy4yOEMyNC42OTcxIDMzLjEwMDIgMjQuMzUyMiAzMy4wMDM3IDI0IDMzIDIyLjg5NTQgMzMgMjIgMzMuODk1NCAyMiAzNSAyMiAzNi4xMDQ2IDIyLjg5NTQgMzcgMjQgMzcgMjUuMTA0NiAzNyAyNiAzNi4xMDQ2IDI2IDM1IDI2IDM1IDI2IDM0LjkyIDI2IDM0Ljg4TDM1IDMwWk0yNCAyMy43IDE1LjMyIDE4LjkgMjQgMTQuMTcgMzIuNjYgMTguODlaIiBmaWxsPSIjMDBBNEZGIi8+PC9zdmc+;fontStyle=1" parent="-wsc2XBUxjwpWOjfPmOZ-82" vertex="1">
          <mxGeometry x="28" y="10" width="35" height="35" as="geometry" />
        </mxCell>
        <mxCell id="-wsc2XBUxjwpWOjfPmOZ-116" value="" style="shape=card;whiteSpace=wrap;html=1;shadow=0;dashed=1;comic=0;strokeColor=#B3B3B3;gradientColor=none;fontSize=22;direction=east;flipV=0;flipH=1;fillColor=none;perimeterSpacing=1;strokeWidth=2;labelPosition=center;verticalLabelPosition=bottom;align=center;verticalAlign=top;fontStyle=1" parent="1" vertex="1">
          <mxGeometry x="1346" y="-58" width="274" height="140" as="geometry" />
        </mxCell>
        <mxCell id="-wsc2XBUxjwpWOjfPmOZ-117" value="" style="group;fontStyle=1" parent="1" vertex="1" connectable="0">
          <mxGeometry x="1368" y="-48" width="92" height="112" as="geometry" />
        </mxCell>
        <mxCell id="-wsc2XBUxjwpWOjfPmOZ-118" value="&lt;font color=&quot;#333333&quot;&gt;&lt;span style=&quot;font-size: 16px&quot;&gt;&lt;span&gt;Mysql&lt;/span&gt;&lt;/span&gt;&lt;/font&gt;" style="rounded=0;whiteSpace=wrap;html=1;shadow=1;comic=0;strokeColor=#E6E6E6;strokeWidth=2;fillColor=#ffffff;gradientColor=none;fontSize=22;fontColor=#FFFFFF;verticalAlign=bottom;fontStyle=1" parent="-wsc2XBUxjwpWOjfPmOZ-117" vertex="1">
          <mxGeometry y="82" width="92" height="30" as="geometry" />
        </mxCell>
        <mxCell id="-wsc2XBUxjwpWOjfPmOZ-119" value="" style="shape=image;verticalLabelPosition=bottom;labelBackgroundColor=#ffffff;verticalAlign=top;aspect=fixed;imageAspect=0;image=data:image/svg+xml,PHN2ZyB4bWxucz0iaHR0cDovL3d3dy53My5vcmcvMjAwMC9zdmciIHZpZXdCb3g9IjAgMCA0MC43MSAzNi44NCI+PGRlZnM+PHN0eWxlPi5jbHMtMXtmaWxsOiNmZmY7c3Ryb2tlOiMyMzE4MTU7c3Ryb2tlLXdpZHRoOjAuNzhweDt9LmNscy0xLC5jbHMtNHtzdHJva2UtbWl0ZXJsaW1pdDoxMDt9LmNscy0ye2ZpbGw6I2VmZWZlZjt9LmNscy0ze2ZpbGw6I2RjZGRkZDt9LmNscy00e2ZpbGw6bm9uZTtzdHJva2U6Z3JheTtzdHJva2Utd2lkdGg6MC42OHB4O308L3N0eWxlPjwvZGVmcz48dGl0bGU+6LWE5rqQIDE4PC90aXRsZT48ZyBpZD0i5Zu+5bGCXzIiIGRhdGEtbmFtZT0i5Zu+5bGCIDIiPjxnIGlkPSLlm77lsYJfMS0yIiBkYXRhLW5hbWU9IuWbvuWxgiAxIj48cG9seWdvbiBjbGFzcz0iY2xzLTEiIHBvaW50cz0iNDAuMzEgMTIuODYgMjAuMzYgMC40NiAwLjQgMTIuODYgMC4zOSAyNC4wNSAyMC4zNCAzNi40NiAyMC4zNyAzNi40NiA0MC4zMyAyNC4wNSA0MC4zMSAxMi44NiIvPjxwb2x5Z29uIGNsYXNzPSJjbHMtMiIgcG9pbnRzPSIyMC40IDM2LjQzIDAuNDUgMjQuMDIgMC40NiAxMi44NCAyMC40MiAyNS4yNCAyMC40IDM2LjQzIi8+PHBvbHlnb24gY2xhc3M9ImNscy0zIiBwb2ludHM9IjIwLjQzIDM2LjQzIDQwLjM4IDI0LjAyIDQwLjM3IDEyLjg0IDIwLjQyIDI1LjI0IDIwLjQzIDM2LjQzIi8+PHBvbHlnb24gY2xhc3M9ImNscy00IiBwb2ludHM9IjQwLjMxIDEyLjg2IDIwLjM2IDAuNDYgMC40IDEyLjg2IDAuMzkgMjQuMDUgMjAuMzQgMzYuNDYgMjAuMzcgMzYuNDYgNDAuMzMgMjQuMDUgNDAuMzEgMTIuODYiLz48L2c+PC9nPjwvc3ZnPg==;fontStyle=1" parent="-wsc2XBUxjwpWOjfPmOZ-117" vertex="1">
          <mxGeometry x="1.0000000000001137" width="90" height="81.22" as="geometry" />
        </mxCell>
        <mxCell id="-wsc2XBUxjwpWOjfPmOZ-120" value="" style="shape=image;verticalLabelPosition=bottom;verticalAlign=top;imageAspect=0;image=data:image/svg+xml,PHN2ZyB3aWR0aD0iMjQuNzU3ODEyNSIgaGVpZ2h0PSIyNC4yNDIxODc1IiB4bWxucz0iaHR0cDovL3d3dy53My5vcmcvMjAwMC9zdmciIHhtbG5zOnhsaW5rPSJodHRwOi8vd3d3LnczLm9yZy8xOTk5L3hsaW5rIiBvdmVyZmxvdz0iaGlkZGVuIiB2aWV3Qm94PSIxLjEyMTA5Mzc1IDIuMTI1IDI0Ljc1NzgxMjUgMjQuMjQyMTg3NSI+PGRlZnM+PGNsaXBQYXRoIGlkPSJjbGlwMCI+PHJlY3QgeD0iMTAzNyIgeT0iMzE0IiB3aWR0aD0iMjgiIGhlaWdodD0iMjgiLz48L2NsaXBQYXRoPjxjbGlwUGF0aCBpZD0iY2xpcDEiPjxyZWN0IHg9IjEwMzciIHk9IjMxNSIgd2lkdGg9IjI3IiBoZWlnaHQ9IjI3Ii8+PC9jbGlwUGF0aD48Y2xpcFBhdGggaWQ9ImNsaXAyIj48cmVjdCB4PSIxMDM3IiB5PSIzMTUiIHdpZHRoPSIyNyIgaGVpZ2h0PSIyNyIvPjwvY2xpcFBhdGg+PGNsaXBQYXRoIGlkPSJjbGlwMyI+PHJlY3QgeD0iMTAzNyIgeT0iMzE1IiB3aWR0aD0iMjciIGhlaWdodD0iMjciLz48L2NsaXBQYXRoPjwvZGVmcz48ZyBjbGlwLXBhdGg9InVybCgjY2xpcDApIiB0cmFuc2Zvcm09InRyYW5zbGF0ZSgtMTAzNyAtMzE0KSI+PGcgY2xpcC1wYXRoPSJ1cmwoI2NsaXAxKSI+PGcgY2xpcC1wYXRoPSJ1cmwoI2NsaXAyKSI+PGcgY2xpcC1wYXRoPSJ1cmwoI2NsaXAzKSI+PHBhdGggZD0iTTEwNDguODEgMzE3LjI1QzEwNTQuNjYgMzE3LjI1IDEwNTguMzggMzE5LjI3NSAxMDU4LjM4IDMyMC42MjUgMTA1OC4zOCAzMjEuOTc1IDEwNTQuNjYgMzI0IDEwNDguODEgMzI0IDEwNDIuOTYgMzI0IDEwMzkuMjUgMzIyLjAzMSAxMDM5LjI1IDMyMC42MjUgMTAzOS4yNSAzMTkuMjE5IDEwNDMuMDIgMzE3LjI1IDEwNDguODEgMzE3LjI1TTEwNDguODEgMzE2LjEyNUMxMDQyLjkxIDMxNi4xMjUgMTAzOC4xMiAzMTguMTUgMTAzOC4xMiAzMjAuNjI1IDEwMzguMTIgMzIzLjEgMTA0Mi45MSAzMjUuMTI1IDEwNDguODEgMzI1LjEyNSAxMDU0LjcyIDMyNS4xMjUgMTA1OS41IDMyMy4xIDEwNTkuNSAzMjAuNjI1IDEwNTkuNSAzMTguMTUgMTA1NC43MiAzMTYuMTI1IDEwNDguODEgMzE2LjEyNUwxMDQ4LjgxIDMxNi4xMjVaIiBmaWxsPSIjMDBBNEZGIi8+PHBhdGggZD0iTTEwMzguMTIgMzIwLjExOSAxMDM5LjI1IDMyMC4xMTkgMTAzOS4yNSAzMzUuMzA2IDEwMzguMTIgMzM1LjMwNloiIGZpbGw9IiMwMEE0RkYiLz48cGF0aCBkPSJNMTAzOC4xMiAzMjAuNjgxIDEwMzkuMjUgMzIwLjY4MSAxMDM5LjI1IDMzNS44NjkgMTAzOC4xMiAzMzUuODY5WiIgZmlsbD0iIzAwQTRGRiIvPjxwYXRoIGQ9Ik0xMDQ4LjgxIDMzMC4yNDRDMTA0OC45MyAzMzAuMjQ0IDEwNDkuMDQgMzMwLjI0NCAxMDQ5LjIxIDMzMC4yNDRMMTA0OS4xNSAzMzAuMTg4QzEwNDguODEgMzI5Ljc5NCAxMDQ4LjU5IDMyOS40NTYgMTA0OC40MiAzMjkuMTE5IDEwNDIuNzkgMzI5LjAwNiAxMDM5LjI1IDMyNi44MTIgMTAzOS4yNSAzMjUuNzQ0TDEwMzguMTIgMzI1Ljc0NEMxMDM4LjEyIDMyNy45OTQgMTA0Mi45MSAzMzAuMjQ0IDEwNDguODEgMzMwLjI0NFpNMTA1OS41IDMyNS44NTZDMTA1OS41IDMyNS44IDEwNTkuNSAzMjUuNzQ0IDEwNTkuNSAzMjUuNjg4TDEwNTkuNSAzMjUuNjg4IDEwNTkuNSAzMjAuNjI1IDEwNTguMzggMzIwLjYyNSAxMDU4LjM4IDMyNS44QzEwNTguMjYgMzI2LjQ3NSAxMDU3LjAzIDMyNy40MzEgMTA1NSAzMjguMTA2IDEwNTUuMzkgMzI4LjMzMSAxMDU1Ljc5IDMyOC41NTYgMTA1Ni4xOCAzMjguODk0IDEwNTcuMDggMzI4LjUgMTA1Ny44MSAzMjguMTA2IDEwNTguMzggMzI3LjZMMTA1OC4zOCAzMzAuODYyQzEwNTguMzggMzMwLjk3NSAxMDU4LjI2IDMzMS4wODcgMTA1OC4yMSAzMzEuMjU2IDEwNTguNiAzMzEuNzYzIDEwNTguODIgMzMyLjEgMTA1OS4wNSAzMzIuNTVMMTA1OS4xMSAzMzIuNTVDMTA1OS4yMiAzMzIuNjA2IDEwNTkuMzkgMzMyLjYwNiAxMDU5LjUgMzMyLjY2M0wxMDU5LjUgMzMwLjkxOUMxMDU5LjUgMzMwLjg2MiAxMDU5LjUgMzMwLjgwNiAxMDU5LjUgMzMwLjc1TDEwNTkuNSAzMzAuNzUgMTA1OS41IDMyNS44NTZaTTEwNDguODEgMzM1LjMwNkMxMDQ5LjI2IDMzNS4zMDYgMTA0OS43MSAzMzUuMzA2IDEwNTAuMTEgMzM1LjI1IDEwNTAuMTEgMzM0Ljg1NiAxMDUwLjExIDMzNC40NjIgMTA1MC4xNiAzMzQuMTI1IDEwNDkuNzEgMzM0LjEyNSAxMDQ5LjI2IDMzNC4xODEgMTA0OC44MSAzMzQuMTgxIDEwNDIuOTYgMzM0LjE4MSAxMDM5LjI1IDMzMS45MzEgMTAzOS4yNSAzMzAuODA2TDEwMzguMTIgMzMwLjgwNkMxMDM4LjEyIDMzMy4wNTYgMTA0Mi45MSAzMzUuMzA2IDEwNDguODEgMzM1LjMwNlpNMTA0OC44MSAzMzkuMjQ0QzEwNDIuOTYgMzM5LjI0NCAxMDM5LjI1IDMzNi45OTQgMTAzOS4yNSAzMzUuODY5TDEwMzguMTIgMzM1Ljg2OUMxMDM4LjEyIDMzOC4xMTkgMTA0Mi45MSAzNDAuMzY5IDEwNDguODEgMzQwLjM2OSAxMDUwLjg0IDM0MC4zNjkgMTA1Mi43NSAzNDAuMDg3IDEwNTQuMzIgMzM5LjYzOCAxMDU0LjA0IDMzOS4zIDEwNTMuODIgMzM5LjAxOSAxMDUzLjU5IDMzOC42ODEgMTA1Mi4yNCAzMzkuMDE5IDEwNTAuNjcgMzM5LjI0NCAxMDQ4LjgxIDMzOS4yNDRaIiBmaWxsPSIjMDBBNEZGIi8+PHBhdGggZD0iTTEwNjEuMzYgMzQwLjI1NkMxMDYwLjY4IDMzOC44NSAxMDU5LjM5IDMzNy41IDEwNTguODIgMzM2LjkzOCAxMDU4LjQ5IDMzNi42IDEwNTguNDMgMzM2LjE1IDEwNTguNjYgMzM1Ljc1NiAxMDU4Ljg4IDMzNS4zNjIgMTA1OS4zMyAzMzUuMTk0IDEwNTkuNzggMzM1LjMwNiAxMDYwLjA2IDMzNS4zNjIgMTA2MC4zNCAzMzUuNDE5IDEwNjAuNjIgMzM1LjQ3NSAxMDU5Ljg0IDMzNS4wMjUgMTA1OS4wNSAzMzQuODU2IDEwNTguNDkgMzM0LjY4OCAxMDU4LjM4IDMzNC42MzEgMTA1OC4yNiAzMzQuNjMxIDEwNTguMjEgMzM0LjYzMSAxMDU3Ljc2IDMzNC41MTkgMTA1Ny4zNiAzMzQuMTgxIDEwNTcuMTQgMzMzLjczMSAxMDU2Ljg2IDMzMy4xMTIgMTA1Ni41NyAzMzIuNzc1IDEwNTUuMjIgMzMxLjA4NyAxMDU0LjMyIDMyOS45NjIgMTA1Mi4yNCAzMjkuMjg4IDEwNTEuNTEgMzI5LjExOUwxMDUxLjQgMzI5LjExOUMxMDUxLjI5IDMyOS4xMTkgMTA1MS4yMyAzMjkuMDYyIDEwNTEuMTggMzI5LjAwNkwxMDUxLjEyIDMyOC45NUMxMDUwLjg5IDMyOC43MjUgMTA1MC42MSAzMjguNjEyIDEwNTAuMzkgMzI4LjQ0NCAxMDUwLjQ0IDMyOC41NTYgMTA1MC41NiAzMjguNjY5IDEwNTAuNzIgMzI4LjgzN0wxMDUwLjg0IDMyOC45NUMxMDUxLjI5IDMyOS40NTYgMTA1MS40NiAzMzAuMTMxIDEwNTEuNTcgMzMwLjc1IDEwNTEuNjIgMzMwLjkxOSAxMDUxLjYyIDMzMS4wODcgMTA1MS42OCAzMzEuMiAxMDUxLjc0IDMzMS4zNjkgMTA1MS45MSAzMzEuNzA2IDEwNTIuMjQgMzMyLjE1NiAxMDUyLjQ3IDMzMi40OTQgMTA1Mi41MyAzMzIuODMxIDEwNTIuNDcgMzMzLjIyNSAxMDUyLjMgMzMzLjg0NCAxMDUyLjI0IDMzNC40NjIgMTA1Mi4yNCAzMzQuOTY5IDEwNTIuMjQgMzM0Ljk2OSAxMDUyLjI0IDMzNC45NjkgMTA1Mi4yNCAzMzQuOTY5IDEwNTIuNDcgMzM0Ljc0NCAxMDUyLjc1IDMzNC42MzEgMTA1My4wOSAzMzQuNjg4IDEwNTMuNzEgMzM0Ljc0NCAxMDUzLjkzIDMzNS4xOTQgMTA1NC40NCAzMzYuMDM4IDEwNTUgMzM2Ljk5NCAxMDU1LjkgMzM4LjYyNSAxMDU3LjAzIDMzOS4xMzFMMTA1Ni41MiAzNDAuMTQ0QzEwNTUuMTEgMzM5LjQ2OSAxMDU0LjA0IDMzNy42NjkgMTA1My40OCAzMzYuNiAxMDUzLjMxIDMzNi4yNjMgMTA1My4xNCAzMzUuOTgxIDEwNTMuMDMgMzM1LjgxMiAxMDUzLjAzIDMzNS44NjkgMTA1Mi45NyAzMzYuMDk0IDEwNTIuOTcgMzM2LjcxMiAxMDUyLjk3IDMzNi45OTQgMTA1Mi45NyAzMzcuMjE5IDEwNTIuOTIgMzM3LjM4OCAxMDUyLjg2IDMzNy42MTIgMTA1Mi42OSAzMzcuNzgxIDEwNTIuNDcgMzM3LjgzNyAxMDUyLjI0IDMzNy44OTQgMTA1Mi4wMiAzMzcuODM3IDEwNTEuOTEgMzM3LjY2OSAxMDUxLjc5IDMzNy41IDEwNTEuNjIgMzM3LjI3NSAxMDUxLjUxIDMzNi45OTQgMTA1MC44NCAzMzUuNyAxMDUxLjI5IDMzMy42MTkgMTA1MS40NiAzMzMgMTA1MS40NiAzMzIuOTQ0IDEwNTEuNDYgMzMyLjg4OCAxMDUxLjQ2IDMzMi44MzEgMTA1MS4xMiAzMzIuMzI1IDEwNTAuODQgMzMxLjg3NSAxMDUwLjcyIDMzMS41MzggMTA1MC42NyAzMzEuMzY5IDEwNTAuNjcgMzMxLjIgMTA1MC42MSAzMzEuMDMxIDEwNTAuNSAzMzAuNTI1IDEwNTAuMzMgMzI5Ljk2MiAxMDUwLjExIDMyOS42ODFMMTA0OS45NCAzMjkuNTY5QzEwNDkuNDkgMzI5LjA2MiAxMDQ4LjU5IDMyNy45OTQgMTA0OS4zOCAzMjcuMzE5IDEwNTAuMTEgMzI2LjY0NCAxMDUxLjU3IDMyNy43NjkgMTA1MS45MSAzMjguMDUgMTA1Mi4zIDMyOC4xNjMgMTA1NC45NCAzMjguODM3IDEwNTYuMjQgMzMwLjQxMyAxMDU3LjY0IDMzMi4xNTYgMTA1Ny45MyAzMzIuNDk0IDEwNTguMjYgMzMzLjI4MSAxMDU4LjMyIDMzMy40NSAxMDU4LjQzIDMzMy41MDYgMTA1OC42IDMzMy41NjIgMTA1OC42NiAzMzMuNTYyIDEwNTguNzcgMzMzLjYxOSAxMDU4Ljg4IDMzMy42MTkgMTA1OS42NyAzMzMuODQ0IDEwNjEuMDIgMzM0LjE4MSAxMDYyLjI2IDMzNS4xMzggMTA2Mi41NCAzMzUuMzYyIDEwNjIuNzYgMzM1LjU4NyAxMDYyLjg4IDMzNS43NTYgMTA2Mi44OCAzMzUuODEyIDEwNjIuODggMzM1Ljk4MSAxMDYyLjg4IDMzNi4xNSAxMDYyLjgyIDMzNi4zMTkgMTA2Mi43MSAzMzYuNDMxIDEwNjIuNTQgMzM2LjQ4NyAxMDYyLjAzIDMzNi43MTIgMTA2MC43OSAzMzYuNiAxMDU5Ljk1IDMzNi40MzEgMTA2MC42MiAzMzcuMTA2IDEwNjEuNzUgMzM4LjQgMTA2Mi4zNyAzMzkuNzVMMTA2MS4zNiAzNDAuMjU2WiIgZmlsbD0iIzAwQTRGRiIvPjxwYXRoIGQ9Ik0xMDUyLjk3IDMzMS44MTlDMTA1Mi43NSAzMzEuMzY5IDEwNTIuMyAzMzEuMTQ0IDEwNTIuMyAzMzEuMTQ0TDEwNTIuODEgMzMwLjEzMUMxMDUyLjkyIDMzMC4xODggMTA1My42NSAzMzAuNTgxIDEwNTQuMDQgMzMxLjM2OUwxMDUyLjk3IDMzMS44MTlaIiBmaWxsPSIjMDBBNEZGIi8+PC9nPjwvZz48L2c+PC9nPjwvc3ZnPg==;fontStyle=1" parent="-wsc2XBUxjwpWOjfPmOZ-117" vertex="1">
          <mxGeometry x="31" y="9" width="36" height="36" as="geometry" />
        </mxCell>
        <mxCell id="-wsc2XBUxjwpWOjfPmOZ-121" value="" style="group;fontStyle=1" parent="1" vertex="1" connectable="0">
          <mxGeometry x="1487" y="-49" width="92" height="112" as="geometry" />
        </mxCell>
        <mxCell id="-wsc2XBUxjwpWOjfPmOZ-122" value="&lt;font color=&quot;#333333&quot;&gt;&lt;span style=&quot;font-size: 16px&quot;&gt;&lt;span&gt;Redis&lt;/span&gt;&lt;/span&gt;&lt;/font&gt;" style="rounded=0;whiteSpace=wrap;html=1;shadow=1;comic=0;strokeColor=#E6E6E6;strokeWidth=2;fillColor=#ffffff;gradientColor=none;fontSize=22;fontColor=#FFFFFF;verticalAlign=bottom;fontStyle=1" parent="-wsc2XBUxjwpWOjfPmOZ-121" vertex="1">
          <mxGeometry y="82" width="92" height="30" as="geometry" />
        </mxCell>
        <mxCell id="-wsc2XBUxjwpWOjfPmOZ-123" value="" style="shape=image;verticalLabelPosition=bottom;labelBackgroundColor=#ffffff;verticalAlign=top;aspect=fixed;imageAspect=0;image=data:image/svg+xml,PHN2ZyB4bWxucz0iaHR0cDovL3d3dy53My5vcmcvMjAwMC9zdmciIHZpZXdCb3g9IjAgMCA0MC43MSAzNi44NCI+PGRlZnM+PHN0eWxlPi5jbHMtMXtmaWxsOiNmZmY7c3Ryb2tlOiMyMzE4MTU7c3Ryb2tlLXdpZHRoOjAuNzhweDt9LmNscy0xLC5jbHMtNHtzdHJva2UtbWl0ZXJsaW1pdDoxMDt9LmNscy0ye2ZpbGw6I2VmZWZlZjt9LmNscy0ze2ZpbGw6I2RjZGRkZDt9LmNscy00e2ZpbGw6bm9uZTtzdHJva2U6Z3JheTtzdHJva2Utd2lkdGg6MC42OHB4O308L3N0eWxlPjwvZGVmcz48dGl0bGU+6LWE5rqQIDE4PC90aXRsZT48ZyBpZD0i5Zu+5bGCXzIiIGRhdGEtbmFtZT0i5Zu+5bGCIDIiPjxnIGlkPSLlm77lsYJfMS0yIiBkYXRhLW5hbWU9IuWbvuWxgiAxIj48cG9seWdvbiBjbGFzcz0iY2xzLTEiIHBvaW50cz0iNDAuMzEgMTIuODYgMjAuMzYgMC40NiAwLjQgMTIuODYgMC4zOSAyNC4wNSAyMC4zNCAzNi40NiAyMC4zNyAzNi40NiA0MC4zMyAyNC4wNSA0MC4zMSAxMi44NiIvPjxwb2x5Z29uIGNsYXNzPSJjbHMtMiIgcG9pbnRzPSIyMC40IDM2LjQzIDAuNDUgMjQuMDIgMC40NiAxMi44NCAyMC40MiAyNS4yNCAyMC40IDM2LjQzIi8+PHBvbHlnb24gY2xhc3M9ImNscy0zIiBwb2ludHM9IjIwLjQzIDM2LjQzIDQwLjM4IDI0LjAyIDQwLjM3IDEyLjg0IDIwLjQyIDI1LjI0IDIwLjQzIDM2LjQzIi8+PHBvbHlnb24gY2xhc3M9ImNscy00IiBwb2ludHM9IjQwLjMxIDEyLjg2IDIwLjM2IDAuNDYgMC40IDEyLjg2IDAuMzkgMjQuMDUgMjAuMzQgMzYuNDYgMjAuMzcgMzYuNDYgNDAuMzMgMjQuMDUgNDAuMzEgMTIuODYiLz48L2c+PC9nPjwvc3ZnPg==;fontStyle=1" parent="-wsc2XBUxjwpWOjfPmOZ-121" vertex="1">
          <mxGeometry x="1.0000000000001137" width="90" height="81.22" as="geometry" />
        </mxCell>
        <mxCell id="-wsc2XBUxjwpWOjfPmOZ-124" value="" style="shape=image;verticalLabelPosition=bottom;verticalAlign=top;imageAspect=0;image=data:image/svg+xml,PHN2ZyB3aWR0aD0iMjMuMDcwMzEyNSIgaGVpZ2h0PSIyNC4xODc1IiB4bWxucz0iaHR0cDovL3d3dy53My5vcmcvMjAwMC9zdmciIHhtbG5zOnhsaW5rPSJodHRwOi8vd3d3LnczLm9yZy8xOTk5L3hsaW5rIiBvdmVyZmxvdz0iaGlkZGVuIiB2aWV3Qm94PSIyLjEyMTA5Mzc1IDIuMTI1IDIzLjA3MDMxMjUgMjQuMTg3NSI+PGRlZnM+PGNsaXBQYXRoIGlkPSJjbGlwMCI+PHJlY3QgeD0iMTE1NiIgeT0iNDM4IiB3aWR0aD0iMjkiIGhlaWdodD0iMjkiLz48L2NsaXBQYXRoPjxjbGlwUGF0aCBpZD0iY2xpcDEiPjxyZWN0IHg9IjExNTciIHk9IjQzOSIgd2lkdGg9IjI3IiBoZWlnaHQ9IjI3Ii8+PC9jbGlwUGF0aD48Y2xpcFBhdGggaWQ9ImNsaXAyIj48cmVjdCB4PSIxMTU3IiB5PSI0MzkiIHdpZHRoPSIyNyIgaGVpZ2h0PSIyNyIvPjwvY2xpcFBhdGg+PGNsaXBQYXRoIGlkPSJjbGlwMyI+PHJlY3QgeD0iMTE1NyIgeT0iNDM5IiB3aWR0aD0iMjciIGhlaWdodD0iMjciLz48L2NsaXBQYXRoPjwvZGVmcz48ZyBjbGlwLXBhdGg9InVybCgjY2xpcDApIiB0cmFuc2Zvcm09InRyYW5zbGF0ZSgtMTE1NiAtNDM4KSI+PGcgY2xpcC1wYXRoPSJ1cmwoI2NsaXAxKSI+PGcgY2xpcC1wYXRoPSJ1cmwoI2NsaXAyKSI+PGcgY2xpcC1wYXRoPSJ1cmwoI2NsaXAzKSI+PHBhdGggZD0iTTExNzUuNTYgNDY0LjMxMiAxMTc1LjU2IDQ2NC4zMTIgMTE3NS41NiA0NjQuMzEyIDExNzUuNTYgNDY0LjMxMiAxMTc1LjU2IDQ2NC4zMTIgMTE2OS45NCA0NjEuMTA2IDExNjkuOTQgNDU5LjgxMiAxMTc1LjU2IDQ2My4wMTkgMTE4MS4xOSA0NTkuODEyIDExODEuMTkgNDYxLjEwNiAxMTc1LjU2IDQ2NC4zMTJaTTExNzUuNTYgNDYxLjUgMTE3NS41NiA0NjEuNSAxMTc1LjU2IDQ2MS41IDExNzUuNTYgNDYxLjUgMTE2OS45NCA0NTguMjM3IDExNjkuOTQgNDU2Ljk0NCAxMTc1LjU2IDQ2MC4xNSAxMTgxLjE5IDQ1Ni45NDQgMTE4MS4xOSA0NTguMjM3IDExNzUuNTYgNDYxLjUgMTE3NS41NiA0NjEuNVpNMTE3NS41NiA0NTguNjg4IDExNzUuNTYgNDU4LjY4OCAxMTc1LjU2IDQ1OC42ODggMTE3NS41NiA0NTguNjg4IDExNjkuOTQgNDU1LjQyNSAxMTY5Ljk0IDQ1NC4wMTkgMTE3NS41NiA0NTAuODEyIDExNzUuNTYgNDUwLjgxMiAxMTc1LjU2IDQ1MC44MTIgMTE3NS41NiA0NTAuODEyIDExNzUuNTYgNDUwLjgxMiAxMTgxLjE5IDQ1NC4wMTkgMTE4MS4xOSA0NTUuNDI1IDExNzUuNTYgNDU4LjY4OCAxMTc1LjU2IDQ1OC42ODhaTTExNzUuNTYgNDUyLjE2MyAxMTcxLjAxIDQ1NC43NSAxMTc1LjU2IDQ1Ny4zMzcgMTE4MC4xMiA0NTQuNzUgMTE3NS41NiA0NTIuMTYzWk0xMTc4LjM4IDQ0Ni41OTRDMTE3Ni42MyA0NDguMDU2IDExNzMuMDMgNDQ5LjA2OSAxMTY4LjgxIDQ0OS4wNjkgMTE2NC41OSA0NDkuMDY5IDExNjAuOTkgNDQ4LjA1NiAxMTU5LjI1IDQ0Ni41OTRMMTE1OS4yNSA0NDkuNjg4QzExNTkuMjUgNDUwLjcgMTE2Mi41MSA0NTIuNzI1IDExNjcuNjkgNDUzLjAwNkwxMTY3LjY5IDQ1My42MjUgMTE2Ny42OSA0NTQuMTg4QzExNjMuOTcgNDU0LjAxOSAxMTYwLjgyIDQ1Mi45NSAxMTU5LjI1IDQ1MS42TDExNTkuMjUgNDU0Ljc1QzExNTkuMjUgNDU1LjgxOSAxMTYyLjUxIDQ1Ny44NDQgMTE2Ny42OSA0NTguMDY5TDExNjcuNjkgNDU5LjE5NEMxMTYzLjk3IDQ1OS4wMjUgMTE2MC44MiA0NTcuOTU2IDExNTkuMjUgNDU2LjYwNkwxMTU5LjI1IDQ1OS44MTJDMTE1OS4yNSA0NjAuOTM4IDExNjIuOTYgNDYzLjE4OCAxMTY4LjgxIDQ2My4xODggMTE2OS4zOCA0NjMuMTg4IDExNjkuODggNDYzLjE4OCAxMTcwLjMzIDQ2My4xMzFMMTE3MS43OSA0NjQuMDg3QzExNzAuODkgNDY0LjI1NiAxMTY5Ljg4IDQ2NC4zMTIgMTE2OC44MSA0NjQuMzEyIDExNjIuOTEgNDY0LjMxMiAxMTU4LjEyIDQ2Mi4wNjIgMTE1OC4xMiA0NTkuODEyTDExNTguMTIgNDQ0LjY4MSAxMTU4LjEyIDQ0NC4wNjJDMTE1OC43NCA0NDEuODEyIDExNjMuMyA0NDAuMTI1IDExNjguODEgNDQwLjEyNSAxMTc0LjcyIDQ0MC4xMjUgMTE3OS41IDQ0Mi4xNSAxMTc5LjUgNDQ0LjYyNUwxMTc5LjUgNDQ5LjY4OEMxMTc5LjUgNDQ5Ljc0NCAxMTc5LjUgNDQ5LjggMTE3OS41IDQ0OS44NTZMMTE3OS41IDQ1MC44MTIgMTE3OC4zOCA0NTAuMDgxIDExNzguMzggNDQ2LjU5NFpNMTE2OC44MSA0NDEuMjVDMTE2My4wMiA0NDEuMjUgMTE1OS4yNSA0NDMuMjE5IDExNTkuMjUgNDQ0LjYyNSAxMTU5LjI1IDQ0Ni4wMzEgMTE2Mi45NiA0NDggMTE2OC44MSA0NDggMTE3NC42NiA0NDggMTE3OC4zOCA0NDUuOTc1IDExNzguMzggNDQ0LjYyNSAxMTc4LjM4IDQ0My4yNzUgMTE3NC42NiA0NDEuMjUgMTE2OC44MSA0NDEuMjVaIiBmaWxsPSIjMDBBNEZGIi8+PC9nPjwvZz48L2c+PC9nPjwvc3ZnPg==;fontFamily=Helvetica;fontSize=20;fontStyle=1" parent="-wsc2XBUxjwpWOjfPmOZ-121" vertex="1">
          <mxGeometry x="29" y="10" width="36" height="36" as="geometry" />
        </mxCell>
        <mxCell id="-wsc2XBUxjwpWOjfPmOZ-125" value="" style="group;fontStyle=1" parent="1" vertex="1" connectable="0">
          <mxGeometry x="1346.5" y="95" width="300.5" height="140" as="geometry" />
        </mxCell>
        <mxCell id="-wsc2XBUxjwpWOjfPmOZ-126" value="" style="shape=card;whiteSpace=wrap;html=1;shadow=0;dashed=1;comic=0;strokeColor=#B3B3B3;gradientColor=none;fontSize=22;direction=east;flipV=0;flipH=1;fillColor=none;perimeterSpacing=1;strokeWidth=2;labelPosition=center;verticalLabelPosition=bottom;align=center;verticalAlign=top;fontStyle=1" parent="-wsc2XBUxjwpWOjfPmOZ-125" vertex="1">
          <mxGeometry width="274" height="140" as="geometry" />
        </mxCell>
        <mxCell id="-wsc2XBUxjwpWOjfPmOZ-127" value="" style="group;fontStyle=1" parent="-wsc2XBUxjwpWOjfPmOZ-125" vertex="1" connectable="0">
          <mxGeometry x="30" y="14" width="100" height="112" as="geometry" />
        </mxCell>
        <mxCell id="-wsc2XBUxjwpWOjfPmOZ-128" value="&lt;font color=&quot;#333333&quot;&gt;&lt;span style=&quot;font-size: 16px&quot;&gt;&lt;span&gt;NAS文件存储&lt;/span&gt;&lt;/span&gt;&lt;/font&gt;" style="rounded=0;whiteSpace=wrap;html=1;shadow=1;comic=0;strokeColor=#E6E6E6;strokeWidth=2;fillColor=#ffffff;gradientColor=none;fontSize=22;fontColor=#FFFFFF;verticalAlign=bottom;fontStyle=1" parent="-wsc2XBUxjwpWOjfPmOZ-127" vertex="1">
          <mxGeometry x="-10" y="82" width="104" height="30" as="geometry" />
        </mxCell>
        <mxCell id="-wsc2XBUxjwpWOjfPmOZ-129" value="" style="shape=image;verticalLabelPosition=bottom;labelBackgroundColor=#ffffff;verticalAlign=top;aspect=fixed;imageAspect=0;image=data:image/svg+xml,PHN2ZyB4bWxucz0iaHR0cDovL3d3dy53My5vcmcvMjAwMC9zdmciIHZpZXdCb3g9IjAgMCA0MC43MSAzNi44NCI+PGRlZnM+PHN0eWxlPi5jbHMtMXtmaWxsOiNmZmY7c3Ryb2tlOiMyMzE4MTU7c3Ryb2tlLXdpZHRoOjAuNzhweDt9LmNscy0xLC5jbHMtNHtzdHJva2UtbWl0ZXJsaW1pdDoxMDt9LmNscy0ye2ZpbGw6I2VmZWZlZjt9LmNscy0ze2ZpbGw6I2RjZGRkZDt9LmNscy00e2ZpbGw6bm9uZTtzdHJva2U6Z3JheTtzdHJva2Utd2lkdGg6MC42OHB4O308L3N0eWxlPjwvZGVmcz48dGl0bGU+6LWE5rqQIDE4PC90aXRsZT48ZyBpZD0i5Zu+5bGCXzIiIGRhdGEtbmFtZT0i5Zu+5bGCIDIiPjxnIGlkPSLlm77lsYJfMS0yIiBkYXRhLW5hbWU9IuWbvuWxgiAxIj48cG9seWdvbiBjbGFzcz0iY2xzLTEiIHBvaW50cz0iNDAuMzEgMTIuODYgMjAuMzYgMC40NiAwLjQgMTIuODYgMC4zOSAyNC4wNSAyMC4zNCAzNi40NiAyMC4zNyAzNi40NiA0MC4zMyAyNC4wNSA0MC4zMSAxMi44NiIvPjxwb2x5Z29uIGNsYXNzPSJjbHMtMiIgcG9pbnRzPSIyMC40IDM2LjQzIDAuNDUgMjQuMDIgMC40NiAxMi44NCAyMC40MiAyNS4yNCAyMC40IDM2LjQzIi8+PHBvbHlnb24gY2xhc3M9ImNscy0zIiBwb2ludHM9IjIwLjQzIDM2LjQzIDQwLjM4IDI0LjAyIDQwLjM3IDEyLjg0IDIwLjQyIDI1LjI0IDIwLjQzIDM2LjQzIi8+PHBvbHlnb24gY2xhc3M9ImNscy00IiBwb2ludHM9IjQwLjMxIDEyLjg2IDIwLjM2IDAuNDYgMC40IDEyLjg2IDAuMzkgMjQuMDUgMjAuMzQgMzYuNDYgMjAuMzcgMzYuNDYgNDAuMzMgMjQuMDUgNDAuMzEgMTIuODYiLz48L2c+PC9nPjwvc3ZnPg==;fontStyle=1" parent="-wsc2XBUxjwpWOjfPmOZ-127" vertex="1">
          <mxGeometry x="1.0000000000001137" width="90" height="81.22" as="geometry" />
        </mxCell>
        <mxCell id="-wsc2XBUxjwpWOjfPmOZ-130" value="" style="shape=image;verticalLabelPosition=bottom;verticalAlign=top;imageAspect=0;image=data:image/svg+xml,PHN2ZyB3aWR0aD0iMjUiIGhlaWdodD0iMjYiIHhtbG5zPSJodHRwOi8vd3d3LnczLm9yZy8yMDAwL3N2ZyIgeG1sbnM6eGxpbms9Imh0dHA6Ly93d3cudzMub3JnLzE5OTkveGxpbmsiIG92ZXJmbG93PSJoaWRkZW4iIHZpZXdCb3g9IjEgMCAyNSAyNiI+PGRlZnM+PGNsaXBQYXRoIGlkPSJjbGlwMCI+PHJlY3QgeD0iMzg1IiB5PSI1NzkiIHdpZHRoPSIyNyIgaGVpZ2h0PSIyNyIvPjwvY2xpcFBhdGg+PGNsaXBQYXRoIGlkPSJjbGlwMSI+PHJlY3QgeD0iMzg2IiB5PSI1NzkiIHdpZHRoPSIyNSIgaGVpZ2h0PSIyNiIvPjwvY2xpcFBhdGg+PGNsaXBQYXRoIGlkPSJjbGlwMiI+PHJlY3QgeD0iMzg2IiB5PSI1NzkiIHdpZHRoPSIyNSIgaGVpZ2h0PSIyNiIvPjwvY2xpcFBhdGg+PGNsaXBQYXRoIGlkPSJjbGlwMyI+PHJlY3QgeD0iMzg2IiB5PSI1NzkiIHdpZHRoPSIyNSIgaGVpZ2h0PSIyNiIvPjwvY2xpcFBhdGg+PC9kZWZzPjxnIGNsaXAtcGF0aD0idXJsKCNjbGlwMCkiIHRyYW5zZm9ybT0idHJhbnNsYXRlKC0zODUgLTU3OSkiPjxnIGNsaXAtcGF0aD0idXJsKCNjbGlwMSkiPjxnIGNsaXAtcGF0aD0idXJsKCNjbGlwMikiPjxnIGNsaXAtcGF0aD0idXJsKCNjbGlwMykiPjxwYXRoIGQ9Ik0yLjQ5OTg5IDE4LjA5OTggNS4xMzQzIDE4LjM5MjYgMi45NTQ4NSAyMC41NzJDLTEuMjA3NzkgMTUuNjYwOC0wLjk3MjM0NCA4LjI5NDY5IDMuNjYxMTcgMy42NjExNyA4LjI5NDY5LTAuOTcyMzQ0IDE1LjY2MDgtMS4yMDc3OSAyMC41NzIgMi45NTQ4NUwxOS44MzI3IDMuNjk0MTlDMTUuMzMwOS0wLjA2MzI0NTggOC42MjQyMiAwLjE3MTI2NyA0LjM5NzczIDQuMzk3NzMgMC42ODU1NDcgOC4xMDk5IDAuMDUyOTMxOCAxMy43MzU1IDIuNDk5ODkgMTguMDk5OFpNMjIuNTAwMSA2LjkwMDE2IDE5Ljg2NTcgNi42MDc0NSAyMi4wNDUyIDQuNDI3OTlDMjYuMjA3OCA5LjMzOTIyIDI1Ljk3MjMgMTYuNzA1MyAyMS4zMzg5IDIxLjMzODkgMTYuNzA1MyAyNS45NzIzIDkuMzM5MjIgMjYuMjA3OCA0LjQyNzk5IDIyLjA0NTJMNS4xNjczMyAyMS4zMDU4QzkuNjY5MDYgMjUuMDYzMiAxNi4zNzU4IDI0LjgyODcgMjAuNjAyMyAyMC42MDIzIDI0LjMxNDQgMTYuODkwMSAyNC45NDcxIDExLjI2NDUgMjIuNTAwMSA2LjkwMDE2WiIgZmlsbD0iIzMzNDk2NiIgdHJhbnNmb3JtPSJtYXRyaXgoMSAwIDAgMS4wNCAzODYgNTc5KSIvPjxwYXRoIGQ9Ik03LjgxMjUgNy44MTI1IDE3LjE4NzUgNy44MTI1IDE3LjE4NzUgOS44OTU4MyA3LjgxMjUgOS44OTU4M1oiIGZpbGw9IiMwMEE0RkYiIGZpbGwtcnVsZT0iZXZlbm9kZCIgdHJhbnNmb3JtPSJtYXRyaXgoMSAwIDAgMS4wNCAzODYgNTc5KSIvPjxwYXRoIGQ9Ik03LjgxMjUgMTEuNDU4MyAxNy4xODc1IDExLjQ1ODMgMTcuMTg3NSAxMy41NDE3IDcuODEyNSAxMy41NDE3WiIgZmlsbD0iIzAwQTRGRiIgZmlsbC1ydWxlPSJldmVub2RkIiB0cmFuc2Zvcm09Im1hdHJpeCgxIDAgMCAxLjA0IDM4NiA1NzkpIi8+PHBhdGggZD0iTTcuODEyNSAxNS4xMDQyIDE3LjE4NzUgMTUuMTA0MiAxNy4xODc1IDE3LjE4NzUgNy44MTI1IDE3LjE4NzVaIiBmaWxsPSIjMDBBNEZGIiBmaWxsLXJ1bGU9ImV2ZW5vZGQiIHRyYW5zZm9ybT0ibWF0cml4KDEgMCAwIDEuMDQgMzg2IDU3OSkiLz48L2c+PC9nPjwvZz48L2c+PC9zdmc+;fontStyle=1" parent="-wsc2XBUxjwpWOjfPmOZ-127" vertex="1">
          <mxGeometry x="27" y="9" width="40" height="40" as="geometry" />
        </mxCell>
        <mxCell id="-wsc2XBUxjwpWOjfPmOZ-131" value="" style="group;fontStyle=1" parent="-wsc2XBUxjwpWOjfPmOZ-125" vertex="1" connectable="0">
          <mxGeometry x="150" y="14" width="110" height="112" as="geometry" />
        </mxCell>
        <mxCell id="-wsc2XBUxjwpWOjfPmOZ-132" value="&lt;font color=&quot;#333333&quot;&gt;&lt;span style=&quot;font-size: 16px&quot;&gt;&lt;span&gt;对象存储COS&lt;/span&gt;&lt;/span&gt;&lt;/font&gt;" style="rounded=0;whiteSpace=wrap;html=1;shadow=1;comic=0;strokeColor=#E6E6E6;strokeWidth=2;fillColor=#ffffff;gradientColor=none;fontSize=22;fontColor=#FFFFFF;verticalAlign=bottom;fontStyle=1" parent="-wsc2XBUxjwpWOjfPmOZ-131" vertex="1">
          <mxGeometry x="-8" y="82" width="110" height="30" as="geometry" />
        </mxCell>
        <mxCell id="-wsc2XBUxjwpWOjfPmOZ-133" value="" style="shape=image;verticalLabelPosition=bottom;labelBackgroundColor=#ffffff;verticalAlign=top;aspect=fixed;imageAspect=0;image=data:image/svg+xml,PHN2ZyB4bWxucz0iaHR0cDovL3d3dy53My5vcmcvMjAwMC9zdmciIHZpZXdCb3g9IjAgMCA0MC43MSAzNi44NCI+PGRlZnM+PHN0eWxlPi5jbHMtMXtmaWxsOiNmZmY7c3Ryb2tlOiMyMzE4MTU7c3Ryb2tlLXdpZHRoOjAuNzhweDt9LmNscy0xLC5jbHMtNHtzdHJva2UtbWl0ZXJsaW1pdDoxMDt9LmNscy0ye2ZpbGw6I2VmZWZlZjt9LmNscy0ze2ZpbGw6I2RjZGRkZDt9LmNscy00e2ZpbGw6bm9uZTtzdHJva2U6Z3JheTtzdHJva2Utd2lkdGg6MC42OHB4O308L3N0eWxlPjwvZGVmcz48dGl0bGU+6LWE5rqQIDE4PC90aXRsZT48ZyBpZD0i5Zu+5bGCXzIiIGRhdGEtbmFtZT0i5Zu+5bGCIDIiPjxnIGlkPSLlm77lsYJfMS0yIiBkYXRhLW5hbWU9IuWbvuWxgiAxIj48cG9seWdvbiBjbGFzcz0iY2xzLTEiIHBvaW50cz0iNDAuMzEgMTIuODYgMjAuMzYgMC40NiAwLjQgMTIuODYgMC4zOSAyNC4wNSAyMC4zNCAzNi40NiAyMC4zNyAzNi40NiA0MC4zMyAyNC4wNSA0MC4zMSAxMi44NiIvPjxwb2x5Z29uIGNsYXNzPSJjbHMtMiIgcG9pbnRzPSIyMC40IDM2LjQzIDAuNDUgMjQuMDIgMC40NiAxMi44NCAyMC40MiAyNS4yNCAyMC40IDM2LjQzIi8+PHBvbHlnb24gY2xhc3M9ImNscy0zIiBwb2ludHM9IjIwLjQzIDM2LjQzIDQwLjM4IDI0LjAyIDQwLjM3IDEyLjg0IDIwLjQyIDI1LjI0IDIwLjQzIDM2LjQzIi8+PHBvbHlnb24gY2xhc3M9ImNscy00IiBwb2ludHM9IjQwLjMxIDEyLjg2IDIwLjM2IDAuNDYgMC40IDEyLjg2IDAuMzkgMjQuMDUgMjAuMzQgMzYuNDYgMjAuMzcgMzYuNDYgNDAuMzMgMjQuMDUgNDAuMzEgMTIuODYiLz48L2c+PC9nPjwvc3ZnPg==;fontStyle=1" parent="-wsc2XBUxjwpWOjfPmOZ-131" vertex="1">
          <mxGeometry x="1.0000000000001137" width="90" height="81.22" as="geometry" />
        </mxCell>
        <mxCell id="-wsc2XBUxjwpWOjfPmOZ-134" value="" style="shape=image;verticalLabelPosition=bottom;verticalAlign=top;imageAspect=0;image=data:image/svg+xml,PHN2ZyB3aWR0aD0iMjQuNzUiIGhlaWdodD0iMjciIHhtbG5zPSJodHRwOi8vd3d3LnczLm9yZy8yMDAwL3N2ZyIgeG1sbnM6eGxpbms9Imh0dHA6Ly93d3cudzMub3JnLzE5OTkveGxpbmsiIG92ZXJmbG93PSJoaWRkZW4iIHZpZXdCb3g9IjIuMTI1IDEgMjQuNzUgMjciPjxkZWZzPjxjbGlwUGF0aCBpZD0iY2xpcDAiPjxyZWN0IHg9IjI2OCIgeT0iMzE1IiB3aWR0aD0iMjkiIGhlaWdodD0iMjgiLz48L2NsaXBQYXRoPjxjbGlwUGF0aCBpZD0iY2xpcDEiPjxyZWN0IHg9IjI2OSIgeT0iMzE2IiB3aWR0aD0iMjciIGhlaWdodD0iMjciLz48L2NsaXBQYXRoPjxjbGlwUGF0aCBpZD0iY2xpcDIiPjxyZWN0IHg9IjI2OSIgeT0iMzE2IiB3aWR0aD0iMjciIGhlaWdodD0iMjciLz48L2NsaXBQYXRoPjxjbGlwUGF0aCBpZD0iY2xpcDMiPjxyZWN0IHg9IjI2OSIgeT0iMzE2IiB3aWR0aD0iMjciIGhlaWdodD0iMjciLz48L2NsaXBQYXRoPjwvZGVmcz48ZyBjbGlwLXBhdGg9InVybCgjY2xpcDApIiB0cmFuc2Zvcm09InRyYW5zbGF0ZSgtMjY4IC0zMTUpIj48ZyBjbGlwLXBhdGg9InVybCgjY2xpcDEpIj48ZyBjbGlwLXBhdGg9InVybCgjY2xpcDIpIj48ZyBjbGlwLXBhdGg9InVybCgjY2xpcDMpIj48cGF0aCBkPSJNMjgyLjUgMzIyLjc1IDI3Ni4zMTIgMzI2LjEyNSAyNzYuMzEyIDMzMi44NzUgMjgyLjUgMzM2LjI1IDI4OC42ODggMzMyLjg3NSAyODguNjg4IDMyNi4xMjUgMjgyLjUgMzIyLjc1Wk0yODcuNTYyIDMzMi4yNTYgMjgyLjUgMzM1LjAxMyAyNzcuNDM4IDMzMi4yNTYgMjc3LjQzOCAzMjYuNzQ0IDI4Mi41IDMyMy45ODcgMjg3LjU2MiAzMjYuNzQ0IDI4Ny41NjIgMzMyLjI1NloiIGZpbGw9IiMwMEE0RkYiLz48cGF0aCBkPSJNMjg3LjU2MiAzMjYuNTE5IDI4Mi41IDMyOS4zMzEgMjc3LjQzOCAzMjYuNTE5IDI3Ny40MzggMzI3LjgxMiAyODIuNSAzMzAuNjI1IDI4Ny41NjIgMzI3LjgxMloiIGZpbGw9IiMwMEE0RkYiLz48cGF0aCBkPSJNMjgxLjkzOCAzMjkuNSAyODMuMDYyIDMyOS41IDI4My4wNjIgMzM1LjY4OCAyODEuOTM4IDMzNS42ODhaIiBmaWxsPSIjMDBBNEZGIi8+PHBhdGggZD0iTTI5My43NSAzMjYuNzQ0IDI5My43NSAzMzUuNjMxIDI4Mi41IDM0MS43NjMgMjcxLjI1IDMzNS42MzEgMjcxLjI1IDMyMy4zNjkgMjgyLjUgMzE3LjIzNyAyOTMuNzUgMzIzLjM2OSAyOTMuNzUgMzIzLjM2OSAyOTQuODc1IDMyMi43NSAyOTQuODc1IDMyMi43NSAyODIuNSAzMTYgMjcwLjEyNSAzMjIuNzUgMjcwLjEyNSAzMzYuMjUgMjgyLjUgMzQzIDI5NC44NzUgMzM2LjI1IDI5NC44NzUgMzI2LjEyNVoiIGZpbGw9IiMwMEE0RkYiLz48L2c+PC9nPjwvZz48L2c+PC9zdmc+;fontStyle=1" parent="-wsc2XBUxjwpWOjfPmOZ-131" vertex="1">
          <mxGeometry x="26" y="8" width="40" height="40" as="geometry" />
        </mxCell>
        <mxCell id="-wsc2XBUxjwpWOjfPmOZ-145" value="" style="group;fontStyle=1" parent="1" vertex="1" connectable="0">
          <mxGeometry x="675" y="-228.1099999999999" width="245" height="140.11" as="geometry" />
        </mxCell>
        <mxCell id="-wsc2XBUxjwpWOjfPmOZ-85" value="" style="shape=card;whiteSpace=wrap;html=1;shadow=0;dashed=1;comic=0;strokeColor=#B3B3B3;gradientColor=none;fontSize=22;direction=east;flipV=0;flipH=1;fillColor=none;perimeterSpacing=1;strokeWidth=2;labelPosition=center;verticalLabelPosition=bottom;align=center;verticalAlign=top;fontStyle=1" parent="-wsc2XBUxjwpWOjfPmOZ-145" vertex="1">
          <mxGeometry width="245" height="140.11" as="geometry" />
        </mxCell>
        <mxCell id="-wsc2XBUxjwpWOjfPmOZ-88" value="" style="group;fontStyle=1" parent="-wsc2XBUxjwpWOjfPmOZ-145" vertex="1" connectable="0">
          <mxGeometry x="21" y="10.110000000000014" width="120" height="112" as="geometry" />
        </mxCell>
        <mxCell id="-wsc2XBUxjwpWOjfPmOZ-89" value="&lt;font color=&quot;#333333&quot;&gt;&lt;span style=&quot;font-size: 16px&quot;&gt;&lt;span&gt;web应用防火墙&lt;/span&gt;&lt;/span&gt;&lt;/font&gt;" style="rounded=0;whiteSpace=wrap;html=1;shadow=1;comic=0;strokeColor=#E6E6E6;strokeWidth=2;fillColor=#ffffff;gradientColor=none;fontSize=22;fontColor=#FFFFFF;verticalAlign=bottom;fontStyle=1" parent="-wsc2XBUxjwpWOjfPmOZ-88" vertex="1">
          <mxGeometry x="-12" y="82" width="120" height="30" as="geometry" />
        </mxCell>
        <mxCell id="-wsc2XBUxjwpWOjfPmOZ-90" value="" style="shape=image;verticalLabelPosition=bottom;labelBackgroundColor=#ffffff;verticalAlign=top;aspect=fixed;imageAspect=0;image=data:image/svg+xml,PHN2ZyB4bWxucz0iaHR0cDovL3d3dy53My5vcmcvMjAwMC9zdmciIHZpZXdCb3g9IjAgMCA0MC43MSAzNi44NCI+PGRlZnM+PHN0eWxlPi5jbHMtMXtmaWxsOiNmZmY7c3Ryb2tlOiMyMzE4MTU7c3Ryb2tlLXdpZHRoOjAuNzhweDt9LmNscy0xLC5jbHMtNHtzdHJva2UtbWl0ZXJsaW1pdDoxMDt9LmNscy0ye2ZpbGw6I2VmZWZlZjt9LmNscy0ze2ZpbGw6I2RjZGRkZDt9LmNscy00e2ZpbGw6bm9uZTtzdHJva2U6Z3JheTtzdHJva2Utd2lkdGg6MC42OHB4O308L3N0eWxlPjwvZGVmcz48dGl0bGU+6LWE5rqQIDE4PC90aXRsZT48ZyBpZD0i5Zu+5bGCXzIiIGRhdGEtbmFtZT0i5Zu+5bGCIDIiPjxnIGlkPSLlm77lsYJfMS0yIiBkYXRhLW5hbWU9IuWbvuWxgiAxIj48cG9seWdvbiBjbGFzcz0iY2xzLTEiIHBvaW50cz0iNDAuMzEgMTIuODYgMjAuMzYgMC40NiAwLjQgMTIuODYgMC4zOSAyNC4wNSAyMC4zNCAzNi40NiAyMC4zNyAzNi40NiA0MC4zMyAyNC4wNSA0MC4zMSAxMi44NiIvPjxwb2x5Z29uIGNsYXNzPSJjbHMtMiIgcG9pbnRzPSIyMC40IDM2LjQzIDAuNDUgMjQuMDIgMC40NiAxMi44NCAyMC40MiAyNS4yNCAyMC40IDM2LjQzIi8+PHBvbHlnb24gY2xhc3M9ImNscy0zIiBwb2ludHM9IjIwLjQzIDM2LjQzIDQwLjM4IDI0LjAyIDQwLjM3IDEyLjg0IDIwLjQyIDI1LjI0IDIwLjQzIDM2LjQzIi8+PHBvbHlnb24gY2xhc3M9ImNscy00IiBwb2ludHM9IjQwLjMxIDEyLjg2IDIwLjM2IDAuNDYgMC40IDEyLjg2IDAuMzkgMjQuMDUgMjAuMzQgMzYuNDYgMjAuMzcgMzYuNDYgNDAuMzMgMjQuMDUgNDAuMzEgMTIuODYiLz48L2c+PC9nPjwvc3ZnPg==;fontStyle=1" parent="-wsc2XBUxjwpWOjfPmOZ-88" vertex="1">
          <mxGeometry x="1.0000000000001137" width="90" height="81.22" as="geometry" />
        </mxCell>
        <mxCell id="-wsc2XBUxjwpWOjfPmOZ-91" value="" style="shape=image;verticalLabelPosition=bottom;verticalAlign=top;imageAspect=0;image=data:image/svg+xml,PHN2ZyB3aWR0aD0iMjMuMzM5ODQzNzUiIGhlaWdodD0iMjQuNzc3MzQzNzUiIHhtbG5zPSJodHRwOi8vd3d3LnczLm9yZy8yMDAwL3N2ZyIgeG1sbnM6eGxpbms9Imh0dHA6Ly93d3cudzMub3JnLzE5OTkveGxpbmsiIG92ZXJmbG93PSJoaWRkZW4iIHZpZXdCb3g9IjIuNzY5NTMxMjUgMi4xMjUgMjMuMzM5ODQzNzUgMjQuNzc3MzQzNzUiPjxkZWZzPjxjbGlwUGF0aCBpZD0iY2xpcDAiPjxyZWN0IHg9IjcxMSIgeT0iNDY1IiB3aWR0aD0iMjgiIGhlaWdodD0iMjkiLz48L2NsaXBQYXRoPjxjbGlwUGF0aCBpZD0iY2xpcDEiPjxyZWN0IHg9IjcxMSIgeT0iNDY2IiB3aWR0aD0iMjgiIGhlaWdodD0iMjciLz48L2NsaXBQYXRoPjxjbGlwUGF0aCBpZD0iY2xpcDIiPjxyZWN0IHg9IjcxMSIgeT0iNDY2IiB3aWR0aD0iMjgiIGhlaWdodD0iMjciLz48L2NsaXBQYXRoPjxjbGlwUGF0aCBpZD0iY2xpcDMiPjxyZWN0IHg9IjcxMSIgeT0iNDY2IiB3aWR0aD0iMjgiIGhlaWdodD0iMjciLz48L2NsaXBQYXRoPjwvZGVmcz48ZyBjbGlwLXBhdGg9InVybCgjY2xpcDApIiB0cmFuc2Zvcm09InRyYW5zbGF0ZSgtNzExIC00NjUpIj48ZyBjbGlwLXBhdGg9InVybCgjY2xpcDEpIj48ZyBjbGlwLXBhdGg9InVybCgjY2xpcDIpIj48ZyBjbGlwLXBhdGg9InVybCgjY2xpcDMpIj48cGF0aCBkPSJNMTMuOTMwOSAyNS45MDA5IDEzLjc2NTUgMjUuODUxNEMyLjIxNCAyMi4zODU4IDIuNjUzODcgMTQuODk4OSAyLjY3ODA2IDE0LjU4MTdMMi42NzYzNyAxLjEyNSAyNC44OTA2IDEuMTI1IDI0Ljg5MDYgMi4yNSAzLjgwMTM3IDIuMjUgMy44MDEzNyAxNC42MjVDMy43ODExMyAxNC45NDUxIDMuNDUzMTkgMjEuNTEyOCAxMy45MjE5IDI0LjcyMzYgMjMuOTM0OSAyMS40ODgxIDI0LjA1MTQgMTQuNjkzNiAyNC4wNTE0IDE0LjYyNUwyNC4wNTE0IDUuNjI1IDI1LjE3NjQgNS42MjUgMjUuMTc2NCAxNC42MjVDMjUuMTc2NCAxNC45NDA2IDI1LjA1MDQgMjIuMzg5OCAxNC4wOTYyIDI1Ljg0ODZMMTMuOTMwOSAyNS45MDA5WiIgZmlsbD0iIzAwQTRGRiIgdHJhbnNmb3JtPSJtYXRyaXgoMS4wMzcwNCAwIDAgMSA3MTEgNDY2KSIvPjxwYXRoIGQ9Ik0xMC42OTI2IDE1LjI1NDQgNy44ODczOCAxNS4yNTQ0QzcuMjk3MzEgMTUuMjU0NCA2LjgxNjk0IDE0Ljc3NDEgNi44MTY5NCAxNC4xODRMNi44MTY5NCA3LjkyNjc1IDcuOTQxOTQgNy45MjY3NSA3Ljk0MTk0IDE0LjEyOTQgMTAuNjM3NCAxNC4xMjk0IDEwLjYzNzQgNy45MjY3NSAxMS43NjI0IDcuOTI2NzUgMTEuNzYyNCAxNC4xODRDMTEuNzYzIDE0Ljc3NDYgMTEuMjgzMiAxNS4yNTQ0IDEwLjY5MjYgMTUuMjU0NFoiIGZpbGw9IiMwMEE0RkYiIHRyYW5zZm9ybT0ibWF0cml4KDEuMDM3MDQgMCAwIDEgNzExIDQ2NikiLz48cGF0aCBkPSJNMTYuMDU2NiAxNS4yNTQ0IDEzLjc1OTkgMTUuMjU0NEMxMy4xNjk4IDE1LjI1NDQgMTIuNjg5NCAxNC43NzQxIDEyLjY4OTQgMTQuMTg0TDEyLjY4OTQgOC45NDI2M0MxMi42ODk0IDguMzUyNTYgMTMuMTY5OCA3Ljg3MjE5IDEzLjc1OTkgNy44NzIxOUwxNi4wNTY2IDcuODcyMTkgMTYuMDU2NiA4Ljk5NzE5IDEzLjgxNDQgOC45OTcxOSAxMy44MTQ0IDE0LjEzIDE2LjA1NjYgMTQuMTMgMTYuMDU2NiAxNS4yNTQ0WiIgZmlsbD0iIzAwQTRGRiIgdHJhbnNmb3JtPSJtYXRyaXgoMS4wMzcwNCAwIDAgMSA3MTEgNDY2KSIvPjxwYXRoIGQ9Ik0yMC4wMTgzIDE1LjIyMjQgMTcuNzIxNiAxNS4yMjI0IDE3LjcyMTYgMTQuMDk3NCAxOS45NjM3IDE0LjA5NzQgMTkuOTYzNyA4Ljk2NDU2IDE3LjcyMTYgOC45NjQ1NiAxNy43MjE2IDcuODM5NTYgMjAuMDE4MyA3LjgzOTU2QzIwLjYwODkgNy44Mzk1NiAyMS4wODg3IDguMzE5OTQgMjEuMDg4NyA4LjkxTDIxLjA4ODcgMTQuMTUxNEMyMS4wODg3IDE0Ljc0MjYgMjAuNjA4OSAxNS4yMjI0IDIwLjAxODMgMTUuMjIyNFoiIGZpbGw9IiMwMEE0RkYiIHRyYW5zZm9ybT0ibWF0cml4KDEuMDM3MDQgMCAwIDEgNzExIDQ2NikiLz48cGF0aCBkPSJNMTYuOTE1NSA3Ljg0Njg3IDE4LjA0MDUgNy44NDY4NyAxOC4wNDA1IDE1LjIxNTYgMTYuOTE1NSAxNS4yMTU2WiIgZmlsbD0iIzAwQTRGRiIgdHJhbnNmb3JtPSJtYXRyaXgoMS4wMzcwNCAwIDAgMSA3MTEgNDY2KSIvPjxwYXRoIGQ9Ik0xMy40MTQ1IDExLjA4MTggMTUuOTU0MiAxMS4wODE4IDE1Ljk1NDIgMTIuMjA2OCAxMy40MTQ1IDEyLjIwNjhaIiBmaWxsPSIjMDBBNEZGIiB0cmFuc2Zvcm09Im1hdHJpeCgxLjAzNzA0IDAgMCAxIDcxMSA0NjYpIi8+PHBhdGggZD0iTTE3LjQ3OCAxMC45MjgyIDIwLjUyNjIgMTAuOTI4MiAyMC41MjYyIDEyLjA1MzIgMTcuNDc4IDEyLjA1MzJaIiBmaWxsPSIjMDBBNEZGIiB0cmFuc2Zvcm09Im1hdHJpeCgxLjAzNzA0IDAgMCAxIDcxMSA0NjYpIi8+PHBhdGggZD0iTTguNzI3NzUgNy44NzUgOS44NTI3NSA3Ljg3NSA5Ljg1Mjc1IDE0LjQ3ODIgOC43Mjc3NSAxNC40NzgyWiIgZmlsbD0iIzAwQTRGRiIgdHJhbnNmb3JtPSJtYXRyaXgoMS4wMzcwNCAwIDAgMSA3MTEgNDY2KSIvPjwvZz48L2c+PC9nPjwvZz48L3N2Zz4=;fontStyle=1" parent="-wsc2XBUxjwpWOjfPmOZ-88" vertex="1">
          <mxGeometry x="26" y="13" width="38" height="38" as="geometry" />
        </mxCell>
        <mxCell id="-wsc2XBUxjwpWOjfPmOZ-92" value="" style="group;fontStyle=1" parent="-wsc2XBUxjwpWOjfPmOZ-145" vertex="1" connectable="0">
          <mxGeometry x="140" y="9.110000000000014" width="92" height="112" as="geometry" />
        </mxCell>
        <mxCell id="-wsc2XBUxjwpWOjfPmOZ-93" value="&lt;font color=&quot;#333333&quot;&gt;&lt;span style=&quot;font-size: 16px&quot;&gt;&lt;span&gt;SSL证书&lt;/span&gt;&lt;/span&gt;&lt;/font&gt;" style="rounded=0;whiteSpace=wrap;html=1;shadow=1;comic=0;strokeColor=#E6E6E6;strokeWidth=2;fillColor=#ffffff;gradientColor=none;fontSize=22;fontColor=#FFFFFF;verticalAlign=bottom;fontStyle=1" parent="-wsc2XBUxjwpWOjfPmOZ-92" vertex="1">
          <mxGeometry y="82" width="92" height="30" as="geometry" />
        </mxCell>
        <mxCell id="-wsc2XBUxjwpWOjfPmOZ-94" value="" style="shape=image;verticalLabelPosition=bottom;labelBackgroundColor=#ffffff;verticalAlign=top;aspect=fixed;imageAspect=0;image=data:image/svg+xml,PHN2ZyB4bWxucz0iaHR0cDovL3d3dy53My5vcmcvMjAwMC9zdmciIHZpZXdCb3g9IjAgMCA0MC43MSAzNi44NCI+PGRlZnM+PHN0eWxlPi5jbHMtMXtmaWxsOiNmZmY7c3Ryb2tlOiMyMzE4MTU7c3Ryb2tlLXdpZHRoOjAuNzhweDt9LmNscy0xLC5jbHMtNHtzdHJva2UtbWl0ZXJsaW1pdDoxMDt9LmNscy0ye2ZpbGw6I2VmZWZlZjt9LmNscy0ze2ZpbGw6I2RjZGRkZDt9LmNscy00e2ZpbGw6bm9uZTtzdHJva2U6Z3JheTtzdHJva2Utd2lkdGg6MC42OHB4O308L3N0eWxlPjwvZGVmcz48dGl0bGU+6LWE5rqQIDE4PC90aXRsZT48ZyBpZD0i5Zu+5bGCXzIiIGRhdGEtbmFtZT0i5Zu+5bGCIDIiPjxnIGlkPSLlm77lsYJfMS0yIiBkYXRhLW5hbWU9IuWbvuWxgiAxIj48cG9seWdvbiBjbGFzcz0iY2xzLTEiIHBvaW50cz0iNDAuMzEgMTIuODYgMjAuMzYgMC40NiAwLjQgMTIuODYgMC4zOSAyNC4wNSAyMC4zNCAzNi40NiAyMC4zNyAzNi40NiA0MC4zMyAyNC4wNSA0MC4zMSAxMi44NiIvPjxwb2x5Z29uIGNsYXNzPSJjbHMtMiIgcG9pbnRzPSIyMC40IDM2LjQzIDAuNDUgMjQuMDIgMC40NiAxMi44NCAyMC40MiAyNS4yNCAyMC40IDM2LjQzIi8+PHBvbHlnb24gY2xhc3M9ImNscy0zIiBwb2ludHM9IjIwLjQzIDM2LjQzIDQwLjM4IDI0LjAyIDQwLjM3IDEyLjg0IDIwLjQyIDI1LjI0IDIwLjQzIDM2LjQzIi8+PHBvbHlnb24gY2xhc3M9ImNscy00IiBwb2ludHM9IjQwLjMxIDEyLjg2IDIwLjM2IDAuNDYgMC40IDEyLjg2IDAuMzkgMjQuMDUgMjAuMzQgMzYuNDYgMjAuMzcgMzYuNDYgNDAuMzMgMjQuMDUgNDAuMzEgMTIuODYiLz48L2c+PC9nPjwvc3ZnPg==;fontStyle=1" parent="-wsc2XBUxjwpWOjfPmOZ-92" vertex="1">
          <mxGeometry x="1.0000000000001137" width="90" height="81.22" as="geometry" />
        </mxCell>
        <mxCell id="-wsc2XBUxjwpWOjfPmOZ-95" value="" style="shape=image;verticalLabelPosition=bottom;verticalAlign=top;imageAspect=0;image=data:image/svg+xml,PHN2ZyB3aWR0aD0iMjIuNSIgaGVpZ2h0PSIyNC43NSIgeG1sbnM9Imh0dHA6Ly93d3cudzMub3JnLzIwMDAvc3ZnIiB4bWxuczp4bGluaz0iaHR0cDovL3d3dy53My5vcmcvMTk5OS94bGluayIgb3ZlcmZsb3c9ImhpZGRlbiIgdmlld0JveD0iMi4yNSAyLjEyNSAyMi41IDI0Ljc1Ij48ZGVmcz48Y2xpcFBhdGggaWQ9ImNsaXAwIj48cmVjdCB4PSI3MTEiIHk9IjUwMyIgd2lkdGg9IjI4IiBoZWlnaHQ9IjI5Ii8+PC9jbGlwUGF0aD48Y2xpcFBhdGggaWQ9ImNsaXAxIj48cmVjdCB4PSI3MTEiIHk9IjUwNCIgd2lkdGg9IjI3IiBoZWlnaHQ9IjI3Ii8+PC9jbGlwUGF0aD48Y2xpcFBhdGggaWQ9ImNsaXAyIj48cmVjdCB4PSI3MTEiIHk9IjUwNCIgd2lkdGg9IjI3IiBoZWlnaHQ9IjI3Ii8+PC9jbGlwUGF0aD48Y2xpcFBhdGggaWQ9ImNsaXAzIj48cmVjdCB4PSI3MTEiIHk9IjUwNCIgd2lkdGg9IjI3IiBoZWlnaHQ9IjI3Ii8+PC9jbGlwUGF0aD48L2RlZnM+PGcgY2xpcC1wYXRoPSJ1cmwoI2NsaXAwKSIgdHJhbnNmb3JtPSJ0cmFuc2xhdGUoLTcxMSAtNTAzKSI+PGcgY2xpcC1wYXRoPSJ1cmwoI2NsaXAxKSI+PGcgY2xpcC1wYXRoPSJ1cmwoI2NsaXAyKSI+PGcgY2xpcC1wYXRoPSJ1cmwoI2NsaXAzKSI+PHBhdGggZD0iTTczNC42MjUgNTA5LjYyNSA3MzQuNjI1IDUxOC4wNjJDNzM0LjYyNSA1MTguMTE5IDczNC40NTYgNTI2LjI3NSA3MjQuNSA1MjguNjk0IDcxNC42NTYgNTI2LjMzMSA3MTQuMzc1IDUxOC40IDcxNC4zNzUgNTE4LjExOUw3MTQuMzc1IDUwNi4yNSA3MzQuMDYyIDUwNi4yNSA3MzQuNjI1IDUwNi4yNSA3MzUuNzUgNTA2LjI1IDczNS43NSA1MDUuMTI1IDcxMy4yNSA1MDUuMTI1IDcxMy4yNSA1MTguMTE5QzcxMy4yNSA1MTguMTE5IDcxMy4zNjIgNTI3LjM0NCA3MjQuNSA1MjkuODc1IDczNS42MzggNTI3LjI4NyA3MzUuNzUgNTE4LjExOSA3MzUuNzUgNTE4LjExOUw3MzUuNzUgNTA5LjYyNSA3MzQuNjI1IDUwOS42MjVaIiBmaWxsPSIjMDBBNEZGIi8+PHBhdGggZD0iTTcyNC41IDUxMC45MTkgNzI5LjU2MiA1MTMuNjc1IDcyOS41NjIgNTE5LjA3NSA3MjQuNSA1MjEuODMxIDcxOS40MzggNTE5LjA3NSA3MTkuNDM4IDUxMy42NzUgNzI0LjUgNTEwLjkxOU03MjQuNSA1MDkuNjI1IDcxOC4zMTIgNTEzLjA1NiA3MTguMzEyIDUxOS43NSA3MjQuNSA1MjMuMTI1IDczMC42ODggNTE5Ljc1IDczMC42ODggNTEzIDcyNC41IDUwOS42MjUgNzI0LjUgNTA5LjYyNVoiIGZpbGw9IiMwMEE0RkYiLz48cGF0aCBkPSJNNzI1LjA2MiA1MTYuMzc1IDcyMy45MzggNTE2LjM3NSA3MjMuOTM4IDUyMiA3MjUuMDYyIDUyMiA3MjUuMDYyIDUxNi4zNzVaIiBmaWxsPSIjMDBBNEZGIi8+PHBhdGggZD0iTTcyOS41NjIgNTEzLjU2MiA3MjQuNSA1MTYuMzc1IDcyNC41IDUxNy41IDcyOS41NjIgNTE0LjY4OCA3MjkuNTYyIDUxMy41NjJaIiBmaWxsPSIjMDBBNEZGIi8+PHBhdGggZD0iTTcxOS40MzggNTEzLjU2MiA3MTkuNDM4IDUxNC42ODggNzI0LjUgNTE3LjUgNzI0LjUgNTE2LjM3NSA3MTkuNDM4IDUxMy41NjJaIiBmaWxsPSIjMDBBNEZGIi8+PC9nPjwvZz48L2c+PC9nPjwvc3ZnPg==;fontStyle=1" parent="-wsc2XBUxjwpWOjfPmOZ-92" vertex="1">
          <mxGeometry x="27" y="14" width="36" height="36" as="geometry" />
        </mxCell>
        <mxCell id="-wsc2XBUxjwpWOjfPmOZ-146" value="" style="group;fontStyle=1" parent="1" vertex="1" connectable="0">
          <mxGeometry x="668" y="498" width="92" height="112" as="geometry" />
        </mxCell>
        <mxCell id="-wsc2XBUxjwpWOjfPmOZ-147" value="&lt;font color=&quot;#333333&quot;&gt;&lt;span style=&quot;font-size: 16px&quot;&gt;&lt;span&gt;点播SDK&lt;/span&gt;&lt;/span&gt;&lt;/font&gt;" style="rounded=0;whiteSpace=wrap;html=1;shadow=1;comic=0;strokeColor=#E6E6E6;strokeWidth=2;fillColor=#ffffff;gradientColor=none;fontSize=22;fontColor=#FFFFFF;verticalAlign=bottom;fontStyle=1" parent="-wsc2XBUxjwpWOjfPmOZ-146" vertex="1">
          <mxGeometry y="82" width="92" height="30" as="geometry" />
        </mxCell>
        <mxCell id="-wsc2XBUxjwpWOjfPmOZ-148" value="" style="shape=image;verticalLabelPosition=bottom;labelBackgroundColor=#ffffff;verticalAlign=top;aspect=fixed;imageAspect=0;image=data:image/svg+xml,PHN2ZyB4bWxucz0iaHR0cDovL3d3dy53My5vcmcvMjAwMC9zdmciIHZpZXdCb3g9IjAgMCA0MC43MSAzNi44NCI+PGRlZnM+PHN0eWxlPi5jbHMtMXtmaWxsOiNmZmY7c3Ryb2tlOiMyMzE4MTU7c3Ryb2tlLXdpZHRoOjAuNzhweDt9LmNscy0xLC5jbHMtNHtzdHJva2UtbWl0ZXJsaW1pdDoxMDt9LmNscy0ye2ZpbGw6I2VmZWZlZjt9LmNscy0ze2ZpbGw6I2RjZGRkZDt9LmNscy00e2ZpbGw6bm9uZTtzdHJva2U6Z3JheTtzdHJva2Utd2lkdGg6MC42OHB4O308L3N0eWxlPjwvZGVmcz48dGl0bGU+6LWE5rqQIDE4PC90aXRsZT48ZyBpZD0i5Zu+5bGCXzIiIGRhdGEtbmFtZT0i5Zu+5bGCIDIiPjxnIGlkPSLlm77lsYJfMS0yIiBkYXRhLW5hbWU9IuWbvuWxgiAxIj48cG9seWdvbiBjbGFzcz0iY2xzLTEiIHBvaW50cz0iNDAuMzEgMTIuODYgMjAuMzYgMC40NiAwLjQgMTIuODYgMC4zOSAyNC4wNSAyMC4zNCAzNi40NiAyMC4zNyAzNi40NiA0MC4zMyAyNC4wNSA0MC4zMSAxMi44NiIvPjxwb2x5Z29uIGNsYXNzPSJjbHMtMiIgcG9pbnRzPSIyMC40IDM2LjQzIDAuNDUgMjQuMDIgMC40NiAxMi44NCAyMC40MiAyNS4yNCAyMC40IDM2LjQzIi8+PHBvbHlnb24gY2xhc3M9ImNscy0zIiBwb2ludHM9IjIwLjQzIDM2LjQzIDQwLjM4IDI0LjAyIDQwLjM3IDEyLjg0IDIwLjQyIDI1LjI0IDIwLjQzIDM2LjQzIi8+PHBvbHlnb24gY2xhc3M9ImNscy00IiBwb2ludHM9IjQwLjMxIDEyLjg2IDIwLjM2IDAuNDYgMC40IDEyLjg2IDAuMzkgMjQuMDUgMjAuMzQgMzYuNDYgMjAuMzcgMzYuNDYgNDAuMzMgMjQuMDUgNDAuMzEgMTIuODYiLz48L2c+PC9nPjwvc3ZnPg==;fontStyle=1" parent="-wsc2XBUxjwpWOjfPmOZ-146" vertex="1">
          <mxGeometry x="1.0000000000001137" width="90" height="81.22" as="geometry" />
        </mxCell>
        <mxCell id="-wsc2XBUxjwpWOjfPmOZ-149" value="" style="shape=image;verticalLabelPosition=bottom;verticalAlign=top;imageAspect=0;aspect=fixed;image=data:image/svg+xml,PHN2ZyB4bWxucz0iaHR0cDovL3d3dy53My5vcmcvMjAwMC9zdmciIHhtbG5zOnhsaW5rPSJodHRwOi8vd3d3LnczLm9yZy8xOTk5L3hsaW5rIiB0PSIxNjI2ODM2NDAwMDg4IiBjbGFzcz0iaWNvbiIgdmlld0JveD0iNzYuODAwMDAzMDUxNzU3ODEgNzYuODAwMDAzMDUxNzU3ODEgODcwLjQwMDAyNDQxNDA2MjUgODcwLjQwMDAyNDQxNDA2MjUiIHZlcnNpb249IjEuMSIgcC1pZD0iMjIwNDQiIHdpZHRoPSI4NzAuNDAwMDI0NDE0MDYyNSIgaGVpZ2h0PSI4NzAuNDAwMDI0NDE0MDYyNSI+PGRlZnM+PHN0eWxlIHR5cGU9InRleHQvY3NzIi8+PC9kZWZzPjxwYXRoIGQ9Ik03NjggNzYuOEE3Ni44IDc2LjggMCAwIDEgODQ0LjggMTUzLjZ2NzYuOGgyNS42YTc2LjggNzYuOCAwIDAgMSA3Ni40NDE2IDY5LjQyNzJMOTQ3LjIgMzA3LjJ2NTYzLjJhNzYuOCA3Ni44IDAgMCAxLTc2LjggNzYuOEgyNTZBNzYuOCA3Ni44IDAgMCAxIDE3OS4yIDg3MC40di03Ni44SDE1My42QTc2LjggNzYuOCAwIDAgMSA3Ni44IDcxNi44VjE1My42QTc2LjggNzYuOCAwIDAgMSAxNTMuNiA3Ni44aDYxNC40ek04NDQuOCA3MTYuOGE3Ni44IDc2LjggMCAwIDEtNzYuOCA3Ni44SDIzMC40Vjg3MC40YTI1LjYgMjUuNiAwIDAgMCAyMC45OTIgMjUuMTkwNEwyNTYgODk2aDYxNC40YTI1LjYgMjUuNiAwIDAgMCAyNS42LTI1LjZWMzA3LjJhMjUuNiAyNS42IDAgMCAwLTI1LjYtMjUuNmgtMjUuNlY3MTYuOHpNNzY4IDEyOEgxNTMuNmEyNS42IDI1LjYgMCAwIDAtMjUuNiAyNS42djU2My4yYTI1LjYgMjUuNiAwIDAgMCAyNS42IDI1LjZoNjE0LjRhMjUuNiAyNS42IDAgMCAwIDI1LjYtMjUuNlYxNTMuNmEyNS42IDI1LjYgMCAwIDAtMjUuNi0yNS42eiIgZmlsbD0iIzEyOTZkYiIgcC1pZD0iMjIwNDUiLz48cGF0aCBkPSJNNzYuOCAyMzAuNGg3NjhWNzE2LjhhNzYuOCA3Ni44IDAgMCAxLTc2LjggNzYuOEgxNTMuNkE3Ni44IDc2LjggMCAwIDEgNzYuOCA3MTYuOFYyMzAuNHogbTUxLjIgNTEuMlY3MTYuOGEyNS42IDI1LjYgMCAwIDAgMjUuNiAyNS42aDYxNC40YTI1LjYgMjUuNiAwIDAgMCAyNS42LTI1LjZWMjgxLjZoLTY2NS42eiIgZmlsbD0iIzEyOTZkYiIgcC1pZD0iMjIwNDYiLz48cGF0aCBkPSJNMzIwLjkyMTYgNTA5Ljg0OTZoLTMxLjMzNDRWNTAyLjc4NGEzMy40MzM2IDMzLjQzMzYgMCAwIDAtNS4wNjg4LTE4LjU4NTZjLTMuMzc5Mi01LjIyMjQtOS4wNjI0LTcuODMzNi0xNy4wNDk2LTcuODMzNmExOS43MTIgMTkuNzEyIDAgMCAwLTEwLjQ0NDggMi40NTc2IDIwLjU4MjQgMjAuNTgyNCAwIDAgMC02LjQ1MTIgNi4xNDQgMjYuMDA5NiAyNi4wMDk2IDAgMCAwLTMuMzc5MiA5LjA2MjQgNTkuMTg3MiA1OS4xODcyIDAgMCAwLTAuOTIxNiAxMC41OTg0YzAgNC4zMDA4IDAuMTUzNiA3Ljg4NDggMC40NjA4IDEwLjc1MmEyMC40Mjg4IDIwLjQyODggMCAwIDAgMi4zMDQgNy42OCAxNy4xMDA4IDE3LjEwMDggMCAwIDAgNS4zNzYgNS44MzY4IDQ5LjQwOCA0OS40MDggMCAwIDAgOS42NzY4IDQuOTE1MmwyMy45NjE2IDkuNTIzMmM2Ljk2MzIgMi42NjI0IDEyLjU5NTIgNS43ODU2IDE2Ljg5NiA5LjM2OTYgNC4zMDA4IDMuNTg0IDcuNjggNy43MzEyIDEwLjEzNzYgMTIuNDQxNiAyLjI1MjggNC45MTUyIDMuNzg4OCAxMC40OTYgNC42MDggMTYuNzQyNCAwLjgxOTIgNi4yNDY0IDEuMjI4OCAxMy4zNjMyIDEuMjI4OCAyMS4zNTA0IDAgOS4yMTYtMC45MjE2IDE3Ljc2NjQtMi43NjQ4IDI1LjY1MTJhNTQuMDE2IDU0LjAxNiAwIDAgMS04LjkwODggMjAuMTIxNiA0NC4yMzY4IDQ0LjIzNjggMCAwIDEtMTYuODk2IDEzLjUxNjggNTkuNTk2OCA1OS41OTY4IDAgMCAxLTI1LjQ5NzYgNC45MTUyIDU1LjgwOCA1NS44MDggMCAwIDEtMjEuMTk2OC0zLjk5MzYgNTAuNDMyIDUwLjQzMiAwIDAgMS0xNi44OTYtMTEuMDU5MiA1My44MTEyIDUzLjgxMTIgMCAwIDEtMTEuMjEyOC0xNi40MzUyIDQ5LjkyIDQ5LjkyIDAgMCAxLTQuMTQ3Mi0yMC40Mjg4di0xMS42NzM2aDMxLjMzNDR2OS44MzA0YTI1LjYgMjUuNiAwIDAgMCA1LjA2ODggMTUuNTEzNmMzLjM3OTIgNC42MDggOS4wNjI0IDYuOTEyIDE3LjA0OTYgNi45MTJhMjcuNDk0NCAyNy40OTQ0IDAgMCAwIDEyLjQ0MTYtMi4zMDQgMTYuNTM3NiAxNi41Mzc2IDAgMCAwIDYuOTEyLTYuNjA0OCAyNC4yNjg4IDI0LjI2ODggMCAwIDAgMi45MTg0LTEwLjI5MTJjMC4zMDcyLTMuOTkzNiAwLjQ2MDgtOC40NDggMC40NjA4LTEzLjM2MzJsLTAuMjU2LTEwLjA4NjRhODQuMjI0IDg0LjIyNCAwIDAgMC0wLjM1ODQtNC4wNDQ4IDI0LjMyIDI0LjMyIDAgMCAwLTIuNDU3Ni04LjkwODggMTcuMjU0NCAxNy4yNTQ0IDAgMCAwLTUuNjgzMi01LjUyOTYgNzIuODA2NCA3Mi44MDY0IDAgMCAwLTkuMzY5Ni00LjYwOGwtMjIuNDI1Ni05LjIxNmMtMTMuNTE2OC01LjUyOTYtMjIuNTc5Mi0xMi44NTEyLTI3LjE4NzItMjEuOTY0OGE3NS41NzEyIDc1LjU3MTIgMCAwIDEtNi45MTItMzQuMjUyOGMwLTguMTkyIDEuMTI2NC0xNS45NzQ0IDMuMzc5Mi0yMy4zNDcyIDIuMjUyOC03LjM3MjggNS42MzItMTMuNzIxNiAxMC4xMzc2LTE5LjA0NjRhNDYuNDM4NCA0Ni40Mzg0IDAgMCAxIDE2LjQzNTItMTIuNzQ4OGM2LjY1Ni0zLjE3NDQgMTQuNTkyLTQuNzYxNiAyMy44MDgtNC43NjE2IDcuNzgyNCAwIDE0Ljg5OTIgMS40MzM2IDIxLjM1MDQgNC4zMDA4IDYuNDUxMiAyLjg2NzIgMTIuMDMyIDYuNjU2IDE2Ljc0MjQgMTEuMzY2NGE0Ny40NjI0IDQ3LjQ2MjQgMCAwIDEgMTQuMTMxMiAzMy43OTJ2MTUuMzZ6TTM0Mi44MzUyIDY2NS42VjQ0Ni44NzM2aDQ2LjM4NzJjMTguMDIyNCAwIDMxLjc0NCA0LjkxNTIgNDEuMDExMiAxNC43NDU2IDkuMzE4NCA5LjgzMDQgMTMuOTc3NiAyMy43NTY4IDEzLjk3NzYgNDEuNzc5MnYxMDIuMjk3NmMwIDIwLjQ4LTQuOTY2NCAzNS41ODQtMTQuODQ4IDQ1LjMxMi05Ljk4NCA5LjcyOC0yNC4yNjg4IDE0LjU5Mi00Mi45MDU2IDE0LjU5MmgtNDMuNjIyNHogbTMxLjMzNDQtMTg5LjIzNTJ2MTU5Ljc0NGgxNC40Mzg0YzguODA2NCAwIDE1LjA1MjgtMi4yMDE2IDE4LjczOTItNi42MDQ4IDMuNjg2NC00LjQwMzIgNS41Mjk2LTExLjMxNTIgNS41Mjk2LTIwLjczNlY1MDMuMzk4NGMwLTguNjAxNi0xLjc0MDgtMTUuMjU3Ni01LjIyMjQtMTkuOTY4LTMuNDgxNi00LjcxMDQtOS44MzA0LTcuMDY1Ni0xOS4wNDY0LTcuMDY1NmgtMTQuNDM4NHpNNDcyLjMyIDY2NS42VjQ0Ni44NzM2aDMxLjMzNDR2OTkuODRoMC42MTQ0bDQ1Ljc3MjgtOTkuODRoMzEuMzM0NGwtNDIuNzAwOCA4Ny41NTIgNTAuNjg4IDEzMS4xNzQ0aC0zMy4xNzc2bC0zNS42MzUyLTk3LjA3NTItMTYuODk2IDMxLjY0MTZWNjY1LjZoLTMxLjMzNDR6IG0xNTYuNzc0NC00Ni4zODcyYzYuNzU4NCAwIDEyLjI4OCAyLjE1MDQgMTcuMjAzMiA3LjA2NTYgNC42MDggNC42MDggNy4wNjU2IDEwLjQ0NDggNy4wNjU2IDE3LjIwMzIgMCA2Ljc1ODQtMi40NTc2IDEyLjI4OC03LjA2NTYgMTcuMjAzMmEyNS4yNDE2IDI1LjI0MTYgMCAwIDEtMTcuMjAzMiA2Ljc1ODQgMjMuMzk4NCAyMy4zOTg0IDAgMCAxLTE2Ljg5Ni02Ljc1ODQgMjIuOTM3NiAyMi45Mzc2IDAgMCAxLTcuMDY1Ni0xNy4yMDMyIDIyLjUyOCAyMi41MjggMCAwIDEgNy4wNjU2LTE3LjIwMzIgMjEuNDAxNiAyMS40MDE2IDAgMCAxIDE2Ljg5Ni03LjA2NTZ6IiBmaWxsPSIjMTI5NmRiIiBwLWlkPSIyMjA0NyIvPjwvc3ZnPg==;fontStyle=1" parent="-wsc2XBUxjwpWOjfPmOZ-146" vertex="1">
          <mxGeometry x="28" y="12" width="36" height="36" as="geometry" />
        </mxCell>
        <mxCell id="-wsc2XBUxjwpWOjfPmOZ-154" value="" style="group;fontStyle=1" parent="1" vertex="1" connectable="0">
          <mxGeometry x="1574" y="498" width="92" height="112" as="geometry" />
        </mxCell>
        <mxCell id="-wsc2XBUxjwpWOjfPmOZ-155" value="&lt;font color=&quot;#333333&quot;&gt;&lt;span style=&quot;font-size: 16px&quot;&gt;&lt;span&gt;播放器SDK&lt;/span&gt;&lt;/span&gt;&lt;/font&gt;" style="rounded=0;whiteSpace=wrap;html=1;shadow=1;comic=0;strokeColor=#E6E6E6;strokeWidth=2;fillColor=#ffffff;gradientColor=none;fontSize=22;fontColor=#FFFFFF;verticalAlign=bottom;fontStyle=1" parent="-wsc2XBUxjwpWOjfPmOZ-154" vertex="1">
          <mxGeometry y="82" width="92" height="30" as="geometry" />
        </mxCell>
        <mxCell id="-wsc2XBUxjwpWOjfPmOZ-156" value="" style="shape=image;verticalLabelPosition=bottom;labelBackgroundColor=#ffffff;verticalAlign=top;aspect=fixed;imageAspect=0;image=data:image/svg+xml,PHN2ZyB4bWxucz0iaHR0cDovL3d3dy53My5vcmcvMjAwMC9zdmciIHZpZXdCb3g9IjAgMCA0MC43MSAzNi44NCI+PGRlZnM+PHN0eWxlPi5jbHMtMXtmaWxsOiNmZmY7c3Ryb2tlOiMyMzE4MTU7c3Ryb2tlLXdpZHRoOjAuNzhweDt9LmNscy0xLC5jbHMtNHtzdHJva2UtbWl0ZXJsaW1pdDoxMDt9LmNscy0ye2ZpbGw6I2VmZWZlZjt9LmNscy0ze2ZpbGw6I2RjZGRkZDt9LmNscy00e2ZpbGw6bm9uZTtzdHJva2U6Z3JheTtzdHJva2Utd2lkdGg6MC42OHB4O308L3N0eWxlPjwvZGVmcz48dGl0bGU+6LWE5rqQIDE4PC90aXRsZT48ZyBpZD0i5Zu+5bGCXzIiIGRhdGEtbmFtZT0i5Zu+5bGCIDIiPjxnIGlkPSLlm77lsYJfMS0yIiBkYXRhLW5hbWU9IuWbvuWxgiAxIj48cG9seWdvbiBjbGFzcz0iY2xzLTEiIHBvaW50cz0iNDAuMzEgMTIuODYgMjAuMzYgMC40NiAwLjQgMTIuODYgMC4zOSAyNC4wNSAyMC4zNCAzNi40NiAyMC4zNyAzNi40NiA0MC4zMyAyNC4wNSA0MC4zMSAxMi44NiIvPjxwb2x5Z29uIGNsYXNzPSJjbHMtMiIgcG9pbnRzPSIyMC40IDM2LjQzIDAuNDUgMjQuMDIgMC40NiAxMi44NCAyMC40MiAyNS4yNCAyMC40IDM2LjQzIi8+PHBvbHlnb24gY2xhc3M9ImNscy0zIiBwb2ludHM9IjIwLjQzIDM2LjQzIDQwLjM4IDI0LjAyIDQwLjM3IDEyLjg0IDIwLjQyIDI1LjI0IDIwLjQzIDM2LjQzIi8+PHBvbHlnb24gY2xhc3M9ImNscy00IiBwb2ludHM9IjQwLjMxIDEyLjg2IDIwLjM2IDAuNDYgMC40IDEyLjg2IDAuMzkgMjQuMDUgMjAuMzQgMzYuNDYgMjAuMzcgMzYuNDYgNDAuMzMgMjQuMDUgNDAuMzEgMTIuODYiLz48L2c+PC9nPjwvc3ZnPg==;fontStyle=1" parent="-wsc2XBUxjwpWOjfPmOZ-154" vertex="1">
          <mxGeometry x="1.0000000000001137" width="90" height="81.22" as="geometry" />
        </mxCell>
        <mxCell id="-wsc2XBUxjwpWOjfPmOZ-157" value="" style="shape=image;verticalLabelPosition=bottom;verticalAlign=top;imageAspect=0;aspect=fixed;image=data:image/svg+xml,PHN2ZyB4bWxucz0iaHR0cDovL3d3dy53My5vcmcvMjAwMC9zdmciIHhtbG5zOnhsaW5rPSJodHRwOi8vd3d3LnczLm9yZy8xOTk5L3hsaW5rIiB0PSIxNjI2ODM2NDAwMDg4IiBjbGFzcz0iaWNvbiIgdmlld0JveD0iNzYuODAwMDAzMDUxNzU3ODEgNzYuODAwMDAzMDUxNzU3ODEgODcwLjQwMDAyNDQxNDA2MjUgODcwLjQwMDAyNDQxNDA2MjUiIHZlcnNpb249IjEuMSIgcC1pZD0iMjIwNDQiIHdpZHRoPSI4NzAuNDAwMDI0NDE0MDYyNSIgaGVpZ2h0PSI4NzAuNDAwMDI0NDE0MDYyNSI+PGRlZnM+PHN0eWxlIHR5cGU9InRleHQvY3NzIi8+PC9kZWZzPjxwYXRoIGQ9Ik03NjggNzYuOEE3Ni44IDc2LjggMCAwIDEgODQ0LjggMTUzLjZ2NzYuOGgyNS42YTc2LjggNzYuOCAwIDAgMSA3Ni40NDE2IDY5LjQyNzJMOTQ3LjIgMzA3LjJ2NTYzLjJhNzYuOCA3Ni44IDAgMCAxLTc2LjggNzYuOEgyNTZBNzYuOCA3Ni44IDAgMCAxIDE3OS4yIDg3MC40di03Ni44SDE1My42QTc2LjggNzYuOCAwIDAgMSA3Ni44IDcxNi44VjE1My42QTc2LjggNzYuOCAwIDAgMSAxNTMuNiA3Ni44aDYxNC40ek04NDQuOCA3MTYuOGE3Ni44IDc2LjggMCAwIDEtNzYuOCA3Ni44SDIzMC40Vjg3MC40YTI1LjYgMjUuNiAwIDAgMCAyMC45OTIgMjUuMTkwNEwyNTYgODk2aDYxNC40YTI1LjYgMjUuNiAwIDAgMCAyNS42LTI1LjZWMzA3LjJhMjUuNiAyNS42IDAgMCAwLTI1LjYtMjUuNmgtMjUuNlY3MTYuOHpNNzY4IDEyOEgxNTMuNmEyNS42IDI1LjYgMCAwIDAtMjUuNiAyNS42djU2My4yYTI1LjYgMjUuNiAwIDAgMCAyNS42IDI1LjZoNjE0LjRhMjUuNiAyNS42IDAgMCAwIDI1LjYtMjUuNlYxNTMuNmEyNS42IDI1LjYgMCAwIDAtMjUuNi0yNS42eiIgZmlsbD0iIzEyOTZkYiIgcC1pZD0iMjIwNDUiLz48cGF0aCBkPSJNNzYuOCAyMzAuNGg3NjhWNzE2LjhhNzYuOCA3Ni44IDAgMCAxLTc2LjggNzYuOEgxNTMuNkE3Ni44IDc2LjggMCAwIDEgNzYuOCA3MTYuOFYyMzAuNHogbTUxLjIgNTEuMlY3MTYuOGEyNS42IDI1LjYgMCAwIDAgMjUuNiAyNS42aDYxNC40YTI1LjYgMjUuNiAwIDAgMCAyNS42LTI1LjZWMjgxLjZoLTY2NS42eiIgZmlsbD0iIzEyOTZkYiIgcC1pZD0iMjIwNDYiLz48cGF0aCBkPSJNMzIwLjkyMTYgNTA5Ljg0OTZoLTMxLjMzNDRWNTAyLjc4NGEzMy40MzM2IDMzLjQzMzYgMCAwIDAtNS4wNjg4LTE4LjU4NTZjLTMuMzc5Mi01LjIyMjQtOS4wNjI0LTcuODMzNi0xNy4wNDk2LTcuODMzNmExOS43MTIgMTkuNzEyIDAgMCAwLTEwLjQ0NDggMi40NTc2IDIwLjU4MjQgMjAuNTgyNCAwIDAgMC02LjQ1MTIgNi4xNDQgMjYuMDA5NiAyNi4wMDk2IDAgMCAwLTMuMzc5MiA5LjA2MjQgNTkuMTg3MiA1OS4xODcyIDAgMCAwLTAuOTIxNiAxMC41OTg0YzAgNC4zMDA4IDAuMTUzNiA3Ljg4NDggMC40NjA4IDEwLjc1MmEyMC40Mjg4IDIwLjQyODggMCAwIDAgMi4zMDQgNy42OCAxNy4xMDA4IDE3LjEwMDggMCAwIDAgNS4zNzYgNS44MzY4IDQ5LjQwOCA0OS40MDggMCAwIDAgOS42NzY4IDQuOTE1MmwyMy45NjE2IDkuNTIzMmM2Ljk2MzIgMi42NjI0IDEyLjU5NTIgNS43ODU2IDE2Ljg5NiA5LjM2OTYgNC4zMDA4IDMuNTg0IDcuNjggNy43MzEyIDEwLjEzNzYgMTIuNDQxNiAyLjI1MjggNC45MTUyIDMuNzg4OCAxMC40OTYgNC42MDggMTYuNzQyNCAwLjgxOTIgNi4yNDY0IDEuMjI4OCAxMy4zNjMyIDEuMjI4OCAyMS4zNTA0IDAgOS4yMTYtMC45MjE2IDE3Ljc2NjQtMi43NjQ4IDI1LjY1MTJhNTQuMDE2IDU0LjAxNiAwIDAgMS04LjkwODggMjAuMTIxNiA0NC4yMzY4IDQ0LjIzNjggMCAwIDEtMTYuODk2IDEzLjUxNjggNTkuNTk2OCA1OS41OTY4IDAgMCAxLTI1LjQ5NzYgNC45MTUyIDU1LjgwOCA1NS44MDggMCAwIDEtMjEuMTk2OC0zLjk5MzYgNTAuNDMyIDUwLjQzMiAwIDAgMS0xNi44OTYtMTEuMDU5MiA1My44MTEyIDUzLjgxMTIgMCAwIDEtMTEuMjEyOC0xNi40MzUyIDQ5LjkyIDQ5LjkyIDAgMCAxLTQuMTQ3Mi0yMC40Mjg4di0xMS42NzM2aDMxLjMzNDR2OS44MzA0YTI1LjYgMjUuNiAwIDAgMCA1LjA2ODggMTUuNTEzNmMzLjM3OTIgNC42MDggOS4wNjI0IDYuOTEyIDE3LjA0OTYgNi45MTJhMjcuNDk0NCAyNy40OTQ0IDAgMCAwIDEyLjQ0MTYtMi4zMDQgMTYuNTM3NiAxNi41Mzc2IDAgMCAwIDYuOTEyLTYuNjA0OCAyNC4yNjg4IDI0LjI2ODggMCAwIDAgMi45MTg0LTEwLjI5MTJjMC4zMDcyLTMuOTkzNiAwLjQ2MDgtOC40NDggMC40NjA4LTEzLjM2MzJsLTAuMjU2LTEwLjA4NjRhODQuMjI0IDg0LjIyNCAwIDAgMC0wLjM1ODQtNC4wNDQ4IDI0LjMyIDI0LjMyIDAgMCAwLTIuNDU3Ni04LjkwODggMTcuMjU0NCAxNy4yNTQ0IDAgMCAwLTUuNjgzMi01LjUyOTYgNzIuODA2NCA3Mi44MDY0IDAgMCAwLTkuMzY5Ni00LjYwOGwtMjIuNDI1Ni05LjIxNmMtMTMuNTE2OC01LjUyOTYtMjIuNTc5Mi0xMi44NTEyLTI3LjE4NzItMjEuOTY0OGE3NS41NzEyIDc1LjU3MTIgMCAwIDEtNi45MTItMzQuMjUyOGMwLTguMTkyIDEuMTI2NC0xNS45NzQ0IDMuMzc5Mi0yMy4zNDcyIDIuMjUyOC03LjM3MjggNS42MzItMTMuNzIxNiAxMC4xMzc2LTE5LjA0NjRhNDYuNDM4NCA0Ni40Mzg0IDAgMCAxIDE2LjQzNTItMTIuNzQ4OGM2LjY1Ni0zLjE3NDQgMTQuNTkyLTQuNzYxNiAyMy44MDgtNC43NjE2IDcuNzgyNCAwIDE0Ljg5OTIgMS40MzM2IDIxLjM1MDQgNC4zMDA4IDYuNDUxMiAyLjg2NzIgMTIuMDMyIDYuNjU2IDE2Ljc0MjQgMTEuMzY2NGE0Ny40NjI0IDQ3LjQ2MjQgMCAwIDEgMTQuMTMxMiAzMy43OTJ2MTUuMzZ6TTM0Mi44MzUyIDY2NS42VjQ0Ni44NzM2aDQ2LjM4NzJjMTguMDIyNCAwIDMxLjc0NCA0LjkxNTIgNDEuMDExMiAxNC43NDU2IDkuMzE4NCA5LjgzMDQgMTMuOTc3NiAyMy43NTY4IDEzLjk3NzYgNDEuNzc5MnYxMDIuMjk3NmMwIDIwLjQ4LTQuOTY2NCAzNS41ODQtMTQuODQ4IDQ1LjMxMi05Ljk4NCA5LjcyOC0yNC4yNjg4IDE0LjU5Mi00Mi45MDU2IDE0LjU5MmgtNDMuNjIyNHogbTMxLjMzNDQtMTg5LjIzNTJ2MTU5Ljc0NGgxNC40Mzg0YzguODA2NCAwIDE1LjA1MjgtMi4yMDE2IDE4LjczOTItNi42MDQ4IDMuNjg2NC00LjQwMzIgNS41Mjk2LTExLjMxNTIgNS41Mjk2LTIwLjczNlY1MDMuMzk4NGMwLTguNjAxNi0xLjc0MDgtMTUuMjU3Ni01LjIyMjQtMTkuOTY4LTMuNDgxNi00LjcxMDQtOS44MzA0LTcuMDY1Ni0xOS4wNDY0LTcuMDY1NmgtMTQuNDM4NHpNNDcyLjMyIDY2NS42VjQ0Ni44NzM2aDMxLjMzNDR2OTkuODRoMC42MTQ0bDQ1Ljc3MjgtOTkuODRoMzEuMzM0NGwtNDIuNzAwOCA4Ny41NTIgNTAuNjg4IDEzMS4xNzQ0aC0zMy4xNzc2bC0zNS42MzUyLTk3LjA3NTItMTYuODk2IDMxLjY0MTZWNjY1LjZoLTMxLjMzNDR6IG0xNTYuNzc0NC00Ni4zODcyYzYuNzU4NCAwIDEyLjI4OCAyLjE1MDQgMTcuMjAzMiA3LjA2NTYgNC42MDggNC42MDggNy4wNjU2IDEwLjQ0NDggNy4wNjU2IDE3LjIwMzIgMCA2Ljc1ODQtMi40NTc2IDEyLjI4OC03LjA2NTYgMTcuMjAzMmEyNS4yNDE2IDI1LjI0MTYgMCAwIDEtMTcuMjAzMiA2Ljc1ODQgMjMuMzk4NCAyMy4zOTg0IDAgMCAxLTE2Ljg5Ni02Ljc1ODQgMjIuOTM3NiAyMi45Mzc2IDAgMCAxLTcuMDY1Ni0xNy4yMDMyIDIyLjUyOCAyMi41MjggMCAwIDEgNy4wNjU2LTE3LjIwMzIgMjEuNDAxNiAyMS40MDE2IDAgMCAxIDE2Ljg5Ni03LjA2NTZ6IiBmaWxsPSIjMTI5NmRiIiBwLWlkPSIyMjA0NyIvPjwvc3ZnPg==;fontStyle=1" parent="-wsc2XBUxjwpWOjfPmOZ-154" vertex="1">
          <mxGeometry x="28" y="12" width="36" height="36" as="geometry" />
        </mxCell>
        <mxCell id="-wsc2XBUxjwpWOjfPmOZ-184" value="" style="group;fontStyle=1" parent="1" vertex="1" connectable="0">
          <mxGeometry x="1848" y="105" width="93" height="123.00000000000011" as="geometry" />
        </mxCell>
        <mxCell id="-wsc2XBUxjwpWOjfPmOZ-185" value="" style="shape=image;verticalLabelPosition=bottom;labelBackgroundColor=#ffffff;verticalAlign=top;aspect=fixed;imageAspect=0;image=data:image/svg+xml,PHN2ZyB4bWxucz0iaHR0cDovL3d3dy53My5vcmcvMjAwMC9zdmciIHZpZXdCb3g9IjAgMCAzMi44MyAzNi44MyI+PGRlZnM+PHN0eWxlPi5jbHMtMXtmaWxsOiNmZmY7fS5jbHMtMSwuY2xzLTN7c3Ryb2tlOmdyYXk7c3Ryb2tlLW1pdGVybGltaXQ6MTA7c3Ryb2tlLXdpZHRoOjAuODNweDt9LmNscy0ye2ZpbGw6I2RjZGRkZDt9LmNscy0ze2ZpbGw6bm9uZTt9PC9zdHlsZT48L2RlZnM+PHRpdGxlPui1hOa6kCAxNjwvdGl0bGU+PGcgaWQ9IuWbvuWxgl8yIiBkYXRhLW5hbWU9IuWbvuWxgiAyIj48ZyBpZD0i5Zu+5bGCXzEtMiIgZGF0YS1uYW1lPSLlm77lsYIgMSI+PHJlY3QgY2xhc3M9ImNscy0xIiB4PSIwLjQyIiB5PSIwLjQyIiB3aWR0aD0iMzIiIGhlaWdodD0iMzYiLz48cmVjdCBjbGFzcz0iY2xzLTIiIHg9IjAuNDIiIHk9IjI3LjQ3IiB3aWR0aD0iMzIiIGhlaWdodD0iOC42NCIvPjxyZWN0IGNsYXNzPSJjbHMtMyIgeD0iMC40MiIgeT0iMC40MiIgd2lkdGg9IjMyIiBoZWlnaHQ9IjM2Ii8+PC9nPjwvZz48L3N2Zz4=;fontStyle=1" parent="-wsc2XBUxjwpWOjfPmOZ-184" vertex="1">
          <mxGeometry x="9.5" width="72" height="80.73" as="geometry" />
        </mxCell>
        <mxCell id="-wsc2XBUxjwpWOjfPmOZ-186" value="&lt;font color=&quot;#333333&quot;&gt;&lt;span style=&quot;font-size: 16px&quot;&gt;android&lt;/span&gt;&lt;/font&gt;" style="rounded=0;whiteSpace=wrap;html=1;shadow=1;comic=0;strokeColor=#E6E6E6;strokeWidth=2;fillColor=#ffffff;gradientColor=none;fontSize=22;fontColor=#FFFFFF;verticalAlign=bottom;fontStyle=1" parent="-wsc2XBUxjwpWOjfPmOZ-184" vertex="1">
          <mxGeometry y="93.00000000000011" width="93" height="30" as="geometry" />
        </mxCell>
        <mxCell id="-wsc2XBUxjwpWOjfPmOZ-187" value="" style="shape=image;verticalLabelPosition=bottom;verticalAlign=top;imageAspect=0;aspect=fixed;image=data:image/svg+xml,PHN2ZyB0PSIxNTM4NzUzNDY4MjQ1IiBjbGFzcz0iaWNvbiIgc3R5bGU9IiIgdmlld0JveD0iMCAwIDEwMjQgMTAyNCIgdmVyc2lvbj0iMS4xIiB4bWxucz0iaHR0cDovL3d3dy53My5vcmcvMjAwMC9zdmciIHAtaWQ9IjExNDkiIHhtbG5zOnhsaW5rPSJodHRwOi8vd3d3LnczLm9yZy8xOTk5L3hsaW5rIiB3aWR0aD0iODAiIGhlaWdodD0iODAiPjxkZWZzPjxzdHlsZSB0eXBlPSJ0ZXh0L2NzcyIvPjwvZGVmcz48cGF0aCBkPSJNNzU2LjM2MzYzNiAxMDI0IDI2Ny42MzYzNjQgMTAyNGMtMzAuNzk0NDczIDAtNTUuODU0NTQ1LTI1LjA2MDA3My01NS44NTQ1NDUtNTUuODU0NTQ1TDIxMS43ODE4MTggNTUuODU0NTQ1YzAtMzAuNzk0NDczIDI1LjA2MDA3My01NS44NTQ1NDUgNTUuODU0NTQ1LTU1Ljg1NDU0NWw0ODguNzI3MjczIDBjMzAuNzk0NDczIDAgNTUuODU0NTQ1IDI1LjA2MDA3MyA1NS44NTQ1NDUgNTUuODU0NTQ1bDAgOTEyLjI5MDkwOUM4MTIuMjE4MTgyIDk5OC45Mzk5MjcgNzg3LjE1ODEwOSAxMDI0IDc1Ni4zNjM2MzYgMTAyNHpNMjY3LjYzNjM2NCAzNy4yMzYzNjRDMjU3LjM3Nzc0NSAzNy4yMzYzNjQgMjQ5LjAxODE4MiA0NS41NzczMDkgMjQ5LjAxODE4MiA1NS44NTQ1NDVsMCA5MTIuMjkwOTA5YzAgMTAuMjc3MjM2IDguMzU5NTY0IDE4LjYxODE4MiAxOC42MTgxODIgMTguNjE4MTgybDQ4OC43MjcyNzMgMGMxMC4yNTg2MTggMCAxOC42MTgxODItOC4zNDA5NDUgMTguNjE4MTgyLTE4LjYxODE4Mkw3NzQuOTgxODE4IDU1Ljg1NDU0NWMwLTEwLjI3NzIzNi04LjM1OTU2NC0xOC42MTgxODItMTguNjE4MTgyLTE4LjYxODE4MkwyNjcuNjM2MzY0IDM3LjIzNjM2NHoiIHAtaWQ9IjExNTAiIGZpbGw9IiM4YThhOGEiLz48cGF0aCBkPSJNMjM5LjcwOTA5MSA4Ni44OTEwNTVsNTM1LjI3MjcyNyAwIDAgMzcuMjM2MzY0LTUzNS4yNzI3MjcgMCAwLTM3LjIzNjM2NFoiIHAtaWQ9IjExNTEiIGZpbGw9IiM4YThhOGEiLz48cGF0aCBkPSJNMjQ5LjAxODE4MiA4MDYuNzgxNjczbDUzNS4yNzI3MjcgMCAwIDM3LjIzNjM2NC01MzUuMjcyNzI3IDAgMC0zNy4yMzYzNjRaIiBwLWlkPSIxMTUyIiBmaWxsPSIjOGE4YThhIi8+PHBhdGggZD0iTTUxMiA5NjguMzg3NDkxYy0zMC45MjQ4IDAtNTYuMDk2NTgyLTI1LjE3MTc4Mi01Ni4wOTY1ODItNTYuMDk2NTgyczI1LjE3MTc4Mi01Ni4wOTY1ODIgNTYuMDk2NTgyLTU2LjA5NjU4MiA1Ni4wOTY1ODIgMjUuMTcxNzgyIDU2LjA5NjU4MiA1Ni4wOTY1ODJTNTQyLjkyNDggOTY4LjM4NzQ5MSA1MTIgOTY4LjM4NzQ5MXpNNTEyIDg5My40MzA2OTFjLTEwLjQwNzU2NCAwLTE4Ljg2MDIxOCA4LjQ1MjY1NS0xOC44NjAyMTggMTguODYwMjE4czguNDUyNjU1IDE4Ljg2MDIxOCAxOC44NjAyMTggMTguODYwMjE4IDE4Ljg2MDIxOC04LjQ1MjY1NSAxOC44NjAyMTgtMTguODYwMjE4UzUyMi40MDc1NjQgODkzLjQzMDY5MSA1MTIgODkzLjQzMDY5MXoiIHAtaWQ9IjExNTMiIGZpbGw9IiM4YThhOGEiLz48cGF0aCBkPSJNNjI5LjI1NzMwOSAzNjMuMDczMTY0YzQuMjYzNTY0IDAgNy44NTY4NzMgMS4yMjg4IDEwLjc2MTMwOSAzLjcyMzYzNiAyLjkwNDQzNiAyLjQ3NjIxOCA0LjM1NjY1NSA1LjUxMDk4MiA0LjM1NjY1NSA5LjEwNDI5MWwwIDc1LjM2NjRjMCAzLjQyNTc0NS0xLjQ1MjIxOCA2LjM2NzQxOC00LjM1NjY1NSA4Ljg0MzYzNi0yLjkwNDQzNiAyLjQ3NjIxOC02LjQ5Nzc0NSAzLjcyMzYzNi0xMC43NjEzMDkgMy43MjM2MzZsLTQuODU5MzQ1IDBjLTQuMDk2IDAtNy41OTYyMTgtMS4yNDc0MTgtMTAuNTAwNjU1LTMuNzIzNjM2LTIuOTA0NDM2LTIuNDc2MjE4LTQuMzU2NjU1LTUuNDE3ODkxLTQuMzU2NjU1LTguODQzNjM2bDAtNzUuMzY2NGMwLTMuNTkzMzA5IDEuNDUyMjE4LTYuNjI4MDczIDQuMzU2NjU1LTkuMTA0MjkxIDIuOTA0NDM2LTIuNDc2MjE4IDYuNDA0NjU1LTMuNzIzNjM2IDEwLjUwMDY1NS0zLjcyMzYzNkw2MjkuMjU3MzA5IDM2My4wNzMxNjQgNjI5LjI1NzMwOSAzNjMuMDczMTY0IDYyOS4yNTczMDkgMzYzLjA3MzE2NHpNNDA4LjEyOTE2NCAzNjMuMDczMTY0YzQuMDk2IDAgNy41MjE3NDUgMS4yMjg4IDEwLjI1ODYxOCAzLjcyMzYzNiAyLjczNjg3MyAyLjQ3NjIxOCA0LjA5NiA1LjUxMDk4MiA0LjA5NiA5LjEwNDI5MWwwIDc1LjM2NjRjMCAzLjQyNTc0NS0xLjM1OTEyNyA2LjM2NzQxOC00LjA5NiA4Ljg0MzYzNi0yLjczNjg3MyAyLjQ3NjIxOC02LjE0NCAzLjcyMzYzNi0xMC4yNTg2MTggMy43MjM2MzZsLTQuODU5MzQ1IDBjLTQuMjYzNTY0IDAtNy44NTY4NzMtMS4yNDc0MTgtMTAuNzYxMzA5LTMuNzIzNjM2LTIuOTA0NDM2LTIuNDc2MjE4LTQuMzU2NjU1LTUuNDM2NTA5LTQuMzU2NjU1LTguODQzNjM2bDAtNzUuMzY2NGMwLTMuNTkzMzA5IDEuNDUyMjE4LTYuNjI4MDczIDQuMzU2NjU1LTkuMTA0MjkxIDIuOTA0NDM2LTIuNDc2MjE4IDYuNDk3NzQ1LTMuNzIzNjM2IDEwLjc2MTMwOS0zLjcyMzYzNkw0MDguMTI5MTY0IDM2My4wNzMxNjQgNDA4LjEyOTE2NCAzNjMuMDczMTY0IDQwOC4xMjkxNjQgMzYzLjA3MzE2NHpNNTU4LjgwNjEwOSAzMDMuNTg4MDczYzMuMjM5NTY0IDEuMzc3NzQ1IDYuNjI4MDczIDMuMjU4MTgyIDEwLjEyODI5MSA1LjY0MTMwOSAzLjUwMDIxOCAyLjM4MzEyNyA2LjkyNTk2NCA1LjIxMzA5MSAxMC4yNTg2MTggOC40NTI2NTUgMy4zMzI2NTUgMy4yMzk1NjQgNi4xOTk4NTUgNi43OTU2MzYgOC41ODI5ODIgMTAuNjMwOTgyIDIuMzgzMTI3IDMuODUzOTY0IDQuMTg5MDkxIDcuODk0MTA5IDUuMzgwNjU1IDEyLjE3NjI5MWwtMTU1LjAxNDk4MiAwYzIuOTA0NDM2LTkuMDQ4NDM2IDcuNDY1ODkxLTE2LjQ5NTcwOSAxMy43MDI5ODItMjIuMzA0NTgyIDYuMjM3MDkxLTUuODA4ODczIDEyLjYwNDUwOS0xMC40MjYxODIgMTkuMDgzNjM2LTEzLjg1MTkyN2wtMTQuMDkzOTY0LTIwLjUxNzIzNmMtMC4zMzUxMjctMC4zMzUxMjctMC4zOTA5ODItMC45MzA5MDktMC4xMzAzMjctMS43ODczNDUgMC4yNjA2NTUtMC44NTY0MzYgMS4yNDc0MTgtMS43ODczNDUgMi45NDE2NzMtMi44MTEzNDUgMS41NDUzMDktMS4yMTAxODIgMi45MDQ0MzYtMS43NTAxMDkgNC4wOTYtMS42NTcwMTggMS4xOTE1NjQgMC4wOTMwOTEgMi4wNDggMC4yOTc4OTEgMi41NjkzMDkgMC42MzMwMThsMTQuMDkzOTY0IDIwLjc1OTI3M2M1LjEyLTIuMjE1NTY0IDEwLjUwMDY1NS0zLjkyODQzNiAxNi4xNDE5NjQtNS4xMiA1LjY0MTMwOS0xLjE5MTU2NCAxMS40NTAxODItMS43ODczNDUgMTcuNDI2NjE4LTEuNzg3MzQ1IDEyLjMwNjYxOCAwIDIzLjgzMTI3MyAyLjM4MzEyNyAzNC41OTI1ODIgNy4xNjhsMTQuNTk2NjU1LTIxLjAxOTkyN2MwLjMzNTEyNy0wLjMzNTEyNyAwLjk4Njc2NC0wLjUyMTMwOSAxLjkxNzY3My0wLjUyMTMwOSAwLjkzMDkwOSAwIDIuNDM4OTgyIDAuNTIxMzA5IDQuNDg2OTgyIDEuNTQ1MzA5IDEuODgwNDM2IDAuODU2NDM2IDIuOTQxNjczIDEuNjE5NzgyIDMuMjAyMzI3IDIuMzA4NjU1IDAuMjYwNjU1IDAuNjg4ODczIDAuMjA0OCAxLjE5MTU2NC0wLjEzMDMyNyAxLjU0NTMwOUw1NTguODA2MTA5IDMwMy41ODgwNzMgNTU4LjgwNjEwOSAzMDMuNTg4MDczek00ODIuNTY0NjU1IDMyNS42MzJjMi4zMDg2NTUgMCA0LjI2MzU2NC0wLjc2MzM0NSA1LjkwMTk2NC0yLjMwODY1NSAxLjYxOTc4Mi0xLjU0NTMwOSAyLjQzODk4Mi0zLjQyNTc0NSAyLjQzODk4Mi01LjY0MTMwOSAwLTIuMjE1NTY0LTAuODE5Mi00LjA5Ni0yLjQzODk4Mi01LjY0MTMwOS0xLjYxOTc4Mi0xLjU0NTMwOS0zLjU5MzMwOS0yLjMwODY1NS01LjkwMTk2NC0yLjMwODY1NXMtNC4zMTk0MTggMC43NjMzNDUtNi4wMTM2NzMgMi4zMDg2NTVjLTEuNzEyODczIDEuNTQ1MzA5LTIuNTY5MzA5IDMuNDI1NzQ1LTIuNTY5MzA5IDUuNjQxMzA5IDAgMi4yMTU1NjQgMC44NTY0MzYgNC4wOTYgMi41NjkzMDkgNS42NDEzMDlDNDc4LjI2Mzg1NSAzMjQuODY4NjU1IDQ4MC4yNTYgMzI1LjYzMiA0ODIuNTY0NjU1IDMyNS42MzJMNDgyLjU2NDY1NSAzMjUuNjMyIDQ4Mi41NjQ2NTUgMzI1LjYzMnpNNTQ5LjcwMTgxOCAzMjQuNjA4YzIuMzA4NjU1IDAgNC4yNjM1NjQtMC43NjMzNDUgNS45MDE5NjQtMi4zMDg2NTUgMS42MTk3ODItMS41NDUzMDkgMi40Mzg5ODItMy40MjU3NDUgMi40Mzg5ODItNS42NDEzMDkgMC0yLjIxNTU2NC0wLjgxOTItNC4wOTYtMi40Mzg5ODItNS42NDEzMDktMS42MTk3ODItMS41NDUzMDktMy41OTMzMDktMi4zMDg2NTUtNS45MDE5NjQtMi4zMDg2NTUtMi4zMDg2NTUgMC00LjMxOTQxOCAwLjc2MzM0NS02LjAxMzY3MyAyLjMwODY1NS0xLjcxMjg3MyAxLjU0NTMwOS0yLjU2OTMwOSAzLjQyNTc0NS0yLjU2OTMwOSA1LjY0MTMwOSAwIDIuMjE1NTY0IDAuODU2NDM2IDQuMDk2IDIuNTY5MzA5IDUuNjQxMzA5QzU0NS4zODI0IDMyMy44NDQ2NTUgNTQ3LjM5MzE2NCAzMjQuNjA4IDU0OS43MDE4MTggMzI0LjYwOEw1NDkuNzAxODE4IDMyNC42MDggNTQ5LjcwMTgxOCAzMjQuNjA4ek01OTMuMTM4MDM2IDM1Ni42NDk4OTFsMC4yNjA2NTUgMTE1LjA5NzZjMCAzLjc2MDg3My0xLjMyMTg5MSA2LjkyNTk2NC0zLjk2NTY3MyA5LjQ3NjY1NS0yLjY0Mzc4MiAyLjU2OTMwOS01Ljg0NjEwOSAzLjgzNTM0NS05LjYwNjk4MiAzLjgzNTM0NWwtMy44MzUzNDUgMCAwIDM1Ljg5NTg1NWMwIDMuNDI1NzQ1LTEuMzIxODkxIDYuNDA0NjU1LTMuOTY1NjczIDguOTczOTY0LTIuNjQzNzgyIDIuNTY5MzA5LTUuOTM5MiAzLjg1Mzk2NC05Ljg2NzYzNiAzLjg1Mzk2NGwtNy42ODkzMDkgMGMtMy43NjA4NzMgMC02Ljk2MzItMS4yODQ2NTUtOS42MDY5ODItMy44NTM5NjQtMi42NDM3ODItMi41NjkzMDktMy45NjU2NzMtNS41NDgyMTgtMy45NjU2NzMtOC45NzM5NjRsMC0zNS44OTU4NTUtNTAuMjEzMjM2IDAgMCAzNS44OTU4NTVjMCAzLjQyNTc0NS0xLjI4NDY1NSA2LjQwNDY1NS0zLjgzNTM0NSA4Ljk3Mzk2NC0yLjU2OTMwOSAyLjU2OTMwOS01LjgwODg3MyAzLjg1Mzk2NC05LjczNzMwOSAzLjg1Mzk2NGwtNy45NDk5NjQgMGMtMy41OTMzMDkgMC02LjcwMjU0NS0xLjI4NDY1NS05LjM0NjMyNy0zLjg1Mzk2NC0yLjY0Mzc4Mi0yLjU2OTMwOS0zLjk2NTY3My01LjU0ODIxOC0zLjk2NTY3My04Ljk3Mzk2NGwwLTM1Ljg5NTg1NS0zLjA3MiAwYy0zLjc2MDg3MyAwLTYuOTYzMi0xLjI4NDY1NS05LjYwNjk4Mi0zLjgzNTM0NS0yLjY0Mzc4Mi0yLjU2OTMwOS0zLjk2NTY3My01LjcxNTc4Mi0zLjk2NTY3My05LjQ3NjY1NWwwLTExNS4wOTc2TDU5My4xMzgwMzYgMzU2LjY0OTg5MSA1OTMuMTM4MDM2IDM1Ni42NDk4OTEgNTkzLjEzODAzNiAzNTYuNjQ5ODkxek01OTMuMTM4MDM2IDM1Ni42NDk4OTEiIHAtaWQ9IjExNTQiIGZpbGw9IiM4YThhOGEiLz48L3N2Zz4=;fontStyle=1" parent="-wsc2XBUxjwpWOjfPmOZ-184" vertex="1">
          <mxGeometry x="23.5" y="9" width="40" height="40" as="geometry" />
        </mxCell>
        <mxCell id="-wsc2XBUxjwpWOjfPmOZ-188" value="" style="group;fontStyle=1" parent="1" vertex="1" connectable="0">
          <mxGeometry x="1961" y="106" width="93" height="123.00000000000011" as="geometry" />
        </mxCell>
        <mxCell id="-wsc2XBUxjwpWOjfPmOZ-189" value="" style="shape=image;verticalLabelPosition=bottom;labelBackgroundColor=#ffffff;verticalAlign=top;aspect=fixed;imageAspect=0;image=data:image/svg+xml,PHN2ZyB4bWxucz0iaHR0cDovL3d3dy53My5vcmcvMjAwMC9zdmciIHZpZXdCb3g9IjAgMCAzMi44MyAzNi44MyI+PGRlZnM+PHN0eWxlPi5jbHMtMXtmaWxsOiNmZmY7fS5jbHMtMSwuY2xzLTN7c3Ryb2tlOmdyYXk7c3Ryb2tlLW1pdGVybGltaXQ6MTA7c3Ryb2tlLXdpZHRoOjAuODNweDt9LmNscy0ye2ZpbGw6I2RjZGRkZDt9LmNscy0ze2ZpbGw6bm9uZTt9PC9zdHlsZT48L2RlZnM+PHRpdGxlPui1hOa6kCAxNjwvdGl0bGU+PGcgaWQ9IuWbvuWxgl8yIiBkYXRhLW5hbWU9IuWbvuWxgiAyIj48ZyBpZD0i5Zu+5bGCXzEtMiIgZGF0YS1uYW1lPSLlm77lsYIgMSI+PHJlY3QgY2xhc3M9ImNscy0xIiB4PSIwLjQyIiB5PSIwLjQyIiB3aWR0aD0iMzIiIGhlaWdodD0iMzYiLz48cmVjdCBjbGFzcz0iY2xzLTIiIHg9IjAuNDIiIHk9IjI3LjQ3IiB3aWR0aD0iMzIiIGhlaWdodD0iOC42NCIvPjxyZWN0IGNsYXNzPSJjbHMtMyIgeD0iMC40MiIgeT0iMC40MiIgd2lkdGg9IjMyIiBoZWlnaHQ9IjM2Ii8+PC9nPjwvZz48L3N2Zz4=;fontStyle=1" parent="-wsc2XBUxjwpWOjfPmOZ-188" vertex="1">
          <mxGeometry x="9.5" width="72" height="80.73" as="geometry" />
        </mxCell>
        <mxCell id="-wsc2XBUxjwpWOjfPmOZ-190" value="&lt;font color=&quot;#333333&quot;&gt;&lt;span style=&quot;font-size: 16px&quot;&gt;IOS&lt;/span&gt;&lt;/font&gt;" style="rounded=0;whiteSpace=wrap;html=1;shadow=1;comic=0;strokeColor=#E6E6E6;strokeWidth=2;fillColor=#ffffff;gradientColor=none;fontSize=22;fontColor=#FFFFFF;verticalAlign=bottom;fontStyle=1" parent="-wsc2XBUxjwpWOjfPmOZ-188" vertex="1">
          <mxGeometry y="93.00000000000011" width="93" height="30" as="geometry" />
        </mxCell>
        <mxCell id="-wsc2XBUxjwpWOjfPmOZ-191" value="" style="shape=image;verticalLabelPosition=bottom;verticalAlign=top;imageAspect=0;aspect=fixed;image=data:image/svg+xml,PHN2ZyB0PSIxNTM4NzUzNTM5MTA3IiBjbGFzcz0iaWNvbiIgc3R5bGU9IiIgdmlld0JveD0iMCAwIDEwMjQgMTAyNCIgdmVyc2lvbj0iMS4xIiB4bWxucz0iaHR0cDovL3d3dy53My5vcmcvMjAwMC9zdmciIHAtaWQ9IjE0NzYiIHhtbG5zOnhsaW5rPSJodHRwOi8vd3d3LnczLm9yZy8xOTk5L3hsaW5rIiB3aWR0aD0iODAiIGhlaWdodD0iODAiPjxkZWZzPjxzdHlsZSB0eXBlPSJ0ZXh0L2NzcyIvPjwvZGVmcz48cGF0aCBkPSJNNTkzLjY3Nzk2NCA0MTguMjM4ODM2YzAgNDAuODQ4MjkxIDM3LjI5MjIxOCA1My4yNjY2MTggMzkuMDYwOTQ1IDUzLjI2NjYxOCAwIDEuNzY4NzI3LTUuMzI0OCAxOS41MzA0NzMtMTkuNTMwNDczIDM3LjI5MjIxOC0xMi40MzY5NDUgMTUuOTkzMDE4LTI0Ljg1NTI3MyAzMS45Njc0MTgtNDQuNDA0MzY0IDMxLjk2NzQxOHMtMjQuODU1MjczLTEwLjY0OTYtNDcuOTQxODE4LTEwLjY0OTZjLTIxLjMxNzgxOCAwLTI4LjQxMTM0NSAxMC42NDk2LTQ2LjE3MzA5MSAxMC42NDk2LTE5LjUzMDQ3MyAwLTMzLjczNjE0NS0xNy43NjE3NDUtNDQuNDA0MzY0LTMzLjczNjE0NS0yNC44NTUyNzMtMzMuNzM2MTQ1LTQyLjYxNzAxOC05NC4xMTQ5MDktMTcuNzYxNzQ1LTEzNC45NjMyIDEyLjQzNjk0NS0xOS41MzA0NzMgMzUuNTIzNDkxLTMzLjczNjE0NSA1OC42MTAwMzYtMzMuNzM2MTQ1IDE3Ljc2MTc0NSAwIDM1LjUyMzQ5MSAxMi40MzY5NDUgNDcuOTQxODE4IDEyLjQzNjk0NSAxMC42NDk2IDAgMzEuOTY3NDE4LTE0LjIwNTY3MyA1NS4wNTM5NjQtMTIuNDM2OTQ1IDguODgwODczIDAgMzUuNTIzNDkxIDMuNTU2MDczIDUxLjQ5Nzg5MSAyNi42NDI2MThDNjIzLjg3NjY1NSAzNjguNTA5NjczIDU5My42Nzc5NjQgMzg0LjUwMjY5MSA1OTMuNjc3OTY0IDQxOC4yMzg4MzZMNTkzLjY3Nzk2NCA0MTguMjM4ODM2ek01MTUuNTM3NDU1IDMzOC4zMjk2Yy0xLjc2ODcyNy0xNS45NzQ0IDUuMzI0OC0zMS45Njc0MTggMTQuMjA1NjczLTQyLjYxNzAxOCAxMC42NDk2LTEwLjY0OTYgMjguNDExMzQ1LTE5LjUzMDQ3MyA0Mi42MTcwMTgtMTkuNTMwNDczIDEuNzY4NzI3IDE1Ljk3NDQtNS4zMjQ4IDMxLjk2NzQxOC0xNC4yMDU2NzMgNDIuNjE3MDE4QzU0Ny41MDQ4NzMgMzI5LjQ0ODcyNyA1MzEuNTExODU1IDMzOC4zMjk2IDUxNS41Mzc0NTUgMzM4LjMyOTZMNTE1LjUzNzQ1NSAzMzguMzI5NnpNNTE1LjUzNzQ1NSAzMzguMzI5NiIgcC1pZD0iMTQ3NyIgZmlsbD0iIzhhOGE4YSIvPjxwYXRoIGQ9Ik03NTYuMzYzNjM2IDEwMjQgMjY3LjYzNjM2NCAxMDI0Yy0zMC43OTQ0NzMgMC01NS44NTQ1NDUtMjUuMDYwMDczLTU1Ljg1NDU0NS01NS44NTQ1NDVMMjExLjc4MTgxOCA1NS44NTQ1NDVjMC0zMC43OTQ0NzMgMjUuMDYwMDczLTU1Ljg1NDU0NSA1NS44NTQ1NDUtNTUuODU0NTQ1bDQ4OC43MjcyNzMgMGMzMC43OTQ0NzMgMCA1NS44NTQ1NDUgMjUuMDYwMDczIDU1Ljg1NDU0NSA1NS44NTQ1NDVsMCA5MTIuMjkwOTA5QzgxMi4yMTgxODIgOTk4LjkzOTkyNyA3ODcuMTU4MTA5IDEwMjQgNzU2LjM2MzYzNiAxMDI0ek0yNjcuNjM2MzY0IDM3LjIzNjM2NEMyNTcuMzc3NzQ1IDM3LjIzNjM2NCAyNDkuMDE4MTgyIDQ1LjU3NzMwOSAyNDkuMDE4MTgyIDU1Ljg1NDU0NWwwIDkxMi4yOTA5MDljMCAxMC4yNzcyMzYgOC4zNTk1NjQgMTguNjE4MTgyIDE4LjYxODE4MiAxOC42MTgxODJsNDg4LjcyNzI3MyAwYzEwLjI1ODYxOCAwIDE4LjYxODE4Mi04LjM0MDk0NSAxOC42MTgxODItMTguNjE4MTgyTDc3NC45ODE4MTggNTUuODU0NTQ1YzAtMTAuMjc3MjM2LTguMzU5NTY0LTE4LjYxODE4Mi0xOC42MTgxODItMTguNjE4MTgyTDI2Ny42MzYzNjQgMzcuMjM2MzY0eiIgcC1pZD0iMTQ3OCIgZmlsbD0iIzhhOGE4YSIvPjxwYXRoIGQ9Ik0yMzkuNzA5MDkxIDg2Ljg5MTA1NWw1MzUuMjcyNzI3IDAgMCAzNy4yMzYzNjQtNTM1LjI3MjcyNyAwIDAtMzcuMjM2MzY0WiIgcC1pZD0iMTQ3OSIgZmlsbD0iIzhhOGE4YSIvPjxwYXRoIGQ9Ik0yNDkuMDE4MTgyIDgwNi43ODE2NzNsNTM1LjI3MjcyNyAwIDAgMzcuMjM2MzY0LTUzNS4yNzI3MjcgMCAwLTM3LjIzNjM2NFoiIHAtaWQ9IjE0ODAiIGZpbGw9IiM4YThhOGEiLz48cGF0aCBkPSJNNTEyIDk2OC4zODc0OTFjLTMwLjkyNDggMC01Ni4wOTY1ODItMjUuMTcxNzgyLTU2LjA5NjU4Mi01Ni4wOTY1ODJzMjUuMTcxNzgyLTU2LjA5NjU4MiA1Ni4wOTY1ODItNTYuMDk2NTgyIDU2LjA5NjU4MiAyNS4xNzE3ODIgNTYuMDk2NTgyIDU2LjA5NjU4MlM1NDIuOTI0OCA5NjguMzg3NDkxIDUxMiA5NjguMzg3NDkxek01MTIgODkzLjQzMDY5MWMtMTAuNDA3NTY0IDAtMTguODYwMjE4IDguNDUyNjU1LTE4Ljg2MDIxOCAxOC44NjAyMThzOC40NTI2NTUgMTguODYwMjE4IDE4Ljg2MDIxOCAxOC44NjAyMTggMTguODYwMjE4LTguNDUyNjU1IDE4Ljg2MDIxOC0xOC44NjAyMThTNTIyLjQwNzU2NCA4OTMuNDMwNjkxIDUxMiA4OTMuNDMwNjkxeiIgcC1pZD0iMTQ4MSIgZmlsbD0iIzhhOGE4YSIvPjwvc3ZnPg==;fontStyle=1" parent="-wsc2XBUxjwpWOjfPmOZ-188" vertex="1">
          <mxGeometry x="25.5" y="7" width="40" height="40" as="geometry" />
        </mxCell>
        <mxCell id="-wsc2XBUxjwpWOjfPmOZ-192" value="" style="group;fontStyle=1" parent="1" vertex="1" connectable="0">
          <mxGeometry x="1847" y="274" width="93" height="123.00000000000011" as="geometry" />
        </mxCell>
        <mxCell id="-wsc2XBUxjwpWOjfPmOZ-193" value="" style="shape=image;verticalLabelPosition=bottom;labelBackgroundColor=#ffffff;verticalAlign=top;aspect=fixed;imageAspect=0;image=data:image/svg+xml,PHN2ZyB4bWxucz0iaHR0cDovL3d3dy53My5vcmcvMjAwMC9zdmciIHZpZXdCb3g9IjAgMCAzMi44MyAzNi44MyI+PGRlZnM+PHN0eWxlPi5jbHMtMXtmaWxsOiNmZmY7fS5jbHMtMSwuY2xzLTN7c3Ryb2tlOmdyYXk7c3Ryb2tlLW1pdGVybGltaXQ6MTA7c3Ryb2tlLXdpZHRoOjAuODNweDt9LmNscy0ye2ZpbGw6I2RjZGRkZDt9LmNscy0ze2ZpbGw6bm9uZTt9PC9zdHlsZT48L2RlZnM+PHRpdGxlPui1hOa6kCAxNjwvdGl0bGU+PGcgaWQ9IuWbvuWxgl8yIiBkYXRhLW5hbWU9IuWbvuWxgiAyIj48ZyBpZD0i5Zu+5bGCXzEtMiIgZGF0YS1uYW1lPSLlm77lsYIgMSI+PHJlY3QgY2xhc3M9ImNscy0xIiB4PSIwLjQyIiB5PSIwLjQyIiB3aWR0aD0iMzIiIGhlaWdodD0iMzYiLz48cmVjdCBjbGFzcz0iY2xzLTIiIHg9IjAuNDIiIHk9IjI3LjQ3IiB3aWR0aD0iMzIiIGhlaWdodD0iOC42NCIvPjxyZWN0IGNsYXNzPSJjbHMtMyIgeD0iMC40MiIgeT0iMC40MiIgd2lkdGg9IjMyIiBoZWlnaHQ9IjM2Ii8+PC9nPjwvZz48L3N2Zz4=;fontStyle=1" parent="-wsc2XBUxjwpWOjfPmOZ-192" vertex="1">
          <mxGeometry x="9.5" width="72" height="80.73" as="geometry" />
        </mxCell>
        <mxCell id="-wsc2XBUxjwpWOjfPmOZ-194" value="&lt;font color=&quot;#333333&quot;&gt;&lt;span style=&quot;font-size: 16px&quot;&gt;PC&lt;/span&gt;&lt;/font&gt;" style="rounded=0;whiteSpace=wrap;html=1;shadow=1;comic=0;strokeColor=#E6E6E6;strokeWidth=2;fillColor=#ffffff;gradientColor=none;fontSize=22;fontColor=#FFFFFF;verticalAlign=bottom;fontStyle=1" parent="-wsc2XBUxjwpWOjfPmOZ-192" vertex="1">
          <mxGeometry y="93.00000000000011" width="93" height="30" as="geometry" />
        </mxCell>
        <mxCell id="-wsc2XBUxjwpWOjfPmOZ-195" value="" style="shadow=0;dashed=0;html=1;strokeColor=none;labelPosition=center;verticalLabelPosition=bottom;verticalAlign=top;align=center;shape=mxgraph.azure.laptop;fillColor=#7D7D7D;fontSize=16;aspect=fixed;fontStyle=1" parent="-wsc2XBUxjwpWOjfPmOZ-192" vertex="1">
          <mxGeometry x="25.5" y="20" width="40" height="24.1" as="geometry" />
        </mxCell>
        <mxCell id="-wsc2XBUxjwpWOjfPmOZ-196" value="" style="group;fontStyle=1" parent="1" vertex="1" connectable="0">
          <mxGeometry x="1960" y="274" width="93" height="123.00000000000011" as="geometry" />
        </mxCell>
        <mxCell id="-wsc2XBUxjwpWOjfPmOZ-197" value="" style="shape=image;verticalLabelPosition=bottom;labelBackgroundColor=#ffffff;verticalAlign=top;aspect=fixed;imageAspect=0;image=data:image/svg+xml,PHN2ZyB4bWxucz0iaHR0cDovL3d3dy53My5vcmcvMjAwMC9zdmciIHZpZXdCb3g9IjAgMCAzMi44MyAzNi44MyI+PGRlZnM+PHN0eWxlPi5jbHMtMXtmaWxsOiNmZmY7fS5jbHMtMSwuY2xzLTN7c3Ryb2tlOmdyYXk7c3Ryb2tlLW1pdGVybGltaXQ6MTA7c3Ryb2tlLXdpZHRoOjAuODNweDt9LmNscy0ye2ZpbGw6I2RjZGRkZDt9LmNscy0ze2ZpbGw6bm9uZTt9PC9zdHlsZT48L2RlZnM+PHRpdGxlPui1hOa6kCAxNjwvdGl0bGU+PGcgaWQ9IuWbvuWxgl8yIiBkYXRhLW5hbWU9IuWbvuWxgiAyIj48ZyBpZD0i5Zu+5bGCXzEtMiIgZGF0YS1uYW1lPSLlm77lsYIgMSI+PHJlY3QgY2xhc3M9ImNscy0xIiB4PSIwLjQyIiB5PSIwLjQyIiB3aWR0aD0iMzIiIGhlaWdodD0iMzYiLz48cmVjdCBjbGFzcz0iY2xzLTIiIHg9IjAuNDIiIHk9IjI3LjQ3IiB3aWR0aD0iMzIiIGhlaWdodD0iOC42NCIvPjxyZWN0IGNsYXNzPSJjbHMtMyIgeD0iMC40MiIgeT0iMC40MiIgd2lkdGg9IjMyIiBoZWlnaHQ9IjM2Ii8+PC9nPjwvZz48L3N2Zz4=;fontStyle=1" parent="-wsc2XBUxjwpWOjfPmOZ-196" vertex="1">
          <mxGeometry x="9.5" width="72" height="80.73" as="geometry" />
        </mxCell>
        <mxCell id="-wsc2XBUxjwpWOjfPmOZ-198" value="&lt;font color=&quot;#333333&quot;&gt;&lt;span style=&quot;font-size: 16px&quot;&gt;mac&lt;/span&gt;&lt;/font&gt;" style="rounded=0;whiteSpace=wrap;html=1;shadow=1;comic=0;strokeColor=#E6E6E6;strokeWidth=2;fillColor=#ffffff;gradientColor=none;fontSize=22;fontColor=#FFFFFF;verticalAlign=bottom;fontStyle=1" parent="-wsc2XBUxjwpWOjfPmOZ-196" vertex="1">
          <mxGeometry y="93.00000000000011" width="93" height="30" as="geometry" />
        </mxCell>
        <mxCell id="-wsc2XBUxjwpWOjfPmOZ-199" value="" style="shape=image;verticalLabelPosition=bottom;verticalAlign=top;imageAspect=0;aspect=fixed;image=data:image/svg+xml,PHN2ZyB4bWxucz0iaHR0cDovL3d3dy53My5vcmcvMjAwMC9zdmciIHhtbG5zOnhsaW5rPSJodHRwOi8vd3d3LnczLm9yZy8xOTk5L3hsaW5rIiB0PSIxNjI2ODM0NDQ1ODIxIiBjbGFzcz0iaWNvbiIgdmlld0JveD0iMCAxMDguODAwMDAzMDUxNzU3ODEgMTAyNCA4MDYuNDAwMDI0NDE0MDYyNSIgdmVyc2lvbj0iMS4xIiBwLWlkPSIxNzQ2OSIgd2lkdGg9IjEwMjQiIGhlaWdodD0iODA2LjQwMDAyNDQxNDA2MjUiPjxkZWZzPjxzdHlsZSB0eXBlPSJ0ZXh0L2NzcyIvPjwvZGVmcz48cGF0aCBkPSJNOTYwIDEwOC44YzM1LjIgMCA2NCAyOC44IDY0IDY0djUxOC40YzAgMzUuMi0yOC44IDY0LTY0IDY0SDY0Ni40bDU3LjYgMTE1LjJjNi40IDE2IDAgMzUuMi0xMi44IDQxLjYtMy4yIDMuMi05LjYgMy4yLTEyLjggMy4ySDM0OC44Yy0xOS4yIDAtMzItMTIuOC0zMi0zMiAwLTYuNCAwLTkuNiAzLjItMTIuOGw1Ny42LTExNS4ySDY0Yy0zNS4yIDAtNjQtMjguOC02NC02NFYxNzIuOGMwLTM1LjIgMjguOC02NCA2NC02NGg4OTZ6TTU5OC40IDI5NC40Yy0zNS4yLTMuMi02Ny4yIDE5LjItODYuNCAxOS4yLTE2IDAtNDEuNi0xOS4yLTcwLjQtMTkuMi0zNS4yIDAtNzAuNCAyMi40LTg5LjYgNTQuNC0zOC40IDY0LTkuNiAxNjMuMiAyNS42IDIxNy42bDYuNCA5LjZjMTYgMjIuNCAzNS4yIDQ4IDYwLjggNDQuOCAyOC44IDAgMzguNC0xOS4yIDcwLjQtMTkuMiAzMiAwIDQxLjYgMTkuMiA3MC40IDE2IDI4LjggMCA0OC0yNS42IDY3LjItNTQuNHMyOC44LTYwLjggMjguOC02MC44aC0zLjJDNjY1LjYgNDk2IDYyNCA0NzMuNiA2MjQgNDE2YzAtNTQuNCA0NC44LTgwIDQ4LTgzLjItMTkuMi0zMi01Ny42LTM4LjQtNzMuNi0zOC40eiBtMC0xMDUuNmMtMjIuNCAwLTQ4IDE2LTY0IDMyLTEyLjggMTYtMjUuNiA0MS42LTIyLjQgNjcuMiAyNS42IDAgNDgtMTIuOCA2NC0zMiAxMi44LTE2IDI1LjYtNDEuNiAyMi40LTY3LjJ6IiBmaWxsPSIjNTE1MTUxIiBwLWlkPSIxNzQ3MCIvPjwvc3ZnPg==;fontStyle=1" parent="-wsc2XBUxjwpWOjfPmOZ-196" vertex="1">
          <mxGeometry x="25.5" y="17" width="40" height="31.54" as="geometry" />
        </mxCell>
        <mxCell id="-wsc2XBUxjwpWOjfPmOZ-200" value="" style="group;fontStyle=1" parent="1" vertex="1" connectable="0">
          <mxGeometry x="1848" y="441" width="93" height="123.00000000000011" as="geometry" />
        </mxCell>
        <mxCell id="-wsc2XBUxjwpWOjfPmOZ-201" value="" style="shape=image;verticalLabelPosition=bottom;labelBackgroundColor=#ffffff;verticalAlign=top;aspect=fixed;imageAspect=0;image=data:image/svg+xml,PHN2ZyB4bWxucz0iaHR0cDovL3d3dy53My5vcmcvMjAwMC9zdmciIHZpZXdCb3g9IjAgMCAzMi44MyAzNi44MyI+PGRlZnM+PHN0eWxlPi5jbHMtMXtmaWxsOiNmZmY7fS5jbHMtMSwuY2xzLTN7c3Ryb2tlOmdyYXk7c3Ryb2tlLW1pdGVybGltaXQ6MTA7c3Ryb2tlLXdpZHRoOjAuODNweDt9LmNscy0ye2ZpbGw6I2RjZGRkZDt9LmNscy0ze2ZpbGw6bm9uZTt9PC9zdHlsZT48L2RlZnM+PHRpdGxlPui1hOa6kCAxNjwvdGl0bGU+PGcgaWQ9IuWbvuWxgl8yIiBkYXRhLW5hbWU9IuWbvuWxgiAyIj48ZyBpZD0i5Zu+5bGCXzEtMiIgZGF0YS1uYW1lPSLlm77lsYIgMSI+PHJlY3QgY2xhc3M9ImNscy0xIiB4PSIwLjQyIiB5PSIwLjQyIiB3aWR0aD0iMzIiIGhlaWdodD0iMzYiLz48cmVjdCBjbGFzcz0iY2xzLTIiIHg9IjAuNDIiIHk9IjI3LjQ3IiB3aWR0aD0iMzIiIGhlaWdodD0iOC42NCIvPjxyZWN0IGNsYXNzPSJjbHMtMyIgeD0iMC40MiIgeT0iMC40MiIgd2lkdGg9IjMyIiBoZWlnaHQ9IjM2Ii8+PC9nPjwvZz48L3N2Zz4=;fontStyle=1" parent="-wsc2XBUxjwpWOjfPmOZ-200" vertex="1">
          <mxGeometry x="9.5" width="72" height="80.73" as="geometry" />
        </mxCell>
        <mxCell id="-wsc2XBUxjwpWOjfPmOZ-202" value="&lt;font color=&quot;#333333&quot;&gt;&lt;span style=&quot;font-size: 16px&quot;&gt;浏览器&lt;/span&gt;&lt;/font&gt;" style="rounded=0;whiteSpace=wrap;html=1;shadow=1;comic=0;strokeColor=#E6E6E6;strokeWidth=2;fillColor=#ffffff;gradientColor=none;fontSize=22;fontColor=#FFFFFF;verticalAlign=bottom;fontStyle=1" parent="-wsc2XBUxjwpWOjfPmOZ-200" vertex="1">
          <mxGeometry y="93.00000000000011" width="93" height="30" as="geometry" />
        </mxCell>
        <mxCell id="-wsc2XBUxjwpWOjfPmOZ-203" value="" style="shape=image;verticalLabelPosition=bottom;verticalAlign=top;imageAspect=0;aspect=fixed;image=data:image/svg+xml,PHN2ZyB4bWxucz0iaHR0cDovL3d3dy53My5vcmcvMjAwMC9zdmciIHhtbG5zOnhsaW5rPSJodHRwOi8vd3d3LnczLm9yZy8xOTk5L3hsaW5rIiB0PSIxNjI2ODM0NDc3NjQ0IiBjbGFzcz0iaWNvbiIgdmlld0JveD0iNDIuNjY2OTkyMTg3NSA0OS4wNjcwNDMzMDQ0NDMzNiA5MzguNjY2MDE1NjI1IDkyMy43MzI5NzExOTE0MDYyIiB2ZXJzaW9uPSIxLjEiIHAtaWQ9IjE4Njc2IiB3aWR0aD0iOTM4LjY2NjAxNTYyNSIgaGVpZ2h0PSI5MjMuNzMyOTcxMTkxNDA2MiI+PGRlZnM+PHN0eWxlIHR5cGU9InRleHQvY3NzIi8+PC9kZWZzPjxwYXRoIGQ9Ik05ODEuMzMzIDUzMy4zMzNjMCAxNy4wNjcgMCAzNi4yNjctMi4xMzMgNTMuMzM0SDM3My4zMzNjMCAxMDQuNTMzIDkxLjczNCAxODEuMzMzIDE5MiAxODEuMzMzIDY4LjI2NyAwIDEzNC40LTM0LjEzMyAxNjguNTM0LTkzLjg2N2gyMjEuODY2Yy01OS43MzMgMTY4LjUzNC0yMTcuNiAyODEuNi0zOTYuOCAyODEuNi02NCAwLTEyOC0xNC45MzMtMTg1LjYtNDQuOEMzMTMuNiA5NDAuOCAyMzIuNTMzIDk3Mi44IDE2Ni40IDk3Mi44Yy04OS42IDAtMTIzLjczMy01My4zMzMtMTIzLjczMy0xMzguNjY3IDAtNDkuMDY2IDEwLjY2Ni05NiAyNS42LTE0Mi45MzMgNi40LTI5Ljg2NyA0Mi42NjYtOTEuNzMzIDU3LjYtMTIxLjYgNjQtMTE1LjIgMTQ3LjItMjMwLjQgMjQ5LjYtMzE3Ljg2Ny03OC45MzQgMzQuMTM0LTE2OC41MzQgMTIxLjYtMjI0IDE4NS42IDQyLjY2Ni0xODkuODY2IDIxMy4zMzMtMzI2LjQgNDA3LjQ2Ni0zMjYuNGgyNS42YzY0LTI5Ljg2NiAxNTUuNzM0LTYxLjg2NiAyMjguMjY3LTYxLjg2NiA4My4yIDAgMTU3Ljg2NyAzMiAxNTcuODY3IDEyOCAwIDQ5LjA2Ni0xOS4yIDEwNC41MzMtNDAuNTM0IDE1MS40NjYgMzQuMTM0IDYxLjg2NyA1MS4yIDEzNC40IDUxLjIgMjA0Ljh6TTk0NS4wNjcgMTk4LjRjMC01OS43MzMtNDIuNjY3LTkzLjg2Ny05OC4xMzQtOTMuODY3LTQ0LjggMC05My44NjYgMTcuMDY3LTEzNC40IDM2LjI2N0M4MDAgMTc0LjkzMyA4NzAuNCAyMzQuNjY3IDkxNy4zMzMgMzExLjQ2N2MxNC45MzQtMzQuMTM0IDI3LjczNC03Ni44IDI3LjczNC0xMTMuMDY3ek0xMDguOCA4NDQuOGMwIDYxLjg2NyAzNi4yNjcgOTMuODY3IDk2IDkzLjg2NyA0Ni45MzMgMCA5OC4xMzMtMTkuMiAxMzguNjY3LTQ0LjhDMjU2IDg0Mi42NjcgMTkyIDc2My43MzMgMTYwIDY2OS44NjdjLTIzLjQ2NyA1MS4yLTUxLjIgMTE5LjQ2Ni01MS4yIDE3NC45MzN6IG0yNjQuNTMzLTM3My4zMzNoMzc5LjczNGMtMi4xMzQtMTAwLjI2Ny05My44NjctMTcyLjgtMTg5Ljg2Ny0xNzIuOC05OC4xMzMgMC0xODcuNzMzIDcyLjUzMy0xODkuODY3IDE3Mi44eiIgZmlsbD0iIzUxNTE1MSIgcC1pZD0iMTg2NzciLz48L3N2Zz4=;fontStyle=1" parent="-wsc2XBUxjwpWOjfPmOZ-200" vertex="1">
          <mxGeometry x="23.5" y="9" width="40" height="39.38" as="geometry" />
        </mxCell>
        <mxCell id="-wsc2XBUxjwpWOjfPmOZ-204" value="" style="group;fontStyle=1" parent="1" vertex="1" connectable="0">
          <mxGeometry x="1960" y="441" width="93" height="123.00000000000011" as="geometry" />
        </mxCell>
        <mxCell id="-wsc2XBUxjwpWOjfPmOZ-205" value="" style="shape=image;verticalLabelPosition=bottom;labelBackgroundColor=#ffffff;verticalAlign=top;aspect=fixed;imageAspect=0;image=data:image/svg+xml,PHN2ZyB4bWxucz0iaHR0cDovL3d3dy53My5vcmcvMjAwMC9zdmciIHZpZXdCb3g9IjAgMCAzMi44MyAzNi44MyI+PGRlZnM+PHN0eWxlPi5jbHMtMXtmaWxsOiNmZmY7fS5jbHMtMSwuY2xzLTN7c3Ryb2tlOmdyYXk7c3Ryb2tlLW1pdGVybGltaXQ6MTA7c3Ryb2tlLXdpZHRoOjAuODNweDt9LmNscy0ye2ZpbGw6I2RjZGRkZDt9LmNscy0ze2ZpbGw6bm9uZTt9PC9zdHlsZT48L2RlZnM+PHRpdGxlPui1hOa6kCAxNjwvdGl0bGU+PGcgaWQ9IuWbvuWxgl8yIiBkYXRhLW5hbWU9IuWbvuWxgiAyIj48ZyBpZD0i5Zu+5bGCXzEtMiIgZGF0YS1uYW1lPSLlm77lsYIgMSI+PHJlY3QgY2xhc3M9ImNscy0xIiB4PSIwLjQyIiB5PSIwLjQyIiB3aWR0aD0iMzIiIGhlaWdodD0iMzYiLz48cmVjdCBjbGFzcz0iY2xzLTIiIHg9IjAuNDIiIHk9IjI3LjQ3IiB3aWR0aD0iMzIiIGhlaWdodD0iOC42NCIvPjxyZWN0IGNsYXNzPSJjbHMtMyIgeD0iMC40MiIgeT0iMC40MiIgd2lkdGg9IjMyIiBoZWlnaHQ9IjM2Ii8+PC9nPjwvZz48L3N2Zz4=;fontStyle=1" parent="-wsc2XBUxjwpWOjfPmOZ-204" vertex="1">
          <mxGeometry x="9.5" width="72" height="80.73" as="geometry" />
        </mxCell>
        <mxCell id="-wsc2XBUxjwpWOjfPmOZ-206" value="&lt;font color=&quot;#333333&quot;&gt;&lt;span style=&quot;font-size: 16px&quot;&gt;微信小程序&lt;/span&gt;&lt;/font&gt;" style="rounded=0;whiteSpace=wrap;html=1;shadow=1;comic=0;strokeColor=#E6E6E6;strokeWidth=2;fillColor=#ffffff;gradientColor=none;fontSize=22;fontColor=#FFFFFF;verticalAlign=bottom;fontStyle=1" parent="-wsc2XBUxjwpWOjfPmOZ-204" vertex="1">
          <mxGeometry y="93.00000000000011" width="93" height="30" as="geometry" />
        </mxCell>
        <mxCell id="-wsc2XBUxjwpWOjfPmOZ-207" value="" style="shape=image;verticalLabelPosition=bottom;verticalAlign=top;imageAspect=0;aspect=fixed;image=data:image/svg+xml,PHN2ZyB4bWxucz0iaHR0cDovL3d3dy53My5vcmcvMjAwMC9zdmciIHhtbG5zOnhsaW5rPSJodHRwOi8vd3d3LnczLm9yZy8xOTk5L3hsaW5rIiB0PSIxNjI2ODM0ODk5MjE5IiBjbGFzcz0iaWNvbiIgdmlld0JveD0iMCAwIDEwMjQgMTAyNCIgdmVyc2lvbj0iMS4xIiBwLWlkPSIyMDM2NiIgd2lkdGg9IjEwMjQiIGhlaWdodD0iMTAyNCI+PGRlZnM+PHN0eWxlIHR5cGU9InRleHQvY3NzIi8+PC9kZWZzPjxwYXRoIGQ9Ik01MTIgMTAyNGE1MTIgNTEyIDAgMSAxIDUxMi01MTIgNTEyLjUzNzgxNSA1MTIuNTM3ODE1IDAgMCAxLTUxMiA1MTJ6IG0wLTk0NS40Nzg5OTJhNDMzLjQ3ODk5MiA0MzMuNDc4OTkyIDAgMSAwIDQzMy40Nzg5OTIgNDMzLjQ3ODk5MiA0MzQuMjg1NzE0IDQzNC4yODU3MTQgMCAwIDAtNDMzLjQ3ODk5Mi00MzMuNDc4OTkyek0zODkuOTE1OTY2IDc3My4zNzgxNTFjLTg3LjEyNjA1IDAtMTU3LjU3OTgzMi02Ni4xNTEyNjEtMTU3LjU3OTgzMi0xNDcuMzYxMzQ0YTE0Mi43MzYxMzQgMTQyLjczNjEzNCAwIDAgMSAyMC40MzY5NzUtNzIuNjA1MDQyIDE1NC45OTgzMTkgMTU0Ljk5ODMxOSAwIDAgMSA4OS44MTUxMjYtNjcuNzY0NzA2IDg2LjkxMDkyNCA4Ni45MTA5MjQgMCAwIDEgMjYuODkwNzU3LTQuMzAyNTIxIDM5Ljc5ODMxOSAzOS43OTgzMTkgMCAwIDEgMCA3OS41OTY2MzhoLTIuNjg5MDc2YTc3Ljc2ODA2NyA3Ny43NjgwNjcgMCAwIDAtNDUuNzE0Mjg2IDMyLjgwNjcyMyA1OC4wODQwMzQgNTguMDg0MDM0IDAgMCAwLTguNjA1MDQyIDMxLjE5MzI3N2MwIDM3LjEwOTI0NCAzNC40MjAxNjggNjcuMjI2ODkxIDc3LjQ0NTM3OCA2Ny4yMjY4OTFhODUuMTg5OTE2IDg1LjE4OTkxNiAwIDAgMCA0Mi40ODczOTUtMTEuMjk0MTE3IDY0LjUzNzgxNSA2NC41Mzc4MTUgMCAwIDAgMzQuOTU3OTg0LTU1LjkzMjc3NFYzOTQuMjE4NDg3YzAtNTEuNjMwMjUyIDI3Ljk2NjM4Ny05OC40MjAxNjggNzUuMjk0MTE3LTEyNS4zMTA5MjRhMTY1LjcwMDg0IDE2NS43MDA4NCAwIDAgMSA4MS43NDc4OTktMjEuNTEyNjA1Yzg3LjEyNjA1IDAgMTU3LjU3OTgzMiA2Ni4xNTEyNjEgMTU3LjU3OTgzMiAxNDcuMzYxMzQ1YTE0Mi43MzYxMzQgMTQyLjczNjEzNCAwIDAgMS0yMC40MzY5NzUgNzIuNjA1MDQyIDE1NC45OTgzMTkgMTU0Ljk5ODMxOSAwIDAgMS04OS44MTUxMjYgNjcuNzY0NzA1IDkxLjkxMjYwNSA5MS45MTI2MDUgMCAwIDEtMjYuODkwNzU2IDQuMzAyNTIxIDM5Ljc5ODMxOSAzOS43OTgzMTkgMCAwIDEgMC03OS41OTY2MzhoMi42ODkwNzZjMjAuNDM2OTc1LTYuNDUzNzgyIDM3LjEwOTI0NC0xNy43NDc4OTkgNDYuMjUyMTAxLTMzLjM0NDUzOGE1OC4wODQwMzQgNTguMDg0MDM0IDAgMCAwIDguNjA1MDQyLTMxLjE5MzI3N2MwLTM3LjEwOTI0NC0zNC45NTc5ODMtNjcuMjI2ODkxLTc3LjQ0NTM3OS02Ny4yMjY4OTFhODUuMTg5OTE2IDg1LjE4OTkxNiAwIDAgMC00Mi40ODczOTQgMTEuMjk0MTE4IDY0LjUzNzgxNSA2NC41Mzc4MTUgMCAwIDAtMzQuOTU3OTg0IDU1LjkzMjc3M3YyMzEuMjYwNTA0YzAgNTEuNjMwMjUyLTI3Ljk2NjM4NyA5OC40MjAxNjgtNzUuMjk0MTE3IDEyNS4zMTA5MjRhMTcwLjQ4NzM5NSAxNzAuNDg3Mzk1IDAgMCAxLTgyLjI4NTcxNSAyMS41MTI2MDV6IiBwLWlkPSIyMDM2NyIgZmlsbD0iIzUxNTE1MSIvPjwvc3ZnPg==;fontStyle=1" parent="-wsc2XBUxjwpWOjfPmOZ-204" vertex="1">
          <mxGeometry x="24.5" y="9" width="40" height="40" as="geometry" />
        </mxCell>
        <mxCell id="-wsc2XBUxjwpWOjfPmOZ-214" style="edgeStyle=orthogonalEdgeStyle;rounded=0;orthogonalLoop=1;jettySize=auto;html=1;exitX=1;exitY=0.5;exitDx=0;exitDy=0;entryX=0;entryY=0.5;entryDx=0;entryDy=0;startArrow=classic;startFill=1;endArrow=classic;endFill=1;fontStyle=1" parent="1" source="-wsc2XBUxjwpWOjfPmOZ-148" target="-wsc2XBUxjwpWOjfPmOZ-22" edge="1">
          <mxGeometry relative="1" as="geometry" />
        </mxCell>
        <mxCell id="-wsc2XBUxjwpWOjfPmOZ-216" style="edgeStyle=orthogonalEdgeStyle;rounded=0;orthogonalLoop=1;jettySize=auto;html=1;exitX=1;exitY=0.5;exitDx=0;exitDy=0;entryX=0;entryY=0.5;entryDx=0;entryDy=0;startArrow=none;startFill=0;endArrow=classic;endFill=1;fontStyle=1" parent="1" source="-wsc2XBUxjwpWOjfPmOZ-22" target="-wsc2XBUxjwpWOjfPmOZ-156" edge="1">
          <mxGeometry relative="1" as="geometry">
            <mxPoint x="1399" y="538.6100000000001" as="targetPoint" />
          </mxGeometry>
        </mxCell>
        <mxCell id="-wsc2XBUxjwpWOjfPmOZ-220" value="&lt;h4&gt;&lt;font color=&quot;#ffffff&quot;&gt;&lt;span style=&quot;font-size: 20px&quot;&gt;学生端&lt;/span&gt;&lt;/font&gt;&lt;/h4&gt;" style="rounded=0;whiteSpace=wrap;html=1;shadow=0;dashed=1;comic=0;strokeColor=none;gradientColor=none;fontSize=22;fillColor=#333333;aspect=fixed;verticalAlign=middle;fontStyle=1" parent="1" vertex="1">
          <mxGeometry x="1827" y="57" width="103" height="35" as="geometry" />
        </mxCell>
        <mxCell id="-wsc2XBUxjwpWOjfPmOZ-228" style="edgeStyle=orthogonalEdgeStyle;rounded=0;orthogonalLoop=1;jettySize=auto;html=1;exitX=0.5;exitY=1;exitDx=0;exitDy=0;exitPerimeter=0;entryX=0.5;entryY=0;entryDx=0;entryDy=0;startArrow=classic;startFill=1;endArrow=classic;endFill=1;fontStyle=1" parent="1" source="-wsc2XBUxjwpWOjfPmOZ-85" target="-wsc2XBUxjwpWOjfPmOZ-73" edge="1">
          <mxGeometry relative="1" as="geometry" />
        </mxCell>
        <mxCell id="-wsc2XBUxjwpWOjfPmOZ-229" style="edgeStyle=orthogonalEdgeStyle;rounded=0;orthogonalLoop=1;jettySize=auto;html=1;exitX=1;exitY=0.5;exitDx=0;exitDy=0;entryX=0;entryY=0.75;entryDx=0;entryDy=0;startArrow=classic;startFill=1;endArrow=classic;endFill=1;fontStyle=1" parent="1" source="-wsc2XBUxjwpWOjfPmOZ-73" target="-wsc2XBUxjwpWOjfPmOZ-83" edge="1">
          <mxGeometry relative="1" as="geometry" />
        </mxCell>
        <mxCell id="-wsc2XBUxjwpWOjfPmOZ-230" style="edgeStyle=orthogonalEdgeStyle;rounded=0;orthogonalLoop=1;jettySize=auto;html=1;exitX=1;exitY=0.75;exitDx=0;exitDy=0;entryX=0;entryY=0.5;entryDx=0;entryDy=0;startArrow=classic;startFill=1;endArrow=classic;endFill=1;fontStyle=1" parent="1" source="-wsc2XBUxjwpWOjfPmOZ-83" target="-wsc2XBUxjwpWOjfPmOZ-77" edge="1">
          <mxGeometry relative="1" as="geometry" />
        </mxCell>
        <mxCell id="-wsc2XBUxjwpWOjfPmOZ-235" value="" style="group;fontStyle=1" parent="1" vertex="1" connectable="0">
          <mxGeometry x="1019" y="-331.9999999999999" width="270" height="141" as="geometry" />
        </mxCell>
        <mxCell id="-wsc2XBUxjwpWOjfPmOZ-87" value="" style="shape=card;whiteSpace=wrap;html=1;shadow=0;dashed=1;comic=0;strokeColor=#B3B3B3;gradientColor=none;fontSize=22;direction=east;flipV=0;flipH=1;fillColor=none;perimeterSpacing=1;strokeWidth=2;labelPosition=center;verticalLabelPosition=bottom;align=center;verticalAlign=top;fontFamily=Verdana;fontStyle=1" parent="-wsc2XBUxjwpWOjfPmOZ-235" vertex="1">
          <mxGeometry width="270" height="141" as="geometry" />
        </mxCell>
        <mxCell id="-wsc2XBUxjwpWOjfPmOZ-96" value="" style="group;fontStyle=1" parent="-wsc2XBUxjwpWOjfPmOZ-235" vertex="1" connectable="0">
          <mxGeometry x="20" y="11" width="100" height="112" as="geometry" />
        </mxCell>
        <mxCell id="-wsc2XBUxjwpWOjfPmOZ-97" value="&lt;font color=&quot;#333333&quot;&gt;&lt;span style=&quot;font-size: 16px&quot;&gt;&lt;span&gt;DDOS高防IP&lt;/span&gt;&lt;/span&gt;&lt;/font&gt;" style="rounded=0;whiteSpace=wrap;html=1;shadow=1;comic=0;strokeColor=#E6E6E6;strokeWidth=2;fillColor=#ffffff;gradientColor=none;fontSize=22;fontColor=#FFFFFF;verticalAlign=bottom;fontStyle=1" parent="-wsc2XBUxjwpWOjfPmOZ-96" vertex="1">
          <mxGeometry x="-3" y="82" width="100" height="30" as="geometry" />
        </mxCell>
        <mxCell id="-wsc2XBUxjwpWOjfPmOZ-98" value="" style="shape=image;verticalLabelPosition=bottom;labelBackgroundColor=#ffffff;verticalAlign=top;aspect=fixed;imageAspect=0;image=data:image/svg+xml,PHN2ZyB4bWxucz0iaHR0cDovL3d3dy53My5vcmcvMjAwMC9zdmciIHZpZXdCb3g9IjAgMCA0MC43MSAzNi44NCI+PGRlZnM+PHN0eWxlPi5jbHMtMXtmaWxsOiNmZmY7c3Ryb2tlOiMyMzE4MTU7c3Ryb2tlLXdpZHRoOjAuNzhweDt9LmNscy0xLC5jbHMtNHtzdHJva2UtbWl0ZXJsaW1pdDoxMDt9LmNscy0ye2ZpbGw6I2VmZWZlZjt9LmNscy0ze2ZpbGw6I2RjZGRkZDt9LmNscy00e2ZpbGw6bm9uZTtzdHJva2U6Z3JheTtzdHJva2Utd2lkdGg6MC42OHB4O308L3N0eWxlPjwvZGVmcz48dGl0bGU+6LWE5rqQIDE4PC90aXRsZT48ZyBpZD0i5Zu+5bGCXzIiIGRhdGEtbmFtZT0i5Zu+5bGCIDIiPjxnIGlkPSLlm77lsYJfMS0yIiBkYXRhLW5hbWU9IuWbvuWxgiAxIj48cG9seWdvbiBjbGFzcz0iY2xzLTEiIHBvaW50cz0iNDAuMzEgMTIuODYgMjAuMzYgMC40NiAwLjQgMTIuODYgMC4zOSAyNC4wNSAyMC4zNCAzNi40NiAyMC4zNyAzNi40NiA0MC4zMyAyNC4wNSA0MC4zMSAxMi44NiIvPjxwb2x5Z29uIGNsYXNzPSJjbHMtMiIgcG9pbnRzPSIyMC40IDM2LjQzIDAuNDUgMjQuMDIgMC40NiAxMi44NCAyMC40MiAyNS4yNCAyMC40IDM2LjQzIi8+PHBvbHlnb24gY2xhc3M9ImNscy0zIiBwb2ludHM9IjIwLjQzIDM2LjQzIDQwLjM4IDI0LjAyIDQwLjM3IDEyLjg0IDIwLjQyIDI1LjI0IDIwLjQzIDM2LjQzIi8+PHBvbHlnb24gY2xhc3M9ImNscy00IiBwb2ludHM9IjQwLjMxIDEyLjg2IDIwLjM2IDAuNDYgMC40IDEyLjg2IDAuMzkgMjQuMDUgMjAuMzQgMzYuNDYgMjAuMzcgMzYuNDYgNDAuMzMgMjQuMDUgNDAuMzEgMTIuODYiLz48L2c+PC9nPjwvc3ZnPg==;fontStyle=1" parent="-wsc2XBUxjwpWOjfPmOZ-96" vertex="1">
          <mxGeometry x="1.0000000000001137" width="90" height="81.22" as="geometry" />
        </mxCell>
        <mxCell id="-wsc2XBUxjwpWOjfPmOZ-99" value="" style="shape=image;verticalLabelPosition=bottom;verticalAlign=top;imageAspect=0;image=data:image/svg+xml,PHN2ZyB3aWR0aD0iMjIuNTA3ODEyNSIgaGVpZ2h0PSIyNC43NzM0Mzc1IiB4bWxucz0iaHR0cDovL3d3dy53My5vcmcvMjAwMC9zdmciIHhtbG5zOnhsaW5rPSJodHRwOi8vd3d3LnczLm9yZy8xOTk5L3hsaW5rIiBvdmVyZmxvdz0iaGlkZGVuIiB2aWV3Qm94PSIzLjMzNTkzNzUgMi4xMTMyODEyNSAyMi41MDc4MTI1IDI0Ljc3MzQzNzUiPjxkZWZzPjxjbGlwUGF0aCBpZD0iY2xpcDAiPjxyZWN0IHg9IjcxMCIgeT0iMzE0IiB3aWR0aD0iMjkiIGhlaWdodD0iMjkiLz48L2NsaXBQYXRoPjxjbGlwUGF0aCBpZD0iY2xpcDEiPjxyZWN0IHg9IjcxMSIgeT0iMzE1IiB3aWR0aD0iMjciIGhlaWdodD0iMjciLz48L2NsaXBQYXRoPjxjbGlwUGF0aCBpZD0iY2xpcDIiPjxyZWN0IHg9IjcxMSIgeT0iMzE1IiB3aWR0aD0iMjciIGhlaWdodD0iMjciLz48L2NsaXBQYXRoPjxjbGlwUGF0aCBpZD0iY2xpcDMiPjxyZWN0IHg9IjcxMSIgeT0iMzE1IiB3aWR0aD0iMjciIGhlaWdodD0iMjciLz48L2NsaXBQYXRoPjwvZGVmcz48ZyBjbGlwLXBhdGg9InVybCgjY2xpcDApIiB0cmFuc2Zvcm09InRyYW5zbGF0ZSgtNzEwIC0zMTQpIj48ZyBjbGlwLXBhdGg9InVybCgjY2xpcDEpIj48ZyBjbGlwLXBhdGg9InVybCgjY2xpcDIpIj48ZyBjbGlwLXBhdGg9InVybCgjY2xpcDMpIj48cGF0aCBkPSJNNzI0LjU5NyAzNDAuODg4IDcyNC40MzIgMzQwLjgzOEM3MTIuODggMzM3LjM3MyA3MTMuMzIgMzI5Ljg4NiA3MTMuMzQ0IDMyOS41NjlMNzEzLjM0NCAzMTYuMTEyIDczNS41NTcgMzE2LjExMiA3MzUuNTU3IDMxNy4yMzcgNzE0LjQ2OCAzMTcuMjM3IDcxNC40NjggMzI5LjYxMkM3MTQuNDQ4IDMyOS45MzIgNzE0LjEyIDMzNi41IDcyNC41ODggMzM5LjcxMSA3MzQuNjAxIDMzNi40NzUgNzM0LjcxOCAzMjkuNjgxIDczNC43MTggMzI5LjYxMkw3MzQuNzE4IDMyMS4yNjMgNzM1Ljg0MyAzMjAuNjEyIDczNS44NDMgMzI5LjYxMkM3MzUuODQzIDMyOS45MjggNzM1LjcxNyAzMzcuMzc1IDcyNC43NjIgMzQwLjgzNloiIGZpbGw9IiMwMEE0RkYiLz48cGF0aCBkPSJNNzI0LjA3NCAzMjcuNDU5IDcyNS4xOTkgMzI3LjQ1OSA3MjUuMTk5IDM0MC4xNDMgNzI0LjA3NCAzNDAuMTQzWiIgZmlsbD0iIzAwQTRGRiIvPjxwYXRoIGQ9Ik03MjQuNjcxIDMyOC43NzEgNzM1Ljg0MyAzMjIuMDQ0IDczNS44NDMgMzIwLjU4NiA3MjQuNjcxIDMyNy4zMzYgNzI0LjY3MSAzMjguNzcxWiIgZmlsbD0iIzAwQTRGRiIvPjxwYXRoIGQ9Ik03MjQuNjcxIDMyOC43NzEgNzEzLjQ5OSAzMjIuMDQ0IDcxMy40OTkgMzIwLjU4NiA3MjQuNjcxIDMyNy4zMzYgNzI0LjY3MSAzMjguNzcxWiIgZmlsbD0iIzAwQTRGRiIvPjwvZz48L2c+PC9nPjwvZz48L3N2Zz4=;fontStyle=1" parent="-wsc2XBUxjwpWOjfPmOZ-96" vertex="1">
          <mxGeometry x="27" y="14" width="36" height="36" as="geometry" />
        </mxCell>
        <mxCell id="-wsc2XBUxjwpWOjfPmOZ-100" value="" style="group;fontStyle=1" parent="-wsc2XBUxjwpWOjfPmOZ-235" vertex="1" connectable="0">
          <mxGeometry x="160" y="11" width="92" height="112" as="geometry" />
        </mxCell>
        <mxCell id="-wsc2XBUxjwpWOjfPmOZ-101" value="&lt;font color=&quot;#333333&quot;&gt;&lt;span style=&quot;font-size: 16px&quot;&gt;&lt;span&gt;全站加速&lt;/span&gt;&lt;/span&gt;&lt;/font&gt;" style="rounded=0;whiteSpace=wrap;html=1;shadow=1;comic=0;strokeColor=#E6E6E6;strokeWidth=2;fillColor=#ffffff;gradientColor=none;fontSize=22;fontColor=#FFFFFF;verticalAlign=bottom;fontStyle=1" parent="-wsc2XBUxjwpWOjfPmOZ-100" vertex="1">
          <mxGeometry y="82" width="92" height="30" as="geometry" />
        </mxCell>
        <mxCell id="-wsc2XBUxjwpWOjfPmOZ-102" value="" style="shape=image;verticalLabelPosition=bottom;labelBackgroundColor=#ffffff;verticalAlign=top;aspect=fixed;imageAspect=0;image=data:image/svg+xml,PHN2ZyB4bWxucz0iaHR0cDovL3d3dy53My5vcmcvMjAwMC9zdmciIHZpZXdCb3g9IjAgMCA0MC43MSAzNi44NCI+PGRlZnM+PHN0eWxlPi5jbHMtMXtmaWxsOiNmZmY7c3Ryb2tlOiMyMzE4MTU7c3Ryb2tlLXdpZHRoOjAuNzhweDt9LmNscy0xLC5jbHMtNHtzdHJva2UtbWl0ZXJsaW1pdDoxMDt9LmNscy0ye2ZpbGw6I2VmZWZlZjt9LmNscy0ze2ZpbGw6I2RjZGRkZDt9LmNscy00e2ZpbGw6bm9uZTtzdHJva2U6Z3JheTtzdHJva2Utd2lkdGg6MC42OHB4O308L3N0eWxlPjwvZGVmcz48dGl0bGU+6LWE5rqQIDE4PC90aXRsZT48ZyBpZD0i5Zu+5bGCXzIiIGRhdGEtbmFtZT0i5Zu+5bGCIDIiPjxnIGlkPSLlm77lsYJfMS0yIiBkYXRhLW5hbWU9IuWbvuWxgiAxIj48cG9seWdvbiBjbGFzcz0iY2xzLTEiIHBvaW50cz0iNDAuMzEgMTIuODYgMjAuMzYgMC40NiAwLjQgMTIuODYgMC4zOSAyNC4wNSAyMC4zNCAzNi40NiAyMC4zNyAzNi40NiA0MC4zMyAyNC4wNSA0MC4zMSAxMi44NiIvPjxwb2x5Z29uIGNsYXNzPSJjbHMtMiIgcG9pbnRzPSIyMC40IDM2LjQzIDAuNDUgMjQuMDIgMC40NiAxMi44NCAyMC40MiAyNS4yNCAyMC40IDM2LjQzIi8+PHBvbHlnb24gY2xhc3M9ImNscy0zIiBwb2ludHM9IjIwLjQzIDM2LjQzIDQwLjM4IDI0LjAyIDQwLjM3IDEyLjg0IDIwLjQyIDI1LjI0IDIwLjQzIDM2LjQzIi8+PHBvbHlnb24gY2xhc3M9ImNscy00IiBwb2ludHM9IjQwLjMxIDEyLjg2IDIwLjM2IDAuNDYgMC40IDEyLjg2IDAuMzkgMjQuMDUgMjAuMzQgMzYuNDYgMjAuMzcgMzYuNDYgNDAuMzMgMjQuMDUgNDAuMzEgMTIuODYiLz48L2c+PC9nPjwvc3ZnPg==;fontStyle=1" parent="-wsc2XBUxjwpWOjfPmOZ-100" vertex="1">
          <mxGeometry x="1.0000000000001137" width="90" height="81.22" as="geometry" />
        </mxCell>
        <mxCell id="-wsc2XBUxjwpWOjfPmOZ-103" value="" style="shape=image;verticalLabelPosition=bottom;verticalAlign=top;imageAspect=0;image=data:image/svg+xml,PHN2ZyB3aWR0aD0iMjEuODc1IiBoZWlnaHQ9IjI1IiB4bWxucz0iaHR0cDovL3d3dy53My5vcmcvMjAwMC9zdmciIHhtbG5zOnhsaW5rPSJodHRwOi8vd3d3LnczLm9yZy8xOTk5L3hsaW5rIiBvdmVyZmxvdz0iaGlkZGVuIiB2aWV3Qm94PSIyLjU2MjUgMSAyMS44NzUgMjUiPjxkZWZzPjxjbGlwUGF0aCBpZD0iY2xpcDAiPjxyZWN0IHg9IjkzMiIgeT0iMTAyIiB3aWR0aD0iMjciIGhlaWdodD0iMjciLz48L2NsaXBQYXRoPjxjbGlwUGF0aCBpZD0iY2xpcDEiPjxyZWN0IHg9IjkzMyIgeT0iMTAzIiB3aWR0aD0iMjUiIGhlaWdodD0iMjUiLz48L2NsaXBQYXRoPjxjbGlwUGF0aCBpZD0iY2xpcDIiPjxyZWN0IHg9IjkzMyIgeT0iMTAzIiB3aWR0aD0iMjUiIGhlaWdodD0iMjUiLz48L2NsaXBQYXRoPjxjbGlwUGF0aCBpZD0iY2xpcDMiPjxyZWN0IHg9IjkzMyIgeT0iMTAzIiB3aWR0aD0iMjUiIGhlaWdodD0iMjUiLz48L2NsaXBQYXRoPjwvZGVmcz48ZyBjbGlwLXBhdGg9InVybCgjY2xpcDApIiB0cmFuc2Zvcm09InRyYW5zbGF0ZSgtOTMyIC0xMDIpIj48ZyBjbGlwLXBhdGg9InVybCgjY2xpcDEpIj48ZyBjbGlwLXBhdGg9InVybCgjY2xpcDIpIj48ZyBjbGlwLXBhdGg9InVybCgjY2xpcDMpIj48cGF0aCBkPSJNOTU1LjM5NiAxMTIuMjcxIDk1NS4zOTYgMTIxLjI4MSA5NDUuNSAxMjYuOTU4IDkzNS42MDQgMTIxLjI4MSA5MzUuNjA0IDEwOS43MTkgOTQ1LjUgMTA0LjA0MiA5NTQuOTc5IDEwOS40NTggOTU1LjgxMiAxMDguODg1IDk0NS41IDEwMyA5MzQuNTYyIDEwOS4yNSA5MzQuNTYyIDEyMS43NSA5NDUuNSAxMjggOTU2LjQzOCAxMjEuNzUgOTU2LjQzOCAxMTEuNTk0WiIgZmlsbD0iIzAwQTRGRiIgZmlsbC1ydWxlPSJldmVub2RkIi8+PHBhdGggZD0iTTk0Mi40MTIgMTExLjU4IDk0Mi40MTIgMTExLjU4NiA5NDUuNSAxMDkuOTE0IDk1MC43MDggMTEyLjczNSA5NTAuNzA4IDExNi4wMjggOTUxLjc1IDExNS40NjQgOTUxLjc1IDExMi4xMTUgOTQ1LjUgMTA4LjcyOSA5MzkuMjUgMTEyLjExNSA5MzkuMjUgMTEzLjI5MVoiIGZpbGw9IiMwMEE0RkYiLz48cGF0aCBkPSJNOTUwLjcwOCAxMTguMjU4IDk1MC43MDggMTE4LjI2NSA5NDUuNSAxMjEuMDg2IDk0MC4yOTIgMTE4LjI2NSA5NDAuMjkyIDExNC45NjggOTM5LjI1IDExNS41MzIgOTM5LjI1IDExOC44ODUgOTQ1LjUgMTIyLjI3MSA5NTEuNzUgMTE4Ljg4NSA5NTEuNzUgMTE3LjY5NFoiIGZpbGw9IiMwMEE0RkYiLz48cGF0aCBkPSJNOTM5Ljc3MSAxMTMuOTM4QzkzOS4xOTUgMTEzLjkzOCA5MzguNzI5IDExNC40MDQgOTM4LjcyOSAxMTQuOTc5IDkzOC43MjkgMTE1LjU1NSA5MzkuMTk1IDExNi4wMjEgOTM5Ljc3MSAxMTYuMDIxIDk0MC4zNDYgMTE2LjAyMSA5NDAuODEyIDExNS41NTUgOTQwLjgxMiAxMTQuOTc5IDk0MC44MTIgMTE0LjQwNCA5NDAuMzQ2IDExMy45MzggOTM5Ljc3MSAxMTMuOTM4TDkzOS43NzEgMTEzLjkzOFoiIGZpbGw9IiMwMEE0RkYiLz48cGF0aCBkPSJNOTUxLjIyOSAxMTQuOTc5Qzk1MC42NTQgMTE0Ljk3OSA5NTAuMTg4IDExNS40NDUgOTUwLjE4OCAxMTYuMDIxIDk1MC4xODggMTE2LjU5NiA5NTAuNjU0IDExNy4wNjIgOTUxLjIyOSAxMTcuMDYyIDk1MS44MDUgMTE3LjA2MiA5NTIuMjcxIDExNi41OTYgOTUyLjI3MSAxMTYuMDIxIDk1Mi4yNzEgMTE1LjQ0NSA5NTEuODA1IDExNC45NzkgOTUxLjIyOSAxMTQuOTc5TDk1MS4yMjkgMTE0Ljk3OVoiIGZpbGw9IiMwMEE0RkYiLz48cGF0aCBkPSJNOTQ1LjUgMTEzLjAxOSA5NDYuNTQyIDExMy41NCA5NDYuNTQyIDExNy40NiA5NDUuNSAxMTcuOTgxIDk0NC40NTggMTE3LjQ2IDk0NC40NTggMTEzLjU0IDk0NS41IDExMy4wMTlNOTQ1LjUgMTExLjg1NCA5NDMuNDE3IDExMi44OTYgOTQzLjQxNyAxMTguMTA0IDk0NS41IDExOS4xNDYgOTQ3LjU4MyAxMTguMTA0IDk0Ny41ODMgMTEyLjg5NiA5NDUuNSAxMTEuODU0IDk0NS41IDExMS44NTRaIiBmaWxsPSIjMDBBNEZGIi8+PC9nPjwvZz48L2c+PC9nPjwvc3ZnPg==;fontStyle=1" parent="-wsc2XBUxjwpWOjfPmOZ-100" vertex="1">
          <mxGeometry x="28" y="10" width="36" height="36" as="geometry" />
        </mxCell>
        <mxCell id="-wsc2XBUxjwpWOjfPmOZ-104" value="或" style="text;html=1;align=center;verticalAlign=middle;resizable=0;points=[];autosize=1;strokeColor=none;fontSize=20;fontFamily=Verdana;fontStyle=1" parent="-wsc2XBUxjwpWOjfPmOZ-235" vertex="1">
          <mxGeometry x="115" y="36" width="40" height="30" as="geometry" />
        </mxCell>
        <mxCell id="-wsc2XBUxjwpWOjfPmOZ-238" style="edgeStyle=orthogonalEdgeStyle;rounded=0;orthogonalLoop=1;jettySize=auto;html=1;exitX=0.5;exitY=1;exitDx=0;exitDy=0;exitPerimeter=0;entryX=0;entryY=0;entryDx=0;entryDy=85.055;entryPerimeter=0;startArrow=classic;startFill=1;endArrow=classic;endFill=1;fontStyle=1" parent="1" source="-wsc2XBUxjwpWOjfPmOZ-87" target="-wsc2XBUxjwpWOjfPmOZ-85" edge="1">
          <mxGeometry relative="1" as="geometry" />
        </mxCell>
        <mxCell id="-wsc2XBUxjwpWOjfPmOZ-240" style="edgeStyle=orthogonalEdgeStyle;rounded=0;orthogonalLoop=1;jettySize=auto;html=1;exitX=0.5;exitY=1;exitDx=0;exitDy=0;entryX=0.5;entryY=0;entryDx=0;entryDy=0;startArrow=classic;startFill=1;endArrow=classic;endFill=1;fontStyle=1" parent="1" source="-wsc2XBUxjwpWOjfPmOZ-76" target="-wsc2XBUxjwpWOjfPmOZ-148" edge="1">
          <mxGeometry relative="1" as="geometry">
            <Array as="points">
              <mxPoint x="1142" y="300" />
              <mxPoint x="860" y="300" />
              <mxPoint x="860" y="400" />
              <mxPoint x="714" y="400" />
            </Array>
          </mxGeometry>
        </mxCell>
        <mxCell id="-wsc2XBUxjwpWOjfPmOZ-241" value="API调用" style="whiteSpace=wrap;html=1;fontSize=16;fontStyle=1" parent="1" vertex="1">
          <mxGeometry x="965" y="283" width="92" height="30" as="geometry" />
        </mxCell>
        <mxCell id="-wsc2XBUxjwpWOjfPmOZ-244" value="业务请求" style="whiteSpace=wrap;html=1;fontSize=16;fontStyle=1" parent="1" vertex="1">
          <mxGeometry x="1538" y="-283.5" width="90" height="30" as="geometry" />
        </mxCell>
        <mxCell id="-wsc2XBUxjwpWOjfPmOZ-265" style="edgeStyle=orthogonalEdgeStyle;rounded=0;orthogonalLoop=1;jettySize=auto;html=1;exitX=1;exitY=0.5;exitDx=0;exitDy=0;entryX=1;entryY=0.5;entryDx=0;entryDy=0;entryPerimeter=0;fontSize=16;startArrow=classic;startFill=1;endArrow=classic;endFill=1;fontStyle=1" parent="1" source="-wsc2XBUxjwpWOjfPmOZ-77" target="-wsc2XBUxjwpWOjfPmOZ-116" edge="1">
          <mxGeometry relative="1" as="geometry" />
        </mxCell>
        <mxCell id="-wsc2XBUxjwpWOjfPmOZ-266" style="edgeStyle=orthogonalEdgeStyle;rounded=0;orthogonalLoop=1;jettySize=auto;html=1;exitX=1;exitY=0.5;exitDx=0;exitDy=0;entryX=1;entryY=0.5;entryDx=0;entryDy=0;entryPerimeter=0;fontSize=16;startArrow=classic;startFill=1;endArrow=classic;endFill=1;fontStyle=1" parent="1" source="-wsc2XBUxjwpWOjfPmOZ-77" target="-wsc2XBUxjwpWOjfPmOZ-126" edge="1">
          <mxGeometry relative="1" as="geometry" />
        </mxCell>
        <mxCell id="-wsc2XBUxjwpWOjfPmOZ-276" style="edgeStyle=orthogonalEdgeStyle;rounded=0;orthogonalLoop=1;jettySize=auto;html=1;exitX=0.5;exitY=1;exitDx=0;exitDy=0;fontSize=16;startArrow=none;startFill=0;endArrow=classic;endFill=1;fontStyle=1" parent="1" source="-wsc2XBUxjwpWOjfPmOZ-147" edge="1">
          <mxGeometry relative="1" as="geometry">
            <Array as="points">
              <mxPoint x="714" y="899" />
              <mxPoint x="1620" y="899" />
            </Array>
            <mxPoint x="1620" y="610" as="targetPoint" />
          </mxGeometry>
        </mxCell>
        <mxCell id="-wsc2XBUxjwpWOjfPmOZ-270" value="&lt;span&gt;教学视频上传&lt;/span&gt;" style="whiteSpace=wrap;html=1;fontSize=16;fontStyle=1" parent="1" vertex="1">
          <mxGeometry x="980" y="884" width="168" height="30" as="geometry" />
        </mxCell>
        <mxCell id="-wsc2XBUxjwpWOjfPmOZ-277" style="edgeStyle=orthogonalEdgeStyle;rounded=0;orthogonalLoop=1;jettySize=auto;html=1;exitX=1;exitY=0.5;exitDx=0;exitDy=0;entryX=1;entryY=0.5;entryDx=0;entryDy=0;entryPerimeter=0;fontSize=16;startArrow=classic;startFill=1;endArrow=classic;endFill=1;fontStyle=1;strokeColor=#666666;" parent="1" source="-wsc2XBUxjwpWOjfPmOZ-156" target="-wsc2XBUxjwpWOjfPmOZ-219" edge="1">
          <mxGeometry relative="1" as="geometry">
            <Array as="points">
              <mxPoint x="1750" y="539" />
              <mxPoint x="1750" y="334" />
            </Array>
          </mxGeometry>
        </mxCell>
        <mxCell id="-wsc2XBUxjwpWOjfPmOZ-279" style="edgeStyle=orthogonalEdgeStyle;rounded=0;orthogonalLoop=1;jettySize=auto;html=1;exitX=0;exitY=0.5;exitDx=0;exitDy=0;entryX=-0.007;entryY=0.483;entryDx=0;entryDy=0;entryPerimeter=0;fontSize=16;startArrow=classic;startFill=1;endArrow=classic;endFill=1;fontStyle=1;strokeColor=#666666;" parent="1" source="-wsc2XBUxjwpWOjfPmOZ-148" target="-wsc2XBUxjwpWOjfPmOZ-209" edge="1">
          <mxGeometry relative="1" as="geometry">
            <Array as="points">
              <mxPoint x="580" y="539" />
              <mxPoint x="580" y="331" />
            </Array>
          </mxGeometry>
        </mxCell>
        <mxCell id="-wsc2XBUxjwpWOjfPmOZ-283" value="&lt;h4&gt;&lt;font color=&quot;#ffffff&quot; style=&quot;line-height: 100% ; font-size: 20px&quot;&gt;视频服务&lt;/font&gt;&lt;/h4&gt;" style="rounded=0;whiteSpace=wrap;html=1;shadow=0;dashed=1;comic=0;strokeColor=none;gradientColor=none;fontSize=22;fillColor=#333333;aspect=fixed;verticalAlign=middle;fontStyle=1" parent="1" vertex="1">
          <mxGeometry x="629" y="307" width="103" height="35" as="geometry" />
        </mxCell>
        <mxCell id="-wsc2XBUxjwpWOjfPmOZ-284" value="&lt;h4&gt;&lt;font color=&quot;#ffffff&quot; style=&quot;line-height: 100% ; font-size: 20px&quot;&gt;平台服务&lt;/font&gt;&lt;/h4&gt;" style="rounded=0;whiteSpace=wrap;html=1;shadow=0;dashed=1;comic=0;strokeColor=none;gradientColor=none;fontSize=22;fillColor=#333333;aspect=fixed;verticalAlign=middle;fontStyle=1" parent="1" vertex="1">
          <mxGeometry x="629" y="-378" width="103" height="35" as="geometry" />
        </mxCell>
        <mxCell id="-wsc2XBUxjwpWOjfPmOZ-286" style="edgeStyle=orthogonalEdgeStyle;rounded=0;orthogonalLoop=1;jettySize=auto;html=1;exitX=1;exitY=0.5;exitDx=0;exitDy=0;exitPerimeter=0;entryX=-0.004;entryY=0.481;entryDx=0;entryDy=0;entryPerimeter=0;fontSize=16;startArrow=classic;startFill=1;endArrow=classic;endFill=1;strokeColor=#666666;" parent="1" source="-wsc2XBUxjwpWOjfPmOZ-87" target="-wsc2XBUxjwpWOjfPmOZ-209" edge="1">
          <mxGeometry relative="1" as="geometry">
            <Array as="points">
              <mxPoint x="580" y="-261" />
              <mxPoint x="580" y="330" />
            </Array>
          </mxGeometry>
        </mxCell>
        <mxCell id="-wsc2XBUxjwpWOjfPmOZ-243" value="业务请求" style="whiteSpace=wrap;html=1;fontSize=16;fontStyle=1" parent="1" vertex="1">
          <mxGeometry x="717" y="-278.5" width="90" height="30" as="geometry" />
        </mxCell>
        <mxCell id="-wsc2XBUxjwpWOjfPmOZ-292" value="" style="group;fontFamily=Helvetica;fontSize=20;" parent="1" vertex="1" connectable="0">
          <mxGeometry x="1054" y="-112" width="92" height="112" as="geometry" />
        </mxCell>
        <mxCell id="-wsc2XBUxjwpWOjfPmOZ-293" value="&lt;font color=&quot;#333333&quot;&gt;&lt;span style=&quot;font-size: 16px&quot;&gt;&lt;b&gt;云防火墙&lt;/b&gt;&lt;/span&gt;&lt;/font&gt;" style="rounded=0;whiteSpace=wrap;html=1;shadow=1;comic=0;strokeColor=#E6E6E6;strokeWidth=2;fillColor=#ffffff;gradientColor=none;fontSize=22;fontColor=#FFFFFF;verticalAlign=bottom;" parent="-wsc2XBUxjwpWOjfPmOZ-292" vertex="1">
          <mxGeometry y="82" width="92" height="30" as="geometry" />
        </mxCell>
        <mxCell id="-wsc2XBUxjwpWOjfPmOZ-294" value="" style="shape=image;verticalLabelPosition=bottom;labelBackgroundColor=#ffffff;verticalAlign=top;aspect=fixed;imageAspect=0;image=data:image/svg+xml,PHN2ZyB4bWxucz0iaHR0cDovL3d3dy53My5vcmcvMjAwMC9zdmciIHZpZXdCb3g9IjAgMCA0MC43MSAzNi44NCI+PGRlZnM+PHN0eWxlPi5jbHMtMXtmaWxsOiNmZmY7c3Ryb2tlOiMyMzE4MTU7c3Ryb2tlLXdpZHRoOjAuNzhweDt9LmNscy0xLC5jbHMtNHtzdHJva2UtbWl0ZXJsaW1pdDoxMDt9LmNscy0ye2ZpbGw6I2VmZWZlZjt9LmNscy0ze2ZpbGw6I2RjZGRkZDt9LmNscy00e2ZpbGw6bm9uZTtzdHJva2U6Z3JheTtzdHJva2Utd2lkdGg6MC42OHB4O308L3N0eWxlPjwvZGVmcz48dGl0bGU+6LWE5rqQIDE4PC90aXRsZT48ZyBpZD0i5Zu+5bGCXzIiIGRhdGEtbmFtZT0i5Zu+5bGCIDIiPjxnIGlkPSLlm77lsYJfMS0yIiBkYXRhLW5hbWU9IuWbvuWxgiAxIj48cG9seWdvbiBjbGFzcz0iY2xzLTEiIHBvaW50cz0iNDAuMzEgMTIuODYgMjAuMzYgMC40NiAwLjQgMTIuODYgMC4zOSAyNC4wNSAyMC4zNCAzNi40NiAyMC4zNyAzNi40NiA0MC4zMyAyNC4wNSA0MC4zMSAxMi44NiIvPjxwb2x5Z29uIGNsYXNzPSJjbHMtMiIgcG9pbnRzPSIyMC40IDM2LjQzIDAuNDUgMjQuMDIgMC40NiAxMi44NCAyMC40MiAyNS4yNCAyMC40IDM2LjQzIi8+PHBvbHlnb24gY2xhc3M9ImNscy0zIiBwb2ludHM9IjIwLjQzIDM2LjQzIDQwLjM4IDI0LjAyIDQwLjM3IDEyLjg0IDIwLjQyIDI1LjI0IDIwLjQzIDM2LjQzIi8+PHBvbHlnb24gY2xhc3M9ImNscy00IiBwb2ludHM9IjQwLjMxIDEyLjg2IDIwLjM2IDAuNDYgMC40IDEyLjg2IDAuMzkgMjQuMDUgMjAuMzQgMzYuNDYgMjAuMzcgMzYuNDYgNDAuMzMgMjQuMDUgNDAuMzEgMTIuODYiLz48L2c+PC9nPjwvc3ZnPg==;" parent="-wsc2XBUxjwpWOjfPmOZ-292" vertex="1">
          <mxGeometry x="1.1368683772161603e-13" width="90" height="81.22" as="geometry" />
        </mxCell>
        <mxCell id="-wsc2XBUxjwpWOjfPmOZ-295" value="" style="shape=image;verticalLabelPosition=bottom;verticalAlign=top;imageAspect=0;image=data:image/svg+xml,PHN2ZyB3aWR0aD0iMjQuNzI2NTYyNSIgaGVpZ2h0PSIyNi40NDE0MDYyNSIgeG1sbnM9Imh0dHA6Ly93d3cudzMub3JnLzIwMDAvc3ZnIiB4bWxuczp4bGluaz0iaHR0cDovL3d3dy53My5vcmcvMTk5OS94bGluayIgb3ZlcmZsb3c9ImhpZGRlbiIgdmlld0JveD0iMi4xMjUgMS41NTg1OTM3NSAyNC43MjY1NjI1IDI2LjQ0MTQwNjI1Ij48ZGVmcz48Y2xpcFBhdGggaWQ9ImNsaXAwIj48cmVjdCB4PSI5MDAiIHk9IjM0NiIgd2lkdGg9IjI5IiBoZWlnaHQ9IjI5Ii8+PC9jbGlwUGF0aD48Y2xpcFBhdGggaWQ9ImNsaXAxIj48cmVjdCB4PSI5MDEiIHk9IjM0NyIgd2lkdGg9IjI3IiBoZWlnaHQ9IjI3Ii8+PC9jbGlwUGF0aD48Y2xpcFBhdGggaWQ9ImNsaXAyIj48cmVjdCB4PSI5MDEiIHk9IjM0NyIgd2lkdGg9IjI3IiBoZWlnaHQ9IjI3Ii8+PC9jbGlwUGF0aD48Y2xpcFBhdGggaWQ9ImNsaXAzIj48cmVjdCB4PSI5MDEiIHk9IjM0NyIgd2lkdGg9IjI3IiBoZWlnaHQ9IjI3Ii8+PC9jbGlwUGF0aD48L2RlZnM+PGcgY2xpcC1wYXRoPSJ1cmwoI2NsaXAwKSIgdHJhbnNmb3JtPSJ0cmFuc2xhdGUoLTkwMCAtMzQ2KSI+PGcgY2xpcC1wYXRoPSJ1cmwoI2NsaXAxKSI+PGcgY2xpcC1wYXRoPSJ1cmwoI2NsaXAyKSI+PGcgY2xpcC1wYXRoPSJ1cmwoI2NsaXAzKSI+PHBhdGggZD0iTTkxNC41IDM3NCA5MTQuMjE5IDM3My44MzdDOTA2Ljc0IDM2OS40OTIgOTAyLjEzNCAzNjEuNDk5IDkwMi4xMjUgMzUyLjg1IDkwMi4xMjUgMzUyLjU4IDkwMi4xMjUgMzUyLjMxOCA5MDIuMTI1IDM1Mi4wNjJMOTAyLjEyNSAzNTEuNzcgOTAyLjM0NCAzNTEuNjA3QzkwOS41NDIgMzQ2LjIxMiA5MTkuNDM1IDM0Ni4yMTIgOTI2LjYzMyAzNTEuNjA3TDkyNi44NTIgMzUxLjc3IDkyNi44NTIgMzUyLjA2MkM5MjYuODUyIDM1Mi4zMzIgOTI2Ljg1MiAzNTIuNjAzIDkyNi44NTIgMzUyLjg3MiA5MjYuODMgMzYxLjUwNCA5MjIuMjMxIDM2OS40NzUgOTE0Ljc3IDM3My44MTRaTTkwMy4yNSAzNTIuMzQ5QzkwMy4yNSAzNTIuNTEzIDkwMy4yNSAzNTIuNjgxIDkwMy4yNSAzNTIuODUgOTAzLjI2OSAzNjAuOTc0IDkwNy41MzYgMzY4LjQ5NSA5MTQuNSAzNzIuNjc4IDkyMS40NjQgMzY4LjQ5NSA5MjUuNzMxIDM2MC45NzQgOTI1Ljc1IDM1Mi44NSA5MjUuNzUgMzUyLjY4MSA5MjUuNzUgMzUyLjUxMyA5MjUuNzUgMzUyLjM0OSA5MTkuMDQzIDM0Ny40NzEgOTA5Ljk1NyAzNDcuNDcxIDkwMy4yNSAzNTIuMzQ5WiIgZmlsbD0iIzAwQTRGRiIvPjxwYXRoIGQ9Ik05MDcuNzUgMzU4LjIxMSA5MDcuNzUgMzU1LjAwNEM5MDYuMzY5IDM1NS41NjQgOTA1LjAzOCAzNTYuMjQyIDkwMy43NzMgMzU3LjAyOUw5MDMuMjExIDM1Ni4wNjJDOTA0Ljc1OCAzNTUuMDcxIDkwNi40MiAzNTQuMjcyIDkwOC4xNjEgMzUzLjY4Mkw5MDguODc1IDM1My40NjkgOTA4Ljg3NSAzNTYuNzE0QzkwOS43OTcgMzU2LjQ1OCA5MTAuNzM3IDM1Ni4yNyA5MTEuNjg4IDM1Ni4xNTJMOTExLjY4OCAzNTIuODQ0IDkxMi4xNjYgMzUyLjc3MUM5MTIuOTI4IDM1Mi42NyA5MTMuNjk3IDM1Mi42MjIgOTE0LjQ2NiAzNTIuNjI1IDkxNS4yNTIgMzUyLjYyNCA5MTYuMDM4IDM1Mi42NzUgOTE2LjgxOCAzNTIuNzc3TDkxNy4zMDEgMzUyLjg1IDkxNy4zMDEgMzU2LjE2M0M5MTguMjM4IDM1Ni4yODEgOTE5LjE2NSAzNTYuNDY5IDkyMC4wNzQgMzU2LjcyNkw5MjAuMDc0IDM1My40NjkgOTIwLjc5NCAzNTMuNjgyQzkyMi42MTEgMzU0LjI5MyA5MjQuMzQyIDM1NS4xMzMgOTI1Ljk0NyAzNTYuMThMOTI1LjM4NCAzNTcuMTQyQzkyNC4wNjMgMzU2LjMwMiA5MjIuNjY4IDM1NS41ODQgOTIxLjIxNiAzNTQuOTk5TDkyMS4yMTYgMzU4LjIwNSA5MjAuNDk2IDM1Ny45OTFDOTE5LjI2MiAzNTcuNjA4IDkxNy45OTEgMzU3LjM1IDkxNi43MDUgMzU3LjIyMUw5MTYuMTg4IDM1Ny4xNzYgOTE2LjE4OCAzNTMuODI5QzkxNS42MjcgMzUzLjc3MyA5MTUuMDY0IDM1My43NDQgOTE0LjUgMzUzLjc0NCA5MTMuOTM4IDM1My43NDQgOTEzLjM3NSAzNTMuNzQ0IDkxMi44NDYgMzUzLjgyM0w5MTIuODQ2IDM1Ny4xOTggOTEyLjMzNCAzNTcuMjQzQzkxMS4wMjcgMzU3LjM3MSA5MDkuNzM2IDM1Ny42MzEgOTA4LjQ4MSAzNTguMDE5WiIgZmlsbD0iIzAwQTRGRiIvPjwvZz48L2c+PC9nPjwvZz48L3N2Zz4=;fontFamily=Helvetica;fontSize=20;" parent="-wsc2XBUxjwpWOjfPmOZ-292" vertex="1">
          <mxGeometry x="26" y="11" width="40" height="40" as="geometry" />
        </mxCell>
        <mxCell id="-wsc2XBUxjwpWOjfPmOZ-296" value="" style="group;" parent="1" vertex="1" connectable="0">
          <mxGeometry x="1163" y="-112" width="100" height="112" as="geometry" />
        </mxCell>
        <mxCell id="-wsc2XBUxjwpWOjfPmOZ-297" value="&lt;font color=&quot;#333333&quot;&gt;&lt;span style=&quot;font-size: 16px&quot;&gt;&lt;b&gt;VPC私有网络&lt;/b&gt;&lt;/span&gt;&lt;/font&gt;" style="rounded=0;whiteSpace=wrap;html=1;shadow=1;comic=0;strokeColor=#E6E6E6;strokeWidth=2;fillColor=#ffffff;gradientColor=none;fontSize=22;fontColor=#FFFFFF;verticalAlign=bottom;" parent="-wsc2XBUxjwpWOjfPmOZ-296" vertex="1">
          <mxGeometry x="-6" y="82" width="100" height="30" as="geometry" />
        </mxCell>
        <mxCell id="-wsc2XBUxjwpWOjfPmOZ-298" value="" style="shape=image;verticalLabelPosition=bottom;labelBackgroundColor=#ffffff;verticalAlign=top;aspect=fixed;imageAspect=0;image=data:image/svg+xml,PHN2ZyB4bWxucz0iaHR0cDovL3d3dy53My5vcmcvMjAwMC9zdmciIHZpZXdCb3g9IjAgMCA0MC43MSAzNi44NCI+PGRlZnM+PHN0eWxlPi5jbHMtMXtmaWxsOiNmZmY7c3Ryb2tlOiMyMzE4MTU7c3Ryb2tlLXdpZHRoOjAuNzhweDt9LmNscy0xLC5jbHMtNHtzdHJva2UtbWl0ZXJsaW1pdDoxMDt9LmNscy0ye2ZpbGw6I2VmZWZlZjt9LmNscy0ze2ZpbGw6I2RjZGRkZDt9LmNscy00e2ZpbGw6bm9uZTtzdHJva2U6Z3JheTtzdHJva2Utd2lkdGg6MC42OHB4O308L3N0eWxlPjwvZGVmcz48dGl0bGU+6LWE5rqQIDE4PC90aXRsZT48ZyBpZD0i5Zu+5bGCXzIiIGRhdGEtbmFtZT0i5Zu+5bGCIDIiPjxnIGlkPSLlm77lsYJfMS0yIiBkYXRhLW5hbWU9IuWbvuWxgiAxIj48cG9seWdvbiBjbGFzcz0iY2xzLTEiIHBvaW50cz0iNDAuMzEgMTIuODYgMjAuMzYgMC40NiAwLjQgMTIuODYgMC4zOSAyNC4wNSAyMC4zNCAzNi40NiAyMC4zNyAzNi40NiA0MC4zMyAyNC4wNSA0MC4zMSAxMi44NiIvPjxwb2x5Z29uIGNsYXNzPSJjbHMtMiIgcG9pbnRzPSIyMC40IDM2LjQzIDAuNDUgMjQuMDIgMC40NiAxMi44NCAyMC40MiAyNS4yNCAyMC40IDM2LjQzIi8+PHBvbHlnb24gY2xhc3M9ImNscy0zIiBwb2ludHM9IjIwLjQzIDM2LjQzIDQwLjM4IDI0LjAyIDQwLjM3IDEyLjg0IDIwLjQyIDI1LjI0IDIwLjQzIDM2LjQzIi8+PHBvbHlnb24gY2xhc3M9ImNscy00IiBwb2ludHM9IjQwLjMxIDEyLjg2IDIwLjM2IDAuNDYgMC40IDEyLjg2IDAuMzkgMjQuMDUgMjAuMzQgMzYuNDYgMjAuMzcgMzYuNDYgNDAuMzMgMjQuMDUgNDAuMzEgMTIuODYiLz48L2c+PC9nPjwvc3ZnPg==;" parent="-wsc2XBUxjwpWOjfPmOZ-296" vertex="1">
          <mxGeometry x="1.0000000000001137" width="90" height="81.22" as="geometry" />
        </mxCell>
        <mxCell id="-wsc2XBUxjwpWOjfPmOZ-299" value="" style="shape=image;verticalLabelPosition=bottom;verticalAlign=top;imageAspect=0;aspect=fixed;image=data:image/svg+xml,PHN2ZyB3aWR0aD0iMjUuNzYxNzE4NzUiIGhlaWdodD0iMjUuODM5ODQzNzUiIHhtbG5zPSJodHRwOi8vd3d3LnczLm9yZy8yMDAwL3N2ZyIgeG1sbnM6eGxpbms9Imh0dHA6Ly93d3cudzMub3JnLzE5OTkveGxpbmsiIG92ZXJmbG93PSJoaWRkZW4iIHZpZXdCb3g9IjAuNTYyNSAwLjY5OTIxODc1IDI1Ljc2MTcxODc1IDI1LjgzOTg0Mzc1Ij48ZGVmcz48Y2xpcFBhdGggaWQ9ImNsaXAwIj48cmVjdCB4PSI2MDciIHk9IjMxNiIgd2lkdGg9IjI4IiBoZWlnaHQ9IjI4Ii8+PC9jbGlwUGF0aD48Y2xpcFBhdGggaWQ9ImNsaXAxIj48cmVjdCB4PSI2MDciIHk9IjMxNiIgd2lkdGg9IjI3IiBoZWlnaHQ9IjI3Ii8+PC9jbGlwUGF0aD48Y2xpcFBhdGggaWQ9ImNsaXAyIj48cmVjdCB4PSI2MDciIHk9IjMxNiIgd2lkdGg9IjI3IiBoZWlnaHQ9IjI3Ii8+PC9jbGlwUGF0aD48Y2xpcFBhdGggaWQ9ImNsaXAzIj48cmVjdCB4PSI2MDciIHk9IjMxNiIgd2lkdGg9IjI3IiBoZWlnaHQ9IjI3Ii8+PC9jbGlwUGF0aD48L2RlZnM+PGcgY2xpcC1wYXRoPSJ1cmwoI2NsaXAwKSIgdHJhbnNmb3JtPSJ0cmFuc2xhdGUoLTYwNyAtMzE2KSI+PGcgY2xpcC1wYXRoPSJ1cmwoI2NsaXAxKSI+PGcgY2xpcC1wYXRoPSJ1cmwoI2NsaXAyKSI+PGcgY2xpcC1wYXRoPSJ1cmwoI2NsaXAzKSI+PHBhdGggZD0iTTYzMi4xNzggMzMxLjE4OEM2MzEuMzU3IDMzNy4zNzUgNjI2LjQ1IDM0MS40NDggNjIwLjUgMzQxLjQ0OCA2MTMuOTc2IDM0MS40NDggNjA4LjY4OCAzMzYuMjI2IDYwOC42ODggMzI5LjcwMyA2MDguNjg4IDMyMy4xNzkgNjEzLjk3NiAzMTcuNzg5IDYyMC41IDMxNy43ODkgNjI2LjQ1IDMxNy43ODkgNjMxLjM1NyAzMjIuMTg4IDYzMi4xNzggMzI3LjgxMkw2MzMuMzI0IDMyNy44MTJDNjMyLjQ5NyAzMjEuNjI1IDYyNy4wNzMgMzE2LjY5OCA2MjAuNSAzMTYuNjk4IDYxMy4zNTUgMzE2LjY5OCA2MDcuNTYyIDMyMi41NTcgNjA3LjU2MiAzMjkuNzAzIDYwNy41NjIgMzM2Ljg0OCA2MTMuMzU1IDM0Mi41MzkgNjIwLjUgMzQyLjUzOSA2MjcuMDczIDM0Mi41MzkgNjMyLjQ5NyAzMzcuOTM4IDYzMy4zMjQgMzMxLjE4OEw2MzIuMTc4IDMzMS4xODhaIiBmaWxsPSIjMDBBNEZGIi8+PHBhdGggZD0iTTYxNC44NzUgMzI4LjkzOCA2MTYgMzI4LjkzOCA2MTYgMzM2LjI1IDYxNC44NzUgMzM2LjI1WiIgZmlsbD0iIzAwQTRGRiIvPjxwYXRoIGQ9Ik02MjUgMzI4LjkzOCA2MjYuMTI1IDMyOC45MzggNjI2LjEyNSAzMzYuMjUgNjI1IDMzNi4yNVoiIGZpbGw9IiMwMEE0RkYiLz48cGF0aCBkPSJNNjE2IDMyOC45MzggNjI1IDMyOC45MzggNjI1IDMzMC4wNjIgNjE2IDMzMC4wNjJaIiBmaWxsPSIjMDBBNEZGIi8+PHBhdGggZD0iTTYxNiAzMzUuMTI1IDYyNSAzMzUuMTI1IDYyNSAzMzYuMjUgNjE2IDMzNi4yNVoiIGZpbGw9IiMwMEE0RkYiLz48cGF0aCBkPSJNNjE3LjEyNyAzMjcuODEyQzYxNy4xMjcgMzI3LjI1IDYxNy4xMjUgMzI3LjY0NyA2MTcuMTI1IDMyNy42MzQgNjE3LjEyNSAzMjUuNzcgNjE4LjYzNiAzMjQuMTg4IDYyMC41IDMyNC4xODggNjIyLjM2NCAzMjQuMTg4IDYyMy44NzUgMzI1LjgwNSA2MjMuODc1IDMyNy42NjkgNjIzLjg3NSAzMjcuNjgyIDYyMy44NzMgMzI3LjI1IDYyMy44NzMgMzI3LjgxMkw2MjQuOTk4IDMyNy44MTJDNjI0Ljk5OCAzMjcuMjUgNjI1IDMyNy42NDcgNjI1IDMyNy42MzQgNjI1IDMyNS4xNDggNjIyLjk4NSAzMjMuMDYzIDYyMC41IDMyMy4wNjMgNjE4LjAxNSAzMjMuMDYzIDYxNiAzMjUuMTgzIDYxNiAzMjcuNjY5IDYxNiAzMjcuNjgyIDYxNi4wMDIgMzI3LjI1IDYxNi4wMDIgMzI3LjgxMkw2MTcuMTI3IDMyNy44MTJaIiBmaWxsPSIjMDBBNEZGIi8+PHBhdGggZD0iTTYxNiAzMjcuODEyIDYxNy4xMjUgMzI3LjgxMiA2MTcuMTI1IDMyOC45MzggNjE2IDMyOC45MzhaIiBmaWxsPSIjMDBBNEZGIi8+PHBhdGggZD0iTTYyMy44NzUgMzI3LjgxMiA2MjUgMzI3LjgxMiA2MjUgMzI4LjkzOCA2MjMuODc1IDMyOC45MzhaIiBmaWxsPSIjMDBBNEZGIi8+PC9nPjwvZz48L2c+PC9nPjwvc3ZnPg==;fillColor=#333333;" parent="-wsc2XBUxjwpWOjfPmOZ-296" vertex="1">
          <mxGeometry x="28" y="14" width="36" height="36" as="geometry" />
        </mxCell>
      </root>
    </mxGraphModel>
  </diagram>
</mxfile>
